<?xml version="1.0" standalone="no"?>
<!DOCTYPE svg PUBLIC "-//W3C//DTD SVG 1.1//EN" "http://www.w3.org/Graphics/SVG/1.1/DTD/svg11.dtd" >
<svg xmlns="http://www.w3.org/2000/svg" xmlns:xlink="http://www.w3.org/1999/xlink" version="1.1">
<metadata>
Created by FontForge 20200427 at Fri Sep 18 19:49:51 2020
 By www
Copyright (c) 2014 by Anton Koovit. All rights reserved.
</metadata>
<defs>
<font id="U8-Regular" horiz-adv-x="578" >
  <font-face 
    font-family="U8"
    font-weight="400"
    font-stretch="normal"
    units-per-em="1000"
    panose-1="2 11 10 3 3 2 0 2 2 4"
    ascent="820"
    descent="-180"
    x-height="498"
    cap-height="773"
    bbox="-164 -205 1300 1151"
    underline-thickness="50"
    underline-position="-100"
    unicode-range="U+000D-FB04"
  />
<missing-glyph horiz-adv-x="500" 
 />
    <glyph glyph-name="f_f" unicode="ff" horiz-adv-x="551" 
d="M368 416h-183v-416h-88v416h-82v82h82v114q0 77 46 122t121 45q73 0 122 -41l-44 -67q-32 27 -72 27t-62 -24q-23 -25 -23 -68v-108h183v114q0 79 46 122q48 43 122 45q74 0 121 -41l-44 -67q-30 27 -70.5 27t-63.5 -24q-23 -25 -23 -68v-108h89v-82h-89v-416h-88v416z
" />
    <glyph glyph-name="fi" unicode="fi" horiz-adv-x="519" 
d="M92 416h-77v82h77v114q0 78 46 123q47 44 118 44q39 0 68 -10l-16 -78q-20 7 -52 7q-30 0 -53 -24q-22 -25 -22 -68v-108h88v-82h-88v-416h-89v416zM461 690q0 -24 -17 -41t-40 -17q-24 0 -40 16.5t-16 40.5t16 40.5t40 16.5q23 0 40 -16.5t17 -39.5zM449 0h-91v498h91
v-498z" />
    <glyph glyph-name="fl" unicode="fl" horiz-adv-x="510" 
d="M441 0h-91v606q0 44 -22.5 68t-61.5 24t-62 -24t-23 -68v-108h88v-82h-88v-416h-89v416h-77v82h77v114q0 79 46 122q49 44 81 44l33 1q62 0 98 -27v28h91v-780z" />
    <glyph glyph-name="f_f_i" unicode="ffi" horiz-adv-x="796" 
d="M97 416h-82v82h82v114q0 77 46 122t122 45q74 0 121 -41l-44 -67q-32 27 -72 27t-62 -24q-23 -25 -23 -68v-108h193v114q0 77 45 122t118 45q43 0 71 -12l-19 -77q-19 10 -51.5 8t-52.5 -24q-23 -25 -23 -68v-108h89v-82h-89v-416h-88v416h-193v-416h-88v416zM735 0h-91
v498h91v-498zM746 690q0 -24 -17 -41t-40 -17q-24 0 -40 16.5t-16 40.5t16 40.5t40 16.5q23 0 40 -16.5t17 -39.5z" />
    <glyph glyph-name="f_f_l" unicode="ffl" horiz-adv-x="789" 
d="M720 0h-91v606q0 43 -23 68q-24 24 -62 24t-61 -24q-23 -25 -23 -68v-108h88v-82h-88v-416h-89v416h-186v-416h-88v416h-82v82h82v114q0 77 46 122t121 45q73 0 122 -41l-44 -67q-32 27 -72 27t-62 -24q-23 -25 -23 -68v-108h186v114q0 78 47 123q47 44 110 44
q64 0 101 -27v28h91v-780z" />
    <glyph glyph-name="f_j" unicode="fj" horiz-adv-x="519" 
d="M92 416h-77v82h77v114q0 77 45.5 122t118.5 45q39 0 68 -10l-16 -78q-69 22 -105 -17q-22 -25 -22 -68v-108h88v-82h-88v-416h-89v416zM277 -184l-1 76q82 3 82 103v503h91v-498q0 -89 -44.5 -135.5t-127.5 -48.5zM461 690q0 -24 -17 -41t-40 -17q-24 0 -40 16.5
t-16 40.5t16 40.5t40 16.5q23 0 40 -16.5t17 -39.5z" />
    <glyph glyph-name="f_b" unicode="fb" horiz-adv-x="883" 
d="M441 0h-91v610q-1 42 -23.5 65t-61.5 23t-61.5 -24t-22.5 -68v-108h88v-82h-88v-416h-89v416h-77v82h77v114q0 79 46 122q48 44 112 45q64 0 100 -27v28h91v-330q67 55 155 55q110 0 184 -75q74 -76 74 -181t-74 -181q-73 -76 -184 -76q-88 0 -155 57v-49zM592 419
q-48 0 -88.5 -23t-62.5 -62v-168q22 -40 62 -64t88 -24q74 0 124 50q49 49 49 121t-49 121t-123 49z" />
    <glyph glyph-name=".notdef" horiz-adv-x="500" 
 />
    <glyph glyph-name="uni0000" horiz-adv-x="500" 
 />
    <glyph glyph-name="uni0000" horiz-adv-x="500" 
 />
    <glyph glyph-name="uni000D" unicode="&#xd;" horiz-adv-x="200" 
 />
    <glyph glyph-name="space" unicode=" " horiz-adv-x="278" 
 />
    <glyph glyph-name="exclam" unicode="!" horiz-adv-x="279" 
d="M180 193h-81l-11 559h103zM138 -11q-23 0 -39.5 16.5t-16.5 39.5q0 25 16.5 41.5t39.5 16.5q24 0 41 -16.5t17 -41.5q0 -23 -17 -39.5t-41 -16.5z" />
    <glyph glyph-name="quotedbl" unicode="&#x22;" horiz-adv-x="305" 
d="M120 551h-63l-14 229h78zM248 551h-63l-1 229h78z" />
    <glyph glyph-name="numbersign" unicode="#" horiz-adv-x="662" 
d="M194 416h-122l15 77h123l31 157h87l-31 -157h135l31 157h87l-31 -157h123l-15 -77h-124l-37 -187h123l-16 -77h-123l-30 -152h-87l30 152h-135l-30 -152h-87l30 152h-123l16 77h123zM416 416h-135l-37 -187h135z" />
    <glyph glyph-name="dollar" unicode="$" horiz-adv-x="558" 
d="M255 669v96h82v-97q84 -10 153 -63l-52 -74q-45 39 -101 50v-173l22 -7q151 -52 151 -178q0 -66 -47 -116q-47 -49 -126 -63v-109h-82v106q-127 9 -216 92l65 74q67 -67 151 -77v205l-16 6q-77 27 -114 67t-37 100q0 61 46 106q46 44 121 55zM181 511q0 -46 74 -75v147
q-74 -14 -74 -72zM415 216q0 58 -78 91v-173q36 10 57 32t21 50z" />
    <glyph glyph-name="percent" unicode="%" horiz-adv-x="920" 
d="M80 543l-1 36l1 38q2 68 45 116q42 47 109 47q65 0 109 -47q43 -47 44 -116q1 -5 1 -35q0 -33 -1 -40q-1 -70 -44 -117q-44 -47 -111 -47q-68 0 -109 47q-42 48 -43 118zM249 0h-85l505 773h85zM233 444q86 0 86 136q0 134 -85 134t-85 -135t84 -135zM532 158l-1 36l1 38
q2 68 45 116q42 47 109 47q65 0 109 -47q43 -47 44 -116q1 -5 1 -35q0 -33 -1 -40q-1 -70 -44 -117q-44 -47 -111 -47q-68 0 -109 47q-42 48 -43 118zM685 59q86 0 86 136q0 134 -85 134t-85 -135t84 -135z" />
    <glyph glyph-name="ampersand" unicode="&#x26;" horiz-adv-x="653" 
d="M269 -12q-94 0 -156 62t-62 156q0 66 35 115.5t106 92.5l-17 19q-71 79 -71 160t56 137q56 54 135 54q81 0 136 -54q55 -55 55 -134q0 -129 -162 -203l-2 -1l142 -154q18 45 38 146l82 -6q-18 -124 -58 -207l124 -134l-62 -58l-107 118q-82 -109 -212 -109zM296 706
q-48 0 -79 -32t-31 -83t53 -109l27 -30l18 9q63 27 91 59t28 77t-30 77t-77 32zM271 71q95 0 153 88l-177 194q-109 -64 -109 -146q0 -57 38 -97q37 -39 95 -39z" />
    <glyph glyph-name="quotesingle" unicode="'" horiz-adv-x="173" 
d="M116 551h-62l-11 229h87z" />
    <glyph glyph-name="parenleft" unicode="(" horiz-adv-x="328" 
d="M321 -155l-67 -48q-91 107 -144 245q-54 140 -54 283q0 142 53 286q53 143 144 249l66 -51q-81 -97 -127 -225q-47 -132 -47 -259q0 -131 49 -256q48 -127 127 -224z" />
    <glyph glyph-name="parenright" unicode=")" horiz-adv-x="328" 
d="M73 -203l-67 50q80 98 129 224q49 125 49 256q0 127 -47 259q-48 129 -128 225l67 49q92 -107 144 -248t52 -287q0 -143 -54 -283q-55 -139 -145 -245z" />
    <glyph glyph-name="asterisk" unicode="*" horiz-adv-x="484" 
d="M428 674l23 -72l-147 -48l91 -125l-62 -44l-92 126l-91 -126l-60 44l89 124l-146 48l24 72l147 -48v155h75v-154zM266 605h-48l-14 -43l37 -27l38 27z" />
    <glyph glyph-name="plus" unicode="+" horiz-adv-x="610" 
d="M263 314h-210v80h210v212h84v-212h210v-80h-210v-214h-84v214z" />
    <glyph glyph-name="comma" unicode="," horiz-adv-x="212" 
d="M54 -164l-56 21l89 239l84 -30z" />
    <glyph glyph-name="hyphen" unicode="-" horiz-adv-x="393" 
d="M347 242h-301v82h301v-82z" />
    <glyph glyph-name="hyphen" unicode="&#xad;" horiz-adv-x="393" 
d="M347 242h-301v82h301v-82z" />
    <glyph glyph-name="period" unicode="." horiz-adv-x="212" 
d="M163 46q0 -24 -17 -40.5t-40 -16.5q-24 0 -40.5 16.5t-16.5 40.5t16.5 40.5t40.5 16.5q23 0 40 -16.5t17 -40.5z" />
    <glyph glyph-name="slash" unicode="/" horiz-adv-x="379" 
d="M87 -126h-79l301 906h77z" />
    <glyph glyph-name="zero" unicode="0" horiz-adv-x="633" 
d="M492 59q-73 -71 -176 -71q-104 0 -175 71q-72 71 -72 177v304q0 106 72 177q70 70 176 70t176 -70q71 -71 71 -175v-307q0 -106 -72 -176zM160 539v-303q0 -72 45 -115q44 -45 112 -45q67 0 112 45q45 43 45 114v305q0 70 -45 115q-46 44 -113 44q-68 0 -112 -45
q-44 -46 -44 -115z" />
    <glyph glyph-name="one" unicode="1" horiz-adv-x="358" 
d="M274 0h-89v659l-157 -85v91l204 114h42v-779z" />
    <glyph glyph-name="two" unicode="2" horiz-adv-x="535" 
d="M497 0h-466v54l318 419q41 54 41.5 107t-37.5 88q-37 36 -96 36q-57 0 -95 -39q-38 -41 -39 -103h-88q0 96 64 160q63 65 159 65t159 -60q64 -60 63 -143t-70 -171l-255 -330h342v-83z" />
    <glyph glyph-name="three" unicode="3" horiz-adv-x="531" 
d="M486 214q0 -94 -69 -160t-164 -66t-163 65t-70 154h84q2 -56 45 -95q43 -40 104 -40q58 0 102 41q43 40 43 103q0 62 -42 104q-44 42 -107 42h-36l1 84h35q60 0 101 38q40 37 40 94q0 54 -39 92q-38 37 -98 37t-99 -39q-40 -39 -40 -95h-84v3q0 88 64 149q65 62 160 62
q96 0 160 -61t64 -151q0 -59 -32 -105t-87 -67q58 -20 92.5 -70.5t34.5 -118.5z" />
    <glyph glyph-name="four" unicode="4" horiz-adv-x="540" 
d="M328 184h-305v49l285 540h95l-265 -507h190v129h84v-129h108v-82h-108v-184h-84v184z" />
    <glyph glyph-name="five" unicode="5" horiz-adv-x="575" 
d="M282 -12q-87 0 -154 47q-67 46 -93 125l83 32q16 -53 61.5 -85t110.5 -32q68 0 116 49q48 48 48 120t-50 120q-48 48 -120 48t-124 -52h-87v413h429v-85h-341v-231q55 37 123 37q114 0 188 -71q72 -71 72 -179t-75 -182q-77 -74 -187 -74z" />
    <glyph glyph-name="six" unicode="6" horiz-adv-x="568" 
d="M525 216q0 -95 -67 -161q-67 -67 -162 -67q-97 0 -161 67q-66 67 -66 161v335q0 104 66 170q65 65 159 65t156 -58q63 -59 63 -154h-85q0 56 -38 94q-37 36 -97 36q-58 0 -99 -41q-40 -41 -40 -108v-183q57 70 148 70t157 -66t66 -160zM155 219q0 -62 41 -106
q40 -43 100 -43q58 0 101 43q42 43 42 102t-42 102q-43 42 -99 42t-99 -39q-44 -39 -44 -101z" />
    <glyph glyph-name="seven" unicode="7" horiz-adv-x="467" 
d="M166 -6l-88 12l270 681h-335v86h448v-41z" />
    <glyph glyph-name="eight" unicode="8" horiz-adv-x="557" 
d="M447 56q-71 -68 -169 -68t-168 68q-69 67 -69 166q0 60 31.5 112.5t84.5 82.5q-42 28 -65.5 71.5t-23.5 94.5q0 85 62 145q62 59 148 59q85 0 149 -59q62 -60 62 -145q0 -105 -91 -166q55 -30 86.5 -81.5t31.5 -113.5q0 -99 -69 -166zM403 580q0 52 -36 89q-37 36 -89 36
q-54 0 -88 -36q-36 -37 -36 -89q0 -53 36 -89q34 -37 88 -37q52 0 89 37q36 37 36 89zM131 222q0 -63 43 -106q44 -44 105 -44q60 0 104 44q43 43 43 106q0 62 -43 105q-43 42 -105 42t-104 -42q-43 -43 -43 -105z" />
    <glyph glyph-name="nine" unicode="9" horiz-adv-x="516" 
d="M250 335q-88 0 -155 65q-67 64 -67 162q0 96 71 161q70 64 161 64q90 0 158 -65t68 -158q0 -60 -27 -114q-49 -96 -118 -225q-106 -200 -119 -225h-96q34 68 99 189q24 46 51 95.5t31 57.5q-24 -7 -57 -7zM114 562q0 -62 43 -104q42 -42 103 -42q60 0 100 42
q40 41 40 104q0 62 -41 103q-41 40 -99 40q-59 0 -102 -40q-44 -41 -44 -103z" />
    <glyph glyph-name="colon" unicode=":" horiz-adv-x="242" 
d="M64 424q0 21 17 36.5t41 15.5q23 0 40 -15.5t17 -36.5q0 -22 -17.5 -38t-40.5 -16t-40 16t-17 38zM63 43q0 21 16.5 36.5t40.5 15.5q23 0 40 -15.5t17 -36.5q0 -22 -17 -38t-40 -16q-24 0 -40.5 16t-16.5 38z" />
    <glyph glyph-name="semicolon" unicode=";" horiz-adv-x="246" 
d="M73 424q0 21 16.5 36.5t40.5 15.5q23 0 40 -15.5t17 -36.5q0 -22 -17.5 -38t-40.5 -16t-39.5 16t-16.5 38zM64 -164l-56 21l89 239l84 -30z" />
    <glyph glyph-name="less" unicode="&#x3c;" horiz-adv-x="450" 
d="M403 92l-367 152v70l367 150v-81l-263 -103l263 -105v-83z" />
    <glyph glyph-name="equal" unicode="=" horiz-adv-x="583" 
d="M511 421h-438v80h438v-80zM511 227h-438v81h438v-81z" />
    <glyph glyph-name="greater" unicode="&#x3e;" horiz-adv-x="450" 
d="M47 464l367 -152v-70l-367 -150v81l263 103l-263 105v83z" />
    <glyph glyph-name="question" unicode="?" horiz-adv-x="548" 
d="M288 193h-85v31q0 60 17.5 94t61.5 61l53 33q80 53 80 131q0 59 -37.5 97.5t-101.5 38.5q-66 0 -104.5 -44t-40.5 -116h-85q3 107 66 175q62 66 165 66q101 0 165 -62q62 -62 62 -152q0 -114 -117 -190l-54 -36q-25 -15 -35 -35.5t-10 -60.5v-31zM304 46q0 -24 -17 -40.5
t-40 -16.5q-24 0 -40.5 16.5t-16.5 40.5t16.5 40.5t40.5 16.5q23 0 40 -16.5t17 -40.5z" />
    <glyph glyph-name="at" unicode="@" horiz-adv-x="1028" 
d="M645 118q-56 -68 -144 -68q-90 0 -152 62t-62 150q0 87 62 149t151 62q70 0 125 -48l2 53h78v-283q0 -35 17.5 -53t48.5 -18q55 0 84 50t29 123q0 141 -107 242q-106 100 -262 100q-155 0 -263 -108q-108 -109 -108 -264t108 -264q106 -110 261 -110q123 0 215 57l39 -67
q-109 -66 -254 -66q-185 0 -316 131q-131 133 -131 319q0 187 131 318t317 131t317 -122q131 -123 131 -297q0 -99 -51 -173q-51 -75 -139 -75t-127 69zM504 131q39 0 70.5 21t49.5 57v103q-17 37 -49.5 59.5t-70.5 22.5q-56 0 -94 -39q-39 -39 -39 -94q0 -54 38 -92t95 -38
z" />
    <glyph glyph-name="A" unicode="A" horiz-adv-x="712" 
d="M103 0h-100l316 773h78l312 -773h-102l-52 128h-400zM521 213l-164 407l-167 -407h331z" />
    <glyph glyph-name="B" unicode="B" horiz-adv-x="623" 
d="M334 0h-245v773h228q105 0 172 -57q67 -58 67 -154q0 -112 -99 -168q57 -22 90 -69.5t33 -109.5q0 -97 -69 -156q-70 -59 -177 -59zM309 688h-126v-259h152q54 0 91 37q38 38 38 96t-43 92t-112 34zM334 350h-151v-266h141q74 0 118 37t44 97q0 61 -39 96.5t-113 35.5z
" />
    <glyph glyph-name="C" unicode="C" horiz-adv-x="741" 
d="M656 167l68 -65q-119 -116 -283 -116q-165 0 -282 117q-118 117 -118 284t118 284q117 117 279 117t280 -111l-67 -67q-89 85 -213 85q-122 0 -211 -90q-89 -91 -89 -218t89 -218q89 -90 213 -90q125 0 216 88z" />
    <glyph glyph-name="D" unicode="D" horiz-adv-x="724" 
d="M292 0h-203v773h205q159 0 274 -112q115 -111 115 -275t-113 -275q-114 -111 -278 -111zM296 684h-113v-595h116q123 0 205 87q82 88 82 212t-86 210t-204 86z" />
    <glyph glyph-name="E" unicode="E" horiz-adv-x="577" 
d="M512 435v-87h-327v-262h346v-86h-442v773h437v-87h-341v-251h327z" />
    <glyph glyph-name="F" unicode="F" horiz-adv-x="530" 
d="M185 0h-96v773h424v-87h-328v-262h287v-86h-287v-338z" />
    <glyph glyph-name="G" unicode="G" horiz-adv-x="880" 
d="M748 343h-147v87h244v-46q-4 -171 -120 -284q-118 -113 -283 -113q-166 0 -283 118q-118 117 -118 283t117 283t291 117q173 0 295 -132l-68 -65q-94 105 -228 105t-222 -90q-88 -89 -88 -218t88 -218q88 -91 211 -91t208 73q83 71 103 191z" />
    <glyph glyph-name="H" unicode="H" horiz-adv-x="774" 
d="M685 0h-96v344h-404v-344h-96v773h96v-338h404v338h96v-773z" />
    <glyph glyph-name="I" unicode="I" horiz-adv-x="275" 
d="M185 0h-96v773h96v-773z" />
    <glyph glyph-name="J" unicode="J" horiz-adv-x="542" 
d="M220 -11q-87 0 -151 46.5t-89 129.5l85 39q36 -124 163 -124q65 0 106 46.5t41 126.5v520h96v-521q0 -127 -71 -195q-73 -68 -180 -68z" />
    <glyph glyph-name="K" unicode="K" horiz-adv-x="669" 
d="M183 0h-94v773h94v-380l337 380h123l-273 -306l280 -467h-111l-235 393l-121 -135v-258z" />
    <glyph glyph-name="L" unicode="L" horiz-adv-x="527" 
d="M514 0h-425v773h96v-683h329v-90z" />
    <glyph glyph-name="M" unicode="M" horiz-adv-x="881" 
d="M183 0h-94v773h93l256 -433l259 433h95v-773h-94v600h-3l-257 -425l-254 420h-1v-595z" />
    <glyph glyph-name="N" unicode="N" horiz-adv-x="787" 
d="M185 0h-96v773h61l452 -574v574h96v-773h-58l-455 576v-576z" />
    <glyph glyph-name="O" unicode="O" horiz-adv-x="885" 
d="M844 387q0 -166 -117 -283q-118 -118 -284 -118q-167 0 -284 118q-118 117 -118 283t118 284q117 117 284 117q165 0 284 -117q117 -119 117 -284zM227 169q89 -90 215 -90q128 0 216 90q89 91 89 218t-89 218q-88 90 -216 90q-126 0 -215 -90q-89 -91 -89 -218t89 -218z
" />
    <glyph glyph-name="P" unicode="P" horiz-adv-x="625" 
d="M185 0h-96v773h269q107 0 179 -72t72 -179q0 -108 -73 -178q-74 -72 -179 -72h-172v-272zM351 683h-166v-321h168q67 0 113 44q45 44 45 114q0 71 -46 117t-114 46z" />
    <glyph glyph-name="Q" unicode="Q" horiz-adv-x="885" 
d="M442 -14q-166 0 -283 118q-118 117 -118 283t118 284q117 117 283 117t284 -117q118 -118 118 -284q0 -145 -91 -254l96 -94l-61 -61l-96 95q-111 -87 -250 -87zM442 79q104 0 183 61l-111 111l61 60l111 -110q61 82 61 186q0 127 -89 218q-88 90 -216 90
q-126 0 -215 -90q-89 -91 -89 -218t89 -218q89 -90 215 -90z" />
    <glyph glyph-name="R" unicode="R" horiz-adv-x="658" 
d="M185 0h-96v773h290q104 0 175 -65q70 -66 70 -166t-65 -163q-65 -64 -165 -70l239 -309h-112l-238 310h-98v-310zM368 688h-183v-298h182q70 0 115 42q45 40 45 106q0 64 -45 108q-45 42 -114 42z" />
    <glyph glyph-name="S" unicode="S" horiz-adv-x="585" 
d="M290 -9q-75 0 -146.5 31.5t-120.5 85.5l65 71q38 -45 94.5 -72.5t117.5 -27.5q64 0 106 36t42 92q0 93 -111 138l-93 37q-85 33 -125 81q-41 50 -41 127q0 78 63 136q62 58 156 58q133 0 222 -85l-58 -73q-69 69 -164 69q-57 0 -91 -30q-36 -30 -36 -73t24.5 -70.5
t84.5 -51.5l96 -39q167 -68 167 -218q0 -99 -69 -160q-70 -62 -183 -62z" />
    <glyph glyph-name="T" unicode="T" horiz-adv-x="630" 
d="M267 683h-256v90h608v-90h-256v-683h-96v683z" />
    <glyph glyph-name="U" unicode="U" horiz-adv-x="711" 
d="M640 773v-502q0 -123 -79 -203q-79 -81 -205 -81t-205 81q-80 82 -80 203v502h96v-495q0 -88 51 -143q50 -57 137 -57t138 56t51 144v495h96z" />
    <glyph glyph-name="V" unicode="V" horiz-adv-x="699" 
d="M388 0h-79l-306 773h102l245 -620l246 620h100z" />
    <glyph glyph-name="W" unicode="W" horiz-adv-x="1105" 
d="M344 0h-82l-254 773h100l198 -611l197 611h101l192 -617l207 617h94l-262 -773h-83l-199 632z" />
    <glyph glyph-name="X" unicode="X" horiz-adv-x="614" 
d="M248 390l-234 383h110l183 -300l184 300h108l-234 -382l240 -391h-112l-187 308l-187 -308h-110z" />
    <glyph glyph-name="Y" unicode="Y" horiz-adv-x="609" 
d="M308 405l199 368h104l-257 -464v-309h-96v306l-260 467h108z" />
    <glyph glyph-name="Z" unicode="Z" horiz-adv-x="618" 
d="M583 0h-556v57l438 630h-416v86h542v-63l-435 -624h427v-86z" />
    <glyph glyph-name="bracketleft" unicode="[" horiz-adv-x="326" 
d="M303 -152h-221v932h221v-70h-139v-792h139v-70z" />
    <glyph glyph-name="backslash" unicode="\" horiz-adv-x="379" 
d="M371 -126h-79l-299 906h78z" />
    <glyph glyph-name="bracketright" unicode="]" horiz-adv-x="326" 
d="M23 780h221v-932h-221v70h139v792h-139v70z" />
    <glyph glyph-name="asciicircum" unicode="^" horiz-adv-x="542" 
d="M116 399h-100l218 374h73l218 -374h-101l-154 271z" />
    <glyph glyph-name="underscore" unicode="_" horiz-adv-x="476" 
d="M451 -86h-426v56h426v-56z" />
    <glyph glyph-name="grave" unicode="`" horiz-adv-x="301" 
d="M261 576h-71l-149 146l-1 13h97l124 -147v-12z" />
    <glyph glyph-name="a" unicode="a" horiz-adv-x="560" 
d="M414 0v42q-64 -54 -162 -54q-100 0 -161 46q-63 45 -63 119q0 73 64 122t165 49q40 0 84.5 -13.5t72.5 -32.5v38q0 51 -48 78q-50 27 -105 27q-98 0 -159 -52l-44 69q91 67 204 67q132 -2 202 -83q38 -44 38 -106v-316h-88zM256 63q91 0 158 59v73q-29 24 -71 39.5
t-82 15.5q-70 0 -110 -26t-40 -68q0 -41 40 -67t105 -26z" />
    <glyph glyph-name="b" unicode="b" horiz-adv-x="602" 
d="M160 0h-91v780h91v-330q67 55 155 55q111 0 184 -75q74 -76 74 -181t-74 -181q-73 -76 -184 -76q-87 0 -155 57v-49zM311 419q-48 0 -88.5 -23t-62.5 -62v-168q22 -40 62 -64t88 -24q74 0 124 50q49 49 49 121t-49 121t-123 49z" />
    <glyph glyph-name="c" unicode="c" horiz-adv-x="466" 
d="M401 120l48 -71q-70 -58 -170 -58t-175 76q-75 75 -75 182q0 106 76 181q75 75 176 75q99 0 172 -59l-51 -71q-50 42 -117 42t-116 -49t-49 -120t49 -120t116 -49q66 0 116 41z" />
    <glyph glyph-name="d" unicode="d" horiz-adv-x="607" 
d="M538 0h-91v53q-68 -61 -160 -61q-111 0 -185 75q-74 76 -74 181t74 182q74 76 175 76q17 -1 52 -1q50 0 118 -65v340h91v-780zM292 78q51 0 92.5 26.5t62.5 71.5v139q-21 48 -63 76t-93 28q-74 0 -123 -49t-49 -121q0 -71 50 -121t123 -50z" />
    <glyph glyph-name="e" unicode="e" horiz-adv-x="563" 
d="M295 -9q-119 0 -193 77q-73 76 -73 184q0 107 70 180t181 73t182 -67q72 -68 77 -170q1 -7 1 -33h-424q1 -69 52 -116q50 -47 126 -47q49 0 83.5 13t72.5 45l52 -56q-48 -45 -95 -64t-112 -19zM123 307h321q-13 54 -56.5 87t-107.5 33q-125 0 -157 -120z" />
    <glyph glyph-name="f" unicode="f" horiz-adv-x="280" 
d="M97 416h-82v82h82v114q0 77 46 122t121 45q73 0 122 -41l-44 -67q-32 27 -72 27t-62 -24q-23 -25 -23 -68v-108h89v-82h-89v-416h-88v416z" />
    <glyph glyph-name="g" unicode="g" horiz-adv-x="607" 
d="M287 -8q-110 0 -184 74t-74 180q0 105 74 182q73 76 174 76q17 -1 52 -1q51 0 119 -54v49h90v-459q0 -94 -68 -153q-68 -58 -181 -58q-156 0 -252 84l44 65q85 -68 208 -68q79 0 119 37t40 104v2q-69 -60 -161 -60zM291 79q53 0 94 26t63 71v146q-21 44 -63 70.5
t-93 26.5q-73 0 -123 -50q-50 -52 -50 -123q0 -73 49 -119q50 -48 123 -48z" />
    <glyph glyph-name="h" unicode="h" horiz-adv-x="579" 
d="M523 0h-91v280q0 62 -41 100q-40 37 -98 37q-85 0 -132 -74v-343h-91v780h91v-333q54 58 144 58q89 0 154 -57q64 -58 64 -155v-293z" />
    <glyph glyph-name="i" unicode="i" horiz-adv-x="230" 
d="M172 690q0 -24 -17 -41t-40 -17q-24 0 -40 16.5t-16 40.5t16 40.5t40 16.5q23 0 40 -16.5t17 -39.5zM160 0h-91v498h91v-498z" />
    <glyph glyph-name="j" unicode="j" horiz-adv-x="230" 
d="M172 690q0 -24 -17 -41t-40 -17q-24 0 -40 16.5t-16 40.5t16 40.5t40 16.5q23 0 40 -16.5t17 -39.5zM-12 -184l-1 76q82 3 82 103v503h91v-498q0 -89 -44.5 -135.5t-127.5 -48.5z" />
    <glyph glyph-name="k" unicode="k" horiz-adv-x="517" 
d="M160 268l227 230h112l-196 -198l211 -300h-107l-166 238l-81 -82v-156h-91v780h91v-512z" />
    <glyph glyph-name="l" unicode="l" horiz-adv-x="230" 
d="M160 0h-91v780h91v-780z" />
    <glyph glyph-name="m" unicode="m" horiz-adv-x="928" 
d="M516 0h-91v288q0 60 -36 95q-34 34 -85 34q-94 0 -144 -74v-343h-91v498h91v-52q57 59 145 59q118 0 180 -83q68 83 174 83q90 0 151 -58q62 -59 62 -154v-293h-91v281q0 61 -38 99q-38 37 -95 37q-84 0 -132 -79v-338z" />
    <glyph glyph-name="n" unicode="n" 
d="M522 0h-91v280q0 62 -41 100q-40 37 -98 37q-85 0 -132 -74v-343h-91v498h91v-51q54 58 144 58t154 -57q64 -58 64 -155v-293z" />
    <glyph glyph-name="o" unicode="o" horiz-adv-x="585" 
d="M482 67q-75 -76 -190 -76q-116 0 -189 76q-74 77 -74 183t75 183q75 75 188 75q112 0 189 -75q75 -77 75 -183t-74 -183zM120 251q0 -72 50 -122q50 -51 123 -51t123 51q49 49 49 122q0 72 -49 121q-50 48 -124 48t-123 -48q-49 -49 -49 -121z" />
    <glyph glyph-name="p" unicode="p" horiz-adv-x="607" 
d="M160 -178h-91v676h91v-53q68 60 160 60q110 0 184 -75q74 -76 74 -181t-74 -181q-73 -76 -184 -76q-92 0 -160 61v-231zM316 419q-51 0 -93 -25.5t-63 -68.5v-149q21 -45 62.5 -71.5t92.5 -26.5q74 0 124 50q49 49 49 121t-49 121t-123 49z" />
    <glyph glyph-name="q" unicode="q" horiz-adv-x="591" 
d="M521 -178h-91v217q-65 -47 -143 -47q-111 0 -185 75q-74 76 -74 182t75 181q74 75 184 75q81 0 143 -50v43h91v-676zM119 249q0 -71 50 -121t130 -50t131 69v198q-53 74 -133 74t-129 -49t-49 -121z" />
    <glyph glyph-name="r" unicode="r" horiz-adv-x="427" 
d="M160 0h-91v498h91v-39q40 43 106 43q65 0 110 -45q44 -47 44 -114v-16h-83q0 39 -24.5 65t-60.5 26q-35 0 -60 -20t-32 -51v-347z" />
    <glyph glyph-name="s" unicode="s" horiz-adv-x="511" 
d="M264 -12q-134 0 -249 67l46 73q94 -61 205 -61q62 0 99 20.5t37 53.5q0 48 -77 63l-142 27q-137 27 -137 135q0 65 55.5 104t163.5 39q111 0 197 -56l-43 -71q-83 48 -164 48q-55 0 -89 -16t-34 -41q0 -26 16 -39q13 -11 50 -19l132 -23q159 -32 159 -146q0 -72 -64 -115
t-161 -43z" />
    <glyph glyph-name="t" unicode="t" horiz-adv-x="285" 
d="M97 416h-82v82h82v186l90 54v-240h83v-82h-83v-416h-90v416z" />
    <glyph glyph-name="u" unicode="u" 
d="M417 0v52q-60 -60 -146 -60t-150 58q-65 57 -65 153l1 295h91v-286q0 -62 41 -100q40 -37 90 -37q96 0 138 83v340h91v-498h-91z" />
    <glyph glyph-name="v" unicode="v" horiz-adv-x="491" 
d="M291 0h-93l-200 498h98l151 -383l150 383h96z" />
    <glyph glyph-name="w" unicode="w" horiz-adv-x="820" 
d="M272 0h-89l-182 498h95l136 -378l132 378h89l133 -385l142 385h91l-188 -498h-93l-131 374z" />
    <glyph glyph-name="x" unicode="x" horiz-adv-x="497" 
d="M498 0h-110l-141 186l-140 -186h-109l189 253l-181 245h109l133 -179l136 179h107l-183 -246z" />
    <glyph glyph-name="y" unicode="y" horiz-adv-x="505" 
d="M206 5l-208 493h102l153 -379l159 379h96l-289 -676h-90z" />
    <glyph glyph-name="z" unicode="z" horiz-adv-x="479" 
d="M462 0h-451l285 415h-265v83h430l-288 -415h289v-83z" />
    <glyph glyph-name="braceleft" unicode="{" horiz-adv-x="333" 
d="M300 -115v-72l-63 -1q-86 0 -104 73q-8 34 -8 78v167q0 112 -3 162q-4 24 -17 32t-49 11v57q36 4 49 12t17 27q3 50 3 166v170q0 38 4 62q16 88 108 88l63 -1v-72h-23h-7q-30 0 -41 -17.5t-11 -68.5v-306q0 -68 -47 -91q47 -29 47 -89v-299q0 -88 34 -88q11 -1 23 -1
q5 0 13.5 0.5t11.5 0.5z" />
    <glyph glyph-name="bar" unicode="|" horiz-adv-x="269" 
d="M179 -178h-90v958h90v-958z" />
    <glyph glyph-name="braceright" unicode="}" horiz-adv-x="333" 
d="M33 844v73l62 2q86 0 105 -76q7 -25 7 -77v-168q0 -118 4 -162q3 -24 16 -32t50 -11v-56q-36 -4 -49.5 -12.5t-16.5 -27.5q-4 -44 -4 -166v-169q0 -44 -4 -63q-15 -87 -108 -87l-62 1v72h23h7q30 0 41 17.5t11 68.5v306q0 68 46 90q-46 28 -46 89v300q0 51 -9 69t-35 19
h-38z" />
    <glyph glyph-name="asciitilde" unicode="~" horiz-adv-x="522" 
d="M359 219q-61 0 -110 43q-49 42 -90 42q-25 0 -42.5 -19t-21.5 -54l-62 11q4 55 38 96q31 40 89 40q54 0 107 -42q52 -43 93 -43q55 0 66 74l63 -12q-4 -59 -38.5 -97.5t-91.5 -38.5z" />
    <glyph glyph-name="exclamdown" unicode="&#xa1;" horiz-adv-x="279" 
d="M196 495q0 -24 -17 -40.5t-40 -16.5q-24 0 -40.5 16.5t-16.5 40.5t16.5 40.5t40.5 16.5q23 0 40 -16.5t17 -40.5zM99 375h81l11 -559h-103z" />
    <glyph glyph-name="cent" unicode="&#xa2;" horiz-adv-x="482" 
d="M316 -124h-86v124q-84 21 -137 91q-54 69 -54 158q0 88 54 157q54 67 137 90v128h86v-120q83 -6 147 -58l-51 -71q-44 36 -96 41v-336q52 5 95 40l48 -71q-62 -51 -143 -57v-116zM230 93v309q-45 -20 -72.5 -61.5t-27.5 -92.5t27.5 -93t72.5 -62z" />
    <glyph glyph-name="sterling" unicode="&#xa3;" horiz-adv-x="568" 
d="M185 329h-139v81h98q-48 92 -48 164q0 93 62 152q62 57 158 57q98 0 156 -60q59 -59 59 -156v-3h-96q-1 49 -31 89q-32 39 -89 39q-59 0 -90 -33q-33 -35 -33 -93t53 -156h182v-81h-141q23 -60 23 -104q0 -83 -54 -139h265v-86h-462v86h85q75 38 75 132q0 45 -33 111z
" />
    <glyph glyph-name="currency" unicode="&#xa4;" horiz-adv-x="582" 
d="M527 113l-61 -52l-59 69q-53 -31 -116 -31t-116 31l-58 -69l-61 51l59 70q-54 64 -54 149q0 83 54 148l-59 69l61 51l58 -69q54 32 116 32t116 -32l57 69l61 -52l-57 -68q53 -65 53 -147q0 -83 -53 -150zM144 330q0 -63 43 -105q42 -43 105 -43t105 43q41 43 41 105
t-42 106q-43 43 -104 43q-62 0 -105 -43t-43 -106z" />
    <glyph glyph-name="yen" unicode="&#xa5;" horiz-adv-x="640" 
d="M273 287h-182v75h160l-238 411h108l204 -354l197 354h105l-235 -411h159v-75h-182v-89h182v-75h-182v-123h-96v123h-182v75h182v89z" />
    <glyph glyph-name="brokenbar" unicode="&#xa6;" horiz-adv-x="269" 
d="M179 360h-90v420h90v-420zM179 -178h-90v451h90v-451z" />
    <glyph glyph-name="section" unicode="&#xa7;" horiz-adv-x="517" 
d="M273 775q104 0 182 -69l-54 -68q-55 57 -130 57q-44 0 -71.5 -23t-27.5 -59q0 -61 74 -91l77 -32q159 -66 159 -193q0 -54 -31.5 -95.5t-86.5 -65.5q86 -50 86 -142q0 -73 -56 -120q-55 -46 -148 -46q-129 0 -211 88l57 69q64 -75 156 -75q54 0 84.5 22t30.5 59
q0 56 -76 86l-84 35q-159 64 -159 194q0 53 31.5 97t85.5 67q-75 50 -75 140q0 70 55 118q56 47 132 47zM130 309q0 -75 104 -117l31 -13q59 5 96 36t37 73q0 41 -24 67.5t-78 50.5l-42 18q-55 -6 -89.5 -37t-34.5 -78z" />
    <glyph glyph-name="dieresis" unicode="&#xa8;" horiz-adv-x="409" 
d="M353 626q-16 -15 -38 -15t-37 15t-15 37t15 37t37 15t38 -15q15 -15 15 -37t-15 -37zM130 626q-15 -15 -37 -15t-37 15t-15 37t15 37t37 15t37 -15t15 -37t-15 -37z" />
    <glyph glyph-name="copyright" unicode="&#xa9;" horiz-adv-x="909" 
d="M852 387q0 -166 -116 -282q-117 -117 -282 -117q-166 0 -282 117q-116 116 -116 282q0 164 116 282q116 116 282 116q164 0 282 -116q116 -118 116 -282zM222 153q94 -97 232 -97t232 97q95 97 95 234t-95 235q-94 96 -232 96t-232 -96q-95 -98 -95 -235t95 -234z
M578 283l45 -63q-65 -56 -156 -56q-93 0 -159 66q-67 66 -67 162t66 160q65 64 158 64t161 -55l-47 -63q-47 39 -109 39t-104 -42t-42 -104t43 -105t103 -43q59 0 108 40z" />
    <glyph glyph-name="ordfeminine" unicode="&#xaa;" horiz-adv-x="418" 
d="M297 434v28q-44 -35 -110 -35q-68 0 -111 31t-43 83q0 53 45 84q44 32 105 32t111 -27v21q0 28 -17 45q-27 27 -87 27t-104 -33l-35 56q65 45 141 45t126 -34q50 -35 50 -101v-222h-71zM101 542q0 -25 26.5 -40t74.5 -15q49 0 92 34v44q-44 33 -94 33q-51 0 -74 -16
q-25 -16 -25 -40z" />
    <glyph glyph-name="guillemotleft" unicode="&#xab;" horiz-adv-x="445" 
d="M233 76h-77l-125 183v18l126 183h76l-121 -192zM408 76h-77l-125 183v18l126 183h76l-121 -192z" />
    <glyph glyph-name="logicalnot" unicode="&#xac;" horiz-adv-x="557" 
d="M405 229h-359v84h454v-228h-95v144z" />
    <glyph glyph-name="registered" unicode="&#xae;" horiz-adv-x="623" 
d="M566 532q0 -106 -75 -179q-75 -75 -180 -75q-106 0 -180 74q-75 74 -75 179t75 180q74 74 180 74q104 0 180 -74q75 -75 75 -179zM172 392q57 -60 138 -60t140 59t59 141q0 81 -59 140t-140 59t-138 -59q-58 -58 -58 -140t58 -140zM420 399h-61l-76 108h-17v-108h-50v266
h100q43 0 69 -20.5t26 -57.5q0 -66 -70 -79zM305 621h-39v-72h38q54 0 54 37q0 35 -53 35z" />
    <glyph glyph-name="macron" unicode="&#xaf;" horiz-adv-x="403" 
d="M350 613h-297v71h297v-71z" />
    <glyph glyph-name="macron" unicode="&#x2c9;" horiz-adv-x="403" 
d="M350 613h-297v71h297v-71z" />
    <glyph glyph-name="degree" unicode="&#xb0;" horiz-adv-x="354" 
d="M307 654q0 -55 -38 -95q-38 -39 -92 -39q-55 0 -93 39q-38 38 -38 94q0 54 38 94q38 38 93 38q56 0 93 -37t37 -94zM110 654q0 -31 19.5 -51.5t48.5 -20.5q28 0 46.5 20.5t18.5 51.5q0 30 -18.5 49.5t-47.5 19.5t-48 -19.5t-19 -49.5z" />
    <glyph glyph-name="plusminus" unicode="&#xb1;" horiz-adv-x="604" 
d="M260 398h-210v80h210v207h84v-207h210v-80h-210v-208h-84v208zM554 64h-504v80h504v-80z" />
    <glyph glyph-name="twosuperior" unicode="&#xb2;" horiz-adv-x="376" 
d="M336 361h-298v53l185 165q48 45 30.5 87t-68.5 42q-33 0 -54.5 -22.5t-21.5 -56.5h-73q0 65 42 108q42 42 108 42t108 -39q41 -41 41 -99q0 -59 -65 -113l-114 -99h180v-68z" />
    <glyph glyph-name="threesuperior" unicode="&#xb3;" horiz-adv-x="369" 
d="M287 392q-43 -37 -106 -37t-106 37t-43 98v3h72q0 -31 22 -50q20 -20 54 -20t54 18t20 43q0 27 -21 43q-19 16 -56 16h-30v57h23q76 0 76 55q0 25 -18 40.5t-48 15.5q-31 0 -50 -16t-19 -45h-72q0 58 41 94q41 35 100 35q61 0 101 -34t40 -89q0 -54 -52 -81
q60 -29 60 -95q0 -50 -42 -88z" />
    <glyph glyph-name="acute" unicode="&#xb4;" horiz-adv-x="300" 
d="M103 576h-60v17l113 142h101v-12z" />
    <glyph glyph-name="uni00B5" unicode="&#xb5;" horiz-adv-x="588" 
d="M521 0h-91v53q-58 -61 -138 -61t-132 42v-212h-91v676h91v-286q0 -61 41 -99t90 -38q100 0 139 83v340h91v-498z" />
    <glyph glyph-name="uni00B5" unicode="&#x3bc;" horiz-adv-x="588" 
d="M521 0h-91v53q-58 -61 -138 -61t-132 42v-212h-91v676h91v-286q0 -61 41 -99t90 -38q100 0 139 83v340h91v-498z" />
    <glyph glyph-name="paragraph" unicode="&#xb6;" horiz-adv-x="581" 
d="M274 0h-81v426q-65 13 -106 61t-41 119q0 73 59 120t150 47h277v-78h-85v-695h-82v695h-91v-695z" />
    <glyph glyph-name="periodcentered" unicode="&#xb7;" horiz-adv-x="199" 
d="M157 325q0 -24 -17 -40.5t-40 -16.5q-24 0 -40.5 16.5t-16.5 40.5t16.5 40.5t40.5 16.5q23 0 40 -16.5t17 -40.5z" />
    <glyph glyph-name="periodcentered" unicode="&#x2219;" horiz-adv-x="199" 
d="M157 325q0 -24 -17 -40.5t-40 -16.5q-24 0 -40.5 16.5t-16.5 40.5t16.5 40.5t40.5 16.5q23 0 40 -16.5t17 -40.5z" />
    <glyph glyph-name="cedilla" unicode="&#xb8;" horiz-adv-x="319" 
d="M102 -200v57q15 -3 25 -3q54 0 54 38q0 19 -14 29t-27 9t-17 0v88h65v-54q27 -5 44 -26t17 -49q0 -44 -31 -68t-87 -24q-14 0 -29 3z" />
    <glyph glyph-name="onesuperior" unicode="&#xb9;" horiz-adv-x="242" 
d="M186 361h-75v321l-89 -44v74l125 65h39v-416z" />
    <glyph glyph-name="ordmasculine" unicode="&#xba;" horiz-adv-x="415" 
d="M130 535q32 -33 78 -33t78 32q31 34 31 80t-31 78q-31 31 -78 31t-78 -31.5t-31 -77.5q0 -47 31 -79zM342 483q-52 -55 -134 -55t-134 55q-53 55 -53 130q0 76 54 130q53 54 133 54t133 -54q53 -55 53 -130q0 -77 -52 -130z" />
    <glyph glyph-name="guillemotright" unicode="&#xbb;" horiz-adv-x="445" 
d="M112 76h-75l121 190l-122 194h77l125 -183v-18zM287 76h-75l121 190l-122 194h77l125 -183v-18z" />
    <glyph glyph-name="onequarter" unicode="&#xbc;" horiz-adv-x="800" 
d="M186 361h-75v321l-89 -44v74l125 65h39v-416zM165 0h-85l505 773h85zM656 87h-206v56l165 271h81l-161 -262h121v80h70v-80h46v-65h-46v-86h-70v86z" />
    <glyph glyph-name="onehalf" unicode="&#xbd;" horiz-adv-x="910" 
d="M186 361h-75v321l-89 -44v74l125 65h39v-416zM165 0h-85l505 773h85zM814 1h-298v53l185 165q48 45 30.5 87t-68.5 42q-33 0 -54.5 -22.5t-21.5 -56.5h-73q0 65 42 108q42 42 108 42t108 -39q41 -41 41 -99q0 -59 -65 -113l-114 -99h180v-68z" />
    <glyph glyph-name="threequarters" unicode="&#xbe;" horiz-adv-x="867" 
d="M287 392q-43 -37 -106 -37t-106 37t-43 98v3h72q0 -31 22 -50q20 -20 54 -20t54 18t20 43q0 27 -21 43q-19 16 -56 16h-30v57h23q76 0 76 55q0 25 -18 40.5t-48 15.5q-31 0 -50 -16t-19 -45h-72q0 58 41 94q41 35 100 35q61 0 101 -34t40 -89q0 -54 -52 -81
q60 -29 60 -95q0 -50 -42 -88zM232 0h-85l505 773h85zM723 87h-206v56l165 271h81l-161 -262h121v80h70v-80h46v-65h-46v-86h-70v86z" />
    <glyph glyph-name="questiondown" unicode="&#xbf;" horiz-adv-x="517" 
d="M341 508q0 -24 -17 -40.5t-40 -16.5q-24 0 -40.5 16.5t-16.5 40.5t16.5 40.5t40.5 16.5q23 0 40 -16.5t17 -40.5zM377 35h85q-5 -100 -61 -161q-57 -62 -149 -62q-91 0 -149 56q-58 57 -58 140q0 105 101 179l51 37q25 19 35 45.5t10 75.5v33h85v-33q-1 -67 -19 -107.5
t-60 -71.5l-49 -35q-65 -47 -65 -120q0 -52 33 -85.5t87 -33.5t87 39.5t36 103.5z" />
    <glyph glyph-name="Agrave" unicode="&#xc0;" horiz-adv-x="712" 
d="M409 825h-71l-127 116l-1 13h95l104 -117v-12zM103 0h-100l316 773h78l312 -773h-102l-52 128h-400zM521 213l-164 407l-167 -407h331z" />
    <glyph glyph-name="Aacute" unicode="&#xc1;" horiz-adv-x="712" 
d="M376 825h-60v17l93 112h99v-12zM103 0h-100l316 773h78l312 -773h-102l-52 128h-400zM521 213l-164 407l-167 -407h331z" />
    <glyph glyph-name="Acircumflex" unicode="&#xc2;" horiz-adv-x="712" 
d="M294 830h-81l115 124h61l115 -124h-80l-66 64zM103 0h-100l316 773h78l312 -773h-102l-52 128h-400zM521 213l-164 407l-167 -407h331z" />
    <glyph glyph-name="Atilde" unicode="&#xc3;" horiz-adv-x="712" 
d="M475 956l55 -10q0 -43 -27 -71.5t-66 -28.5t-86 26t-66 26q-21 0 -31 -12q-12 -13 -13 -31l-52 9q0 44 26.5 72.5t65.5 28.5q38 0 86 -27q47 -27 66 -27q37 0 42 45zM103 0h-100l316 773h78l312 -773h-102l-52 128h-400zM521 213l-164 407l-167 -407h331z" />
    <glyph glyph-name="Adieresis" unicode="&#xc4;" horiz-adv-x="712" 
d="M507 857q-16 -15 -38 -15t-37 15t-15 37t15 37t37 15t38 -15q15 -15 15 -37t-15 -37zM284 857q-15 -15 -37 -15t-37 15t-15 37t15 37t37 15t37 -15t15 -37t-15 -37zM103 0h-100l316 773h78l312 -773h-102l-52 128h-400zM521 213l-164 407l-167 -407h331z" />
    <glyph glyph-name="Aring" unicode="&#xc5;" horiz-adv-x="712" 
d="M430 826q-30 -30 -72 -30t-71 30q-30 28 -30 71q0 42 30 72q29 29 71 29q41 0 72 -29q29 -31 29 -72q0 -42 -29 -71zM314 897q0 -18 13 -31t32 -13q18 0 30.5 13t12.5 31t-13 31.5t-31 13.5t-31 -13.5t-13 -31.5zM103 0h-100l316 773h78l312 -773h-102l-52 128h-400z
M521 213l-164 407l-167 -407h331z" />
    <glyph glyph-name="AE" unicode="&#xc6;" horiz-adv-x="889" 
d="M842 0h-427v244h-201l-110 -244h-106l358 773h483v-87h-328v-251h313v-87h-313v-262h331v-86zM415 686h-2l-161 -357h163v357z" />
    <glyph glyph-name="Ccedilla" unicode="&#xc7;" horiz-adv-x="741" 
d="M379 -200v57q15 -3 25 -3q54 0 54 38q0 19 -14 29t-27 9t-17 0v58q-139 13 -242 115q-117 117 -117 284t118 284q117 117 279 117t280 -111l-67 -67q-89 85 -213 85q-122 0 -211 -90q-89 -91 -89 -218t89 -218q89 -90 213 -90q125 0 216 88l68 -65q-111 -108 -259 -115
v-23q27 -5 44 -26t17 -49q0 -44 -31 -68t-87 -24q-14 0 -29 3z" />
    <glyph glyph-name="Egrave" unicode="&#xc8;" horiz-adv-x="577" 
d="M363 825h-71l-127 116l-1 13h95l104 -117v-12zM512 435v-87h-327v-262h346v-86h-442v773h437v-87h-341v-251h327z" />
    <glyph glyph-name="Eacute" unicode="&#xc9;" horiz-adv-x="577" 
d="M330 825h-60v17l93 112h99v-12zM512 435v-87h-327v-262h346v-86h-442v773h437v-87h-341v-251h327z" />
    <glyph glyph-name="Ecircumflex" unicode="&#xca;" horiz-adv-x="577" 
d="M248 830h-81l115 124h61l115 -124h-80l-66 64zM512 435v-87h-327v-262h346v-86h-442v773h437v-87h-341v-251h327z" />
    <glyph glyph-name="Edieresis" unicode="&#xcb;" horiz-adv-x="577" 
d="M461 857q-16 -15 -38 -15t-37 15t-15 37t15 37t37 15t38 -15q15 -15 15 -37t-15 -37zM238 857q-15 -15 -37 -15t-37 15t-15 37t15 37t37 15t37 -15t15 -37t-15 -37zM512 435v-87h-327v-262h346v-86h-442v773h437v-87h-341v-251h327z" />
    <glyph glyph-name="Igrave" unicode="&#xcc;" horiz-adv-x="275" 
d="M189 825h-71l-127 116l-1 13h95l104 -117v-12zM185 0h-96v773h96v-773z" />
    <glyph glyph-name="Iacute" unicode="&#xcd;" horiz-adv-x="275" 
d="M155 825h-60v17l93 112h99v-12zM185 0h-96v773h96v-773z" />
    <glyph glyph-name="Icircumflex" unicode="&#xce;" horiz-adv-x="275" 
d="M74 830h-81l115 124h61l115 -124h-80l-66 64zM185 0h-96v773h96v-773z" />
    <glyph glyph-name="Idieresis" unicode="&#xcf;" horiz-adv-x="275" 
d="M257 858q-16 -15 -38 -15t-36 15q-15 14 -15 36t15 38q14 15 36 15t38 -15q15 -16 15 -38t-15 -36zM97 858q-16 -15 -38 -15t-37 15q-15 14 -15 36t15 38q15 15 37 15t38 -15q15 -16 15 -38t-15 -36zM185 0h-96v773h96v-773z" />
    <glyph glyph-name="Eth" unicode="&#xd0;" horiz-adv-x="759" 
d="M124 348h-83v87h83v338h205q159 0 274 -112q115 -111 115 -275t-113 -275q-114 -111 -278 -111h-203v348zM331 684h-113v-249h142v-87h-142v-259h116q122 0 204 87q82 88 82 150l1 63q0 123 -86 209t-204 86z" />
    <glyph glyph-name="Ntilde" unicode="&#xd1;" horiz-adv-x="787" 
d="M513 956l55 -10q0 -43 -27 -71.5t-66 -28.5t-86 26t-66 26q-21 0 -31 -12q-12 -13 -13 -31l-52 9q0 44 26.5 72.5t65.5 28.5q38 0 86 -27q47 -27 66 -27q37 0 42 45zM185 0h-96v773h61l452 -574v574h96v-773h-58l-455 576v-576z" />
    <glyph glyph-name="Ograve" unicode="&#xd2;" horiz-adv-x="885" 
d="M493 825h-71l-127 116l-1 13h95l104 -117v-12zM844 387q0 -166 -117 -283q-118 -118 -284 -118q-167 0 -284 118q-118 117 -118 283t118 284q117 117 284 117q165 0 284 -117q117 -119 117 -284zM227 169q89 -90 215 -90q128 0 216 90q89 91 89 218t-89 218
q-88 90 -216 90q-126 0 -215 -90q-89 -91 -89 -218t89 -218z" />
    <glyph glyph-name="Oacute" unicode="&#xd3;" horiz-adv-x="885" 
d="M460 825h-60v17l93 112h99v-12zM844 387q0 -166 -117 -283q-118 -118 -284 -118q-167 0 -284 118q-118 117 -118 283t118 284q117 117 284 117q165 0 284 -117q117 -119 117 -284zM227 169q89 -90 215 -90q128 0 216 90q89 91 89 218t-89 218q-88 90 -216 90
q-126 0 -215 -90q-89 -91 -89 -218t89 -218z" />
    <glyph glyph-name="Ocircumflex" unicode="&#xd4;" horiz-adv-x="885" 
d="M378 830h-81l115 124h61l115 -124h-80l-66 64zM844 387q0 -166 -117 -283q-118 -118 -284 -118q-167 0 -284 118q-118 117 -118 283t118 284q117 117 284 117q165 0 284 -117q117 -119 117 -284zM227 169q89 -90 215 -90q128 0 216 90q89 91 89 218t-89 218
q-88 90 -216 90q-126 0 -215 -90q-89 -91 -89 -218t89 -218z" />
    <glyph glyph-name="Otilde" unicode="&#xd5;" horiz-adv-x="885" 
d="M560 956l55 -10q0 -43 -27 -71.5t-66 -28.5t-86 26t-66 26q-20 0 -31 -12q-12 -13 -13 -31l-52 9q0 44 26.5 72.5t65.5 28.5q38 0 86 -27q46 -27 66 -27q38 0 42 45zM844 387q0 -166 -117 -283q-118 -118 -284 -118q-167 0 -284 118q-118 117 -118 283t118 284
q117 117 284 117q165 0 284 -117q117 -119 117 -284zM227 169q89 -90 215 -90q128 0 216 90q89 91 89 218t-89 218q-88 90 -216 90q-126 0 -215 -90q-89 -91 -89 -218t89 -218z" />
    <glyph glyph-name="Odieresis" unicode="&#xd6;" horiz-adv-x="885" 
d="M591 857q-16 -15 -38 -15t-37 15t-15 37t15 37t37 15t38 -15q15 -15 15 -37t-15 -37zM368 857q-15 -15 -37 -15t-37 15t-15 37t15 37t37 15t37 -15t15 -37t-15 -37zM844 387q0 -166 -117 -283q-118 -118 -284 -118q-167 0 -284 118q-118 117 -118 283t118 284
q117 117 284 117q165 0 284 -117q117 -119 117 -284zM227 169q89 -90 215 -90q128 0 216 90q89 91 89 218t-89 218q-88 90 -216 90q-126 0 -215 -90q-89 -91 -89 -218t89 -218z" />
    <glyph glyph-name="multiply" unicode="&#xd7;" horiz-adv-x="604" 
d="M301 294l-185 -197l-60 54l190 202l-193 209l59 54l189 -204l190 202l60 -55l-194 -206l188 -202l-60 -54z" />
    <glyph glyph-name="Oslash" unicode="&#xd8;" horiz-adv-x="885" 
d="M844 387q0 -166 -117 -283q-118 -118 -285 -118q-116 0 -207 57l-74 -103l-64 44l76 105l-15 15q-117 117 -117 283t118 284q117 117 283 117q110 0 199 -51l65 90l64 -43l-66 -92l6.5 -6.5t8.5 -8t7 -7.5q118 -117 118 -283zM229 167l356 493q-65 35 -143 35
q-126 0 -215 -90q-89 -91 -89 -218q0 -129 88 -218q0 -1 1 -1t2 -1zM442 79q128 0 216 90q89 91 89 218t-89 218l-10 10l-358 -496q67 -40 152 -40z" />
    <glyph glyph-name="Ugrave" unicode="&#xd9;" horiz-adv-x="711" 
d="M406 825h-71l-127 116l-1 13h95l104 -117v-12zM640 773v-502q0 -123 -79 -203q-79 -81 -205 -81t-205 81q-80 82 -80 203v502h96v-495q0 -88 51 -143q50 -57 137 -57t138 56t51 144v495h96z" />
    <glyph glyph-name="Uacute" unicode="&#xda;" horiz-adv-x="711" 
d="M373 825h-60v17l93 112h99v-12zM640 773v-502q0 -123 -79 -203q-79 -81 -205 -81t-205 81q-80 82 -80 203v502h96v-495q0 -88 51 -143q50 -57 137 -57t138 56t51 144v495h96z" />
    <glyph glyph-name="Ucircumflex" unicode="&#xdb;" horiz-adv-x="711" 
d="M291 830h-81l115 124h61l115 -124h-80l-66 64zM640 773v-502q0 -123 -79 -203q-79 -81 -205 -81t-205 81q-80 82 -80 203v502h96v-495q0 -88 51 -143q50 -57 137 -57t138 56t51 144v495h96z" />
    <glyph glyph-name="Udieresis" unicode="&#xdc;" horiz-adv-x="711" 
d="M504 857q-16 -15 -38 -15t-37 15t-15 37t15 37t37 15t38 -15q15 -15 15 -37t-15 -37zM281 857q-15 -15 -37 -15t-37 15t-15 37t15 37t37 15t37 -15t15 -37t-15 -37zM640 773v-502q0 -123 -79 -203q-79 -81 -205 -81t-205 81q-80 82 -80 203v502h96v-495q0 -88 51 -143
q50 -57 137 -57t138 56t51 144v495h96z" />
    <glyph glyph-name="Yacute" unicode="&#xdd;" horiz-adv-x="609" 
d="M324 825h-60v17l93 112h99v-12zM308 405l199 368h104l-257 -464v-309h-96v306l-260 467h108z" />
    <glyph glyph-name="Thorn" unicode="&#xde;" horiz-adv-x="601" 
d="M345 159h-160v-159h-96v773h96v-130h161q102 0 170 -68q68 -70 68 -175q0 -106 -69 -173q-70 -68 -170 -68zM336 554h-151v-305h153q65 0 105.5 41.5t40.5 109.5t-41.5 111t-106.5 43z" />
    <glyph glyph-name="germandbls" unicode="&#xdf;" 
d="M305 77q59 0 101 44q42 43 42 105q0 61 -41 105q-42 41 -103 43h-33v83h35q49 2 80 38q31 37 31 89q0 53 -34 88q-33 36 -91 36h-2h-3.5t-6 -0.5t-9 -0.5h-11.5q-30 0 -65 -41q-35 -43 -35 -100v-566h-88v577q0 83 59 148q58 64 157 64q98 0 157 -57t59 -145
q0 -52 -23 -93.5t-62 -63.5q58 -30 91 -83.5t33 -118.5q0 -104 -68 -169t-169 -65q-26 0 -53 6l13 82q25 -5 39 -5z" />
    <glyph glyph-name="agrave" unicode="&#xe0;" horiz-adv-x="560" 
d="M324 576h-71l-149 146l-1 13h97l124 -147v-12zM414 0v42q-64 -54 -162 -54q-100 0 -161 46q-63 45 -63 119q0 73 64 122t165 49q40 0 84.5 -13.5t72.5 -32.5v38q0 51 -48 78q-50 27 -105 27q-98 0 -159 -52l-44 69q91 67 204 67q132 -2 202 -83q38 -44 38 -106v-316h-88z
M256 63q91 0 158 59v73q-29 24 -71 39.5t-82 15.5q-70 0 -110 -26t-40 -68q0 -41 40 -67t105 -26z" />
    <glyph glyph-name="aacute" unicode="&#xe1;" horiz-adv-x="560" 
d="M291 576h-60v17l113 142h101v-12zM414 0v42q-64 -54 -162 -54q-100 0 -161 46q-63 45 -63 119q0 73 64 122t165 49q40 0 84.5 -13.5t72.5 -32.5v38q0 51 -48 78q-50 27 -105 27q-98 0 -159 -52l-44 69q91 67 204 67q132 -2 202 -83q38 -44 38 -106v-316h-88zM256 63
q91 0 158 59v73q-29 24 -71 39.5t-82 15.5q-70 0 -110 -26t-40 -68q0 -41 40 -67t105 -26z" />
    <glyph glyph-name="acircumflex" unicode="&#xe2;" horiz-adv-x="560" 
d="M189 581h-81l135 154h61l135 -154h-80l-86 94zM414 0v42q-64 -54 -162 -54q-100 0 -161 46q-63 45 -63 119q0 73 64 122t165 49q40 0 84.5 -13.5t72.5 -32.5v38q0 51 -48 78q-50 27 -105 27q-98 0 -159 -52l-44 69q91 67 204 67q132 -2 202 -83q38 -44 38 -106v-316h-88z
M256 63q91 0 158 59v73q-29 24 -71 39.5t-82 15.5q-70 0 -110 -26t-40 -68q0 -41 40 -67t105 -26z" />
    <glyph glyph-name="atilde" unicode="&#xe3;" horiz-adv-x="560" 
d="M391 707l55 -10q0 -43 -27 -71.5t-66 -28.5t-86 26t-66 26q-21 0 -31 -12q-12 -13 -13 -31l-52 9q0 44 26.5 72.5t65.5 28.5q38 0 86 -27q47 -27 66 -27q37 0 42 45zM414 0v42q-64 -54 -162 -54q-100 0 -161 46q-63 45 -63 119q0 73 64 122t165 49q40 0 84.5 -13.5
t72.5 -32.5v38q0 51 -48 78q-50 27 -105 27q-98 0 -159 -52l-44 69q91 67 204 67q132 -2 202 -83q38 -44 38 -106v-316h-88zM256 63q91 0 158 59v73q-29 24 -71 39.5t-82 15.5q-70 0 -110 -26t-40 -68q0 -41 40 -67t105 -26z" />
    <glyph glyph-name="adieresis" unicode="&#xe4;" horiz-adv-x="560" 
d="M422 626q-16 -15 -38 -15t-37 15t-15 37t15 37t37 15t38 -15q15 -15 15 -37t-15 -37zM199 626q-15 -15 -37 -15t-37 15t-15 37t15 37t37 15t37 -15t15 -37t-15 -37zM414 0v42q-64 -54 -162 -54q-100 0 -161 46q-63 45 -63 119q0 73 64 122t165 49q40 0 84.5 -13.5
t72.5 -32.5v38q0 51 -48 78q-50 27 -105 27q-98 0 -159 -52l-44 69q91 67 204 67q132 -2 202 -83q38 -44 38 -106v-316h-88zM256 63q91 0 158 59v73q-29 24 -71 39.5t-82 15.5q-70 0 -110 -26t-40 -68q0 -41 40 -67t105 -26z" />
    <glyph glyph-name="aring" unicode="&#xe5;" horiz-adv-x="560" 
d="M345 597q-30 -30 -72 -30q-43 0 -71 30q-30 29 -30 71t30 72q29 29 71 29q41 0 72 -29q29 -31 29 -72q0 -42 -29 -71zM229 668q0 -18 13 -31t32 -13q18 0 30.5 13t12.5 31t-13 31.5t-31 13.5t-31 -13.5t-13 -31.5zM414 0v42q-64 -54 -162 -54q-100 0 -161 46
q-63 45 -63 119q0 73 64 122t165 49q40 0 84.5 -13.5t72.5 -32.5v38q0 51 -48 78q-50 27 -105 27q-98 0 -159 -52l-44 69q91 67 204 67q132 -2 202 -83q38 -44 38 -106v-316h-88zM256 63q91 0 158 59v73q-29 24 -71 39.5t-82 15.5q-70 0 -110 -26t-40 -68q0 -41 40 -67
t105 -26z" />
    <glyph glyph-name="ae" unicode="&#xe6;" horiz-adv-x="948" 
d="M924 267l1 -32h-424q1 -69 52 -116q50 -47 126 -47q48 0 82.5 13t73.5 45l52 -56q-48 -45 -95.5 -64t-112.5 -19q-134 0 -208 92q-90 -95 -220 -95q-97 0 -160 45t-63 120q0 74 64 123q64 48 165 48q39 0 83.5 -13.5t73.5 -34.5v40q0 51 -48 78q-50 27 -105 27
q-98 0 -159 -52l-44 69q91 67 204 67q64 0 120 -23t88 -65q73 88 197 88q109 0 180 -67q71 -68 77 -171zM508 307h321q-13 54 -56.5 87t-107.5 33q-125 0 -157 -120zM256 63q106 0 178 79q-12 31 -15 49q-29 25 -72.5 42t-85.5 17q-70 0 -110 -27t-40 -68q0 -40 40 -66
t105 -26z" />
    <glyph glyph-name="ccedilla" unicode="&#xe7;" horiz-adv-x="466" 
d="M229 -200v57q15 -3 25 -3q54 0 54 38q0 19 -14 29t-27 9t-17 0v63q-82 9 -146 73q-75 76 -75 183q0 106 76 181q75 75 176 75q99 0 172 -59l-51 -71q-50 42 -117 42t-116 -49t-49 -120t49 -120t116 -49q66 0 116 41l48 -71q-58 -47 -134 -56v-29q27 -5 44 -26t17 -49
q0 -44 -31 -68t-87 -24q-14 0 -29 3z" />
    <glyph glyph-name="egrave" unicode="&#xe8;" horiz-adv-x="563" 
d="M332 576h-71l-149 146l-1 13h97l124 -147v-12zM295 -9q-119 0 -193 77q-73 76 -73 184q0 107 70 180t181 73t182 -67q72 -68 77 -170q1 -7 1 -33h-424q1 -69 52 -116q50 -47 126 -47q49 0 83.5 13t72.5 45l52 -56q-48 -45 -95 -64t-112 -19zM123 307h321q-13 54 -56.5 87
t-107.5 33q-125 0 -157 -120z" />
    <glyph glyph-name="eacute" unicode="&#xe9;" horiz-adv-x="563" 
d="M299 576h-60v17l113 142h101v-12zM295 -9q-119 0 -193 77q-73 76 -73 184q0 107 70 180t181 73t182 -67q72 -68 77 -170q1 -7 1 -33h-424q1 -69 52 -116q50 -47 126 -47q49 0 83.5 13t72.5 45l52 -56q-48 -45 -95 -64t-112 -19zM123 307h321q-13 54 -56.5 87t-107.5 33
q-125 0 -157 -120z" />
    <glyph glyph-name="ecircumflex" unicode="&#xea;" horiz-adv-x="563" 
d="M197 581h-81l135 154h61l135 -154h-80l-86 94zM295 -9q-119 0 -193 77q-73 76 -73 184q0 107 70 180t181 73t182 -67q72 -68 77 -170q1 -7 1 -33h-424q1 -69 52 -116q50 -47 126 -47q49 0 83.5 13t72.5 45l52 -56q-48 -45 -95 -64t-112 -19zM123 307h321q-13 54 -56.5 87
t-107.5 33q-125 0 -157 -120z" />
    <glyph glyph-name="edieresis" unicode="&#xeb;" horiz-adv-x="563" 
d="M430 626q-16 -15 -38 -15t-37 15t-15 37t15 37t37 15t38 -15q15 -15 15 -37t-15 -37zM207 626q-15 -15 -37 -15t-37 15t-15 37t15 37t37 15t37 -15t15 -37t-15 -37zM295 -9q-119 0 -193 77q-73 76 -73 184q0 107 70 180t181 73t182 -67q72 -68 77 -170q1 -7 1 -33h-424
q1 -69 52 -116q50 -47 126 -47q49 0 83.5 13t72.5 45l52 -56q-48 -45 -95 -64t-112 -19zM123 307h321q-13 54 -56.5 87t-107.5 33q-125 0 -157 -120z" />
    <glyph glyph-name="igrave" unicode="&#xec;" horiz-adv-x="230" 
d="M166 576h-71l-149 146l-1 13h97l124 -147v-12zM160 0h-91v498h91v-498z" />
    <glyph glyph-name="iacute" unicode="&#xed;" horiz-adv-x="230" 
d="M132 576h-60v17l113 142h101v-12zM160 0h-91v498h91v-498z" />
    <glyph glyph-name="icircumflex" unicode="&#xee;" horiz-adv-x="230" 
d="M64 581h-76l95 154h67l97 -154h-75l-55 91zM160 0h-91v498h91v-498z" />
    <glyph glyph-name="idieresis" unicode="&#xef;" horiz-adv-x="230" 
d="M233 653q-16 -15 -38 -15t-36 15q-15 14 -15 36t15 38q14 15 36 15t38 -15q15 -16 15 -38t-15 -36zM73 653q-16 -15 -38 -15t-37 15q-15 14 -15 36t15 38q15 15 37 15t38 -15q15 -16 15 -38t-15 -36zM160 0h-91v498h91v-498z" />
    <glyph glyph-name="eth" unicode="&#xf0;" horiz-adv-x="588" 
d="M327 712l105 44l25 -66l-90 -38q95 -143 139 -226q49 -92 49 -189t-77 -172q-76 -76 -186 -76q-109 0 -186 77t-77 185q0 109 75 185q73 76 183 76q44 0 75 -10q-14 24 -75 116l-115 -48l-26 66l100 42q-23 31 -68 102h105q28 -44 44 -68zM119 253q0 -73 50 -126
q49 -52 124 -52q74 0 123 52t49 127t-49 124q-50 50 -124 50q-73 0 -123 -50q-50 -52 -50 -125z" />
    <glyph glyph-name="ntilde" unicode="&#xf1;" 
d="M413 707l55 -10q0 -43 -27 -71.5t-66 -28.5t-86 26t-66 26q-21 0 -31 -12q-12 -13 -13 -31l-52 9q0 44 26.5 72.5t65.5 28.5q38 0 86 -27q47 -27 66 -27q37 0 42 45zM522 0h-91v280q0 62 -41 100q-40 37 -98 37q-85 0 -132 -74v-343h-91v498h91v-51q54 58 144 58t154 -57
q64 -58 64 -155v-293z" />
    <glyph glyph-name="ograve" unicode="&#xf2;" horiz-adv-x="585" 
d="M343 576h-71l-149 146l-1 13h97l124 -147v-12zM482 67q-75 -76 -190 -76q-116 0 -189 76q-74 77 -74 183t75 183q75 75 188 75q112 0 189 -75q75 -77 75 -183t-74 -183zM120 251q0 -72 50 -122q50 -51 123 -51t123 51q49 49 49 122q0 72 -49 121q-50 48 -124 48t-123 -48
q-49 -49 -49 -121z" />
    <glyph glyph-name="oacute" unicode="&#xf3;" horiz-adv-x="585" 
d="M310 576h-60v17l113 142h101v-12zM482 67q-75 -76 -190 -76q-116 0 -189 76q-74 77 -74 183t75 183q75 75 188 75q112 0 189 -75q75 -77 75 -183t-74 -183zM120 251q0 -72 50 -122q50 -51 123 -51t123 51q49 49 49 122q0 72 -49 121q-50 48 -124 48t-123 -48
q-49 -49 -49 -121z" />
    <glyph glyph-name="ocircumflex" unicode="&#xf4;" horiz-adv-x="585" 
d="M208 581h-81l135 154h61l135 -154h-80l-86 94zM482 67q-75 -76 -190 -76q-116 0 -189 76q-74 77 -74 183t75 183q75 75 188 75q112 0 189 -75q75 -77 75 -183t-74 -183zM120 251q0 -72 50 -122q50 -51 123 -51t123 51q49 49 49 122q0 72 -49 121q-50 48 -124 48t-123 -48
q-49 -49 -49 -121z" />
    <glyph glyph-name="otilde" unicode="&#xf5;" horiz-adv-x="585" 
d="M410 707l55 -10q0 -43 -27 -71.5t-66 -28.5t-86 26t-66 26q-20 0 -31 -12q-12 -13 -13 -31l-52 9q0 44 26.5 72.5t65.5 28.5q38 0 86 -27q46 -27 66 -27q38 0 42 45zM482 67q-75 -76 -190 -76q-116 0 -189 76q-74 77 -74 183t75 183q75 75 188 75q112 0 189 -75
q75 -77 75 -183t-74 -183zM120 251q0 -72 50 -122q50 -51 123 -51t123 51q49 49 49 122q0 72 -49 121q-50 48 -124 48t-123 -48q-49 -49 -49 -121z" />
    <glyph glyph-name="odieresis" unicode="&#xf6;" horiz-adv-x="585" 
d="M441 626q-16 -15 -38 -15t-37 15t-15 37t15 37t37 15t38 -15q15 -15 15 -37t-15 -37zM218 626q-15 -15 -37 -15t-37 15t-15 37t15 37t37 15t37 -15t15 -37t-15 -37zM482 67q-75 -76 -190 -76q-116 0 -189 76q-74 77 -74 183t75 183q75 75 188 75q112 0 189 -75
q75 -77 75 -183t-74 -183zM120 251q0 -72 50 -122q50 -51 123 -51t123 51q49 49 49 122q0 72 -49 121q-50 48 -124 48t-123 -48q-49 -49 -49 -121z" />
    <glyph glyph-name="divide" unicode="&#xf7;" horiz-adv-x="550" 
d="M331 577q0 -24 -17 -41t-40 -17q-24 0 -40 16.5t-16 40.5t16 40.5t40 16.5q23 0 40 -16.5t17 -39.5zM497 313h-444v80h444v-80zM331 133q0 -24 -17 -41t-40 -17q-24 0 -40 16.5t-16 40.5t16 40.5t40 16.5q23 0 40 -16.5t17 -39.5z" />
    <glyph glyph-name="oslash" unicode="&#xf8;" horiz-adv-x="585" 
d="M292 -9q-54 0 -107 21l-74 -117l-54 32l73 116q-48 36 -74.5 90.5t-26.5 116.5q0 106 75 183q75 75 188 75q62 0 117 -26l82 129l55 -34l-83 -129q93 -77 93 -191q0 -113 -74 -190q-75 -76 -190 -76zM292 420q-74 0 -123 -48q-49 -49 -49 -126t59 -127l182 288
q-33 13 -69 13zM292 78q74 0 124 51q49 49 49 122q0 71 -50 121l-181 -285q27 -9 58 -9z" />
    <glyph glyph-name="ugrave" unicode="&#xf9;" 
d="M337 576h-71l-149 146l-1 13h97l124 -147v-12zM417 0v52q-60 -60 -146 -60t-150 58q-65 57 -65 153l1 295h91v-286q0 -62 41 -100q40 -37 90 -37q96 0 138 83v340h91v-498h-91z" />
    <glyph glyph-name="uacute" unicode="&#xfa;" 
d="M304 576h-60v17l113 142h101v-12zM417 0v52q-60 -60 -146 -60t-150 58q-65 57 -65 153l1 295h91v-286q0 -62 41 -100q40 -37 90 -37q96 0 138 83v340h91v-498h-91z" />
    <glyph glyph-name="ucircumflex" unicode="&#xfb;" 
d="M202 581h-81l135 154h61l135 -154h-80l-86 94zM417 0v52q-60 -60 -146 -60t-150 58q-65 57 -65 153l1 295h91v-286q0 -62 41 -100q40 -37 90 -37q96 0 138 83v340h91v-498h-91z" />
    <glyph glyph-name="udieresis" unicode="&#xfc;" 
d="M435 626q-16 -15 -38 -15t-37 15t-15 37t15 37t37 15t38 -15q15 -15 15 -37t-15 -37zM212 626q-15 -15 -37 -15t-37 15t-15 37t15 37t37 15t37 -15t15 -37t-15 -37zM417 0v52q-60 -60 -146 -60t-150 58q-65 57 -65 153l1 295h91v-286q0 -62 41 -100q40 -37 90 -37
q96 0 138 83v340h91v-498h-91z" />
    <glyph glyph-name="yacute" unicode="&#xfd;" horiz-adv-x="505" 
d="M271 576h-60v17l113 142h101v-12zM206 5l-208 493h102l153 -379l159 379h96l-289 -676h-90z" />
    <glyph glyph-name="thorn" unicode="&#xfe;" horiz-adv-x="602" 
d="M315 -10q-91 0 -155 51v-219h-91v958h91v-330q67 53 154 53q112 0 185 -75q74 -76 74 -181t-74 -181q-75 -76 -184 -76zM311 417q-48 0 -87.5 -23t-63.5 -63v-168q24 -41 63.5 -64.5t86.5 -23.5q74 0 123 51q50 50 50 122t-49 121q-50 48 -123 48z" />
    <glyph glyph-name="ydieresis" unicode="&#xff;" horiz-adv-x="505" 
d="M402 626q-16 -15 -38 -15t-37 15t-15 37t15 37t37 15t38 -15q15 -15 15 -37t-15 -37zM179 626q-15 -15 -37 -15t-37 15t-15 37t15 37t37 15t37 -15t15 -37t-15 -37zM206 5l-208 493h102l153 -379l159 379h96l-289 -676h-90z" />
    <glyph glyph-name="Amacron" unicode="&#x100;" horiz-adv-x="712" 
d="M507 858h-297v71h297v-71zM103 0h-100l316 773h78l312 -773h-102l-52 128h-400zM521 213l-164 407l-167 -407h331z" />
    <glyph glyph-name="amacron" unicode="&#x101;" horiz-adv-x="560" 
d="M422 613h-297v71h297v-71zM414 0v42q-64 -54 -162 -54q-100 0 -161 46q-63 45 -63 119q0 73 64 122t165 49q40 0 84.5 -13.5t72.5 -32.5v38q0 51 -48 78q-50 27 -105 27q-98 0 -159 -52l-44 69q91 67 204 67q132 -2 202 -83q38 -44 38 -106v-316h-88zM256 63q91 0 158 59
v73q-29 24 -71 39.5t-82 15.5q-70 0 -110 -26t-40 -68q0 -41 40 -67t105 -26z" />
    <glyph glyph-name="Abreve" unicode="&#x102;" horiz-adv-x="712" 
d="M456 867q-40 -31 -99 -31t-99 31q-39 31 -41 85h68q1 -24 21.5 -41t50.5 -17t50 16.5t22 41.5h68q-1 -55 -41 -85zM103 0h-100l316 773h78l312 -773h-102l-52 128h-400zM521 213l-164 407l-167 -407h331z" />
    <glyph glyph-name="abreve" unicode="&#x103;" horiz-adv-x="560" 
d="M382 625q-43 -38 -109 -38q-67 0 -109 39q-43 39 -45 107h69q1 -36 24.5 -60t60.5 -24q36 0 60 23.5t26 60.5h67q-1 -70 -44 -108zM414 0v42q-64 -54 -162 -54q-100 0 -161 46q-63 45 -63 119q0 73 64 122t165 49q40 0 84.5 -13.5t72.5 -32.5v38q0 51 -48 78
q-50 27 -105 27q-98 0 -159 -52l-44 69q91 67 204 67q132 -2 202 -83q38 -44 38 -106v-316h-88zM256 63q91 0 158 59v73q-29 24 -71 39.5t-82 15.5q-70 0 -110 -26t-40 -68q0 -41 40 -67t105 -26z" />
    <glyph glyph-name="Aogonek" unicode="&#x104;" horiz-adv-x="712" 
d="M103 0h-100l316 773h78l312 -773q-114 -32 -114 -82q0 -39 55 -39q29 0 50 10l17 -50q-29 -17 -81 -17q-51 0 -82 23q-31 24 -31 63q0 70 78 105l-46 115h-400zM521 213l-164 407l-167 -407h331z" />
    <glyph glyph-name="aogonek" unicode="&#x105;" horiz-adv-x="560" 
d="M414 11v31q-64 -54 -162 -54q-100 0 -161 46q-63 45 -63 119q0 73 64 122t165 49q40 0 84.5 -13.5t72.5 -32.5v38q0 51 -48 78q-50 27 -105 27q-98 0 -159 -52l-44 69q91 67 204 67q132 -2 202 -83q38 -44 38 -106v-316q-110 -29 -110 -81q0 -40 52 -40q29 0 50 10
l17 -50q-32 -17 -81 -17q-50 0 -79 22q-30 22 -30 61q0 74 93 106zM256 63q91 0 158 59v73q-29 24 -71 39.5t-82 15.5q-70 0 -110 -26t-40 -68q0 -41 40 -67t105 -26z" />
    <glyph glyph-name="Cacute" unicode="&#x106;" horiz-adv-x="741" 
d="M460 826h-60v17l93 112h99v-12zM656 167l68 -65q-119 -116 -283 -116q-165 0 -282 117q-118 117 -118 284t118 284q117 117 279 117t280 -111l-67 -67q-89 85 -213 85q-122 0 -211 -90q-89 -91 -89 -218t89 -218q89 -90 213 -90q125 0 216 88z" />
    <glyph glyph-name="cacute" unicode="&#x107;" horiz-adv-x="466" 
d="M299 576h-60v17l113 142h101v-12zM401 120l48 -71q-70 -58 -170 -58t-175 76q-75 75 -75 182q0 106 76 181q75 75 176 75q99 0 172 -59l-51 -71q-50 42 -117 42t-116 -49t-49 -120t49 -120t116 -49q66 0 116 41z" />
    <glyph glyph-name="Ccircumflex" unicode="&#x108;" horiz-adv-x="741" 
d="M378 831h-81l115 124h61l115 -124h-80l-66 64zM656 167l68 -65q-119 -116 -283 -116q-165 0 -282 117q-118 117 -118 284t118 284q117 117 279 117t280 -111l-67 -67q-89 85 -213 85q-122 0 -211 -90q-89 -91 -89 -218t89 -218q89 -90 213 -90q125 0 216 88z" />
    <glyph glyph-name="ccircumflex" unicode="&#x109;" horiz-adv-x="466" 
d="M197 581h-81l135 154h61l135 -154h-80l-86 94zM401 120l48 -71q-70 -58 -170 -58t-175 76q-75 75 -75 182q0 106 76 181q75 75 176 75q99 0 172 -59l-51 -71q-50 42 -117 42t-116 -49t-49 -120t49 -120t116 -49q66 0 116 41z" />
    <glyph glyph-name="Cdotaccent" unicode="&#x10a;" horiz-adv-x="741" 
d="M500 897q0 -24 -17 -41t-40 -17q-24 0 -40 16.5t-16 40.5t16 40.5t40 16.5q23 0 40 -16.5t17 -39.5zM656 167l68 -65q-119 -116 -283 -116q-165 0 -282 117q-118 117 -118 284t118 284q117 117 279 117t280 -111l-67 -67q-89 85 -213 85q-122 0 -211 -90
q-89 -91 -89 -218t89 -218q89 -90 213 -90q125 0 216 88z" />
    <glyph glyph-name="cdotaccent" unicode="&#x10b;" horiz-adv-x="466" 
d="M338 690q0 -24 -17 -41t-40 -17q-24 0 -40 16.5t-16 40.5t16 40.5t40 16.5q23 0 40 -16.5t17 -39.5zM401 120l48 -71q-70 -58 -170 -58t-175 76q-75 75 -75 182q0 106 76 181q75 75 176 75q99 0 172 -59l-51 -71q-50 42 -117 42t-116 -49t-49 -120t49 -120t116 -49
q66 0 116 41z" />
    <glyph glyph-name="Ccaron" unicode="&#x10c;" horiz-adv-x="741" 
d="M473 831h-61l-115 124h81l65 -67l65 67h80zM656 167l68 -65q-119 -116 -283 -116q-165 0 -282 117q-118 117 -118 284t118 284q117 117 279 117t280 -111l-67 -67q-89 85 -213 85q-122 0 -211 -90q-89 -91 -89 -218t89 -218q89 -90 213 -90q125 0 216 88z" />
    <glyph glyph-name="ccaron" unicode="&#x10d;" horiz-adv-x="466" 
d="M311 581h-61l-135 154h81l85 -95l85 95h80zM401 120l48 -71q-70 -58 -170 -58t-175 76q-75 75 -75 182q0 106 76 181q75 75 176 75q99 0 172 -59l-51 -71q-50 42 -117 42t-116 -49t-49 -120t49 -120t116 -49q66 0 116 41z" />
    <glyph glyph-name="Dcaron" unicode="&#x10e;" horiz-adv-x="724" 
d="M360 830h-61l-115 124h81l65 -67l65 67h80zM292 0h-203v773h205q159 0 274 -112q115 -111 115 -275t-113 -275q-114 -111 -278 -111zM296 684h-113v-595h116q123 0 205 87q82 88 82 212t-86 210t-204 86z" />
    <glyph glyph-name="dcaron" unicode="&#x10f;" horiz-adv-x="632" 
d="M287 -10q-111 0 -185 75q-74 74 -74 181t75 182q74 75 184 75q90 0 160 -53v330h91v-780h-91v48q-68 -58 -160 -58zM291 76q53 0 93.5 25.5t62.5 70.5v150q-21 44 -63 70.5t-92 26.5q-73 0 -123 -50q-50 -52 -50 -123q0 -72 49 -121q48 -49 123 -49zM654 543l-60 6
l16 228l86 3z" />
    <glyph glyph-name="Dcroat" unicode="&#x110;" horiz-adv-x="759" 
d="M124 348h-83v87h83v338h205q159 0 274 -112q115 -111 115 -275t-113 -275q-114 -111 -278 -111h-203v348zM331 684h-113v-249h142v-87h-142v-259h116q122 0 204 87q82 88 82 150l1 63q0 123 -86 209t-204 86z" />
    <glyph glyph-name="dcroat" unicode="&#x111;" horiz-adv-x="607" 
d="M447 619h-175v68h175v93h91v-93h74v-68h-74v-619h-91v48q-68 -58 -160 -58q-111 0 -185 75q-74 74 -74 181t75 182q74 75 184 75q90 0 160 -53v169zM291 76q53 0 93.5 25.5t62.5 70.5v150q-21 44 -63 70.5t-92 26.5q-73 0 -123 -50q-50 -52 -50 -123q0 -72 49 -121
q48 -49 123 -49z" />
    <glyph glyph-name="Emacron" unicode="&#x112;" horiz-adv-x="577" 
d="M461 858h-297v71h297v-71zM512 435v-87h-327v-262h346v-86h-442v773h437v-87h-341v-251h327z" />
    <glyph glyph-name="emacron" unicode="&#x113;" horiz-adv-x="563" 
d="M430 613h-297v71h297v-71zM295 -9q-119 0 -193 77q-73 76 -73 184q0 107 70 180t181 73t182 -67q72 -68 77 -170q1 -7 1 -33h-424q1 -69 52 -116q50 -47 126 -47q49 0 83.5 13t72.5 45l52 -56q-48 -45 -95 -64t-112 -19zM123 307h321q-13 54 -56.5 87t-107.5 33
q-125 0 -157 -120z" />
    <glyph glyph-name="Ebreve" unicode="&#x114;" horiz-adv-x="577" 
d="M411 867q-40 -31 -99 -31t-99 31q-39 31 -41 85h68q1 -24 21.5 -41t50.5 -17t50 16.5t22 41.5h68q-1 -55 -41 -85zM512 435v-87h-327v-262h346v-86h-442v773h437v-87h-341v-251h327z" />
    <glyph glyph-name="ebreve" unicode="&#x115;" horiz-adv-x="563" 
d="M390 625q-43 -38 -109 -38q-67 0 -109 39q-43 39 -45 107h69q1 -36 24.5 -60t60.5 -24q36 0 60 23.5t26 60.5h67q-1 -70 -44 -108zM295 -9q-119 0 -193 77q-73 76 -73 184q0 107 70 180t181 73t182 -67q72 -68 77 -170q1 -7 1 -33h-424q1 -69 52 -116q50 -47 126 -47
q49 0 83.5 13t72.5 45l52 -56q-48 -45 -95 -64t-112 -19zM123 307h321q-13 54 -56.5 87t-107.5 33q-125 0 -157 -120z" />
    <glyph glyph-name="Edotaccent" unicode="&#x116;" horiz-adv-x="577" 
d="M370 896q0 -24 -17 -41t-40 -17q-24 0 -40 16.5t-16 40.5t16 40.5t40 16.5q23 0 40 -16.5t17 -39.5zM512 435v-87h-327v-262h346v-86h-442v773h437v-87h-341v-251h327z" />
    <glyph glyph-name="edotaccent" unicode="&#x117;" horiz-adv-x="563" 
d="M339 690q0 -24 -17 -41t-40 -17q-24 0 -40 16.5t-16 40.5t16 40.5t40 16.5q23 0 40 -16.5t17 -39.5zM295 -9q-119 0 -193 77q-73 76 -73 184q0 107 70 180t181 73t182 -67q72 -68 77 -170q1 -7 1 -33h-424q1 -69 52 -116q50 -47 126 -47q49 0 83.5 13t72.5 45l52 -56
q-48 -45 -95 -64t-112 -19zM123 307h321q-13 54 -56.5 87t-107.5 33q-125 0 -157 -120z" />
    <glyph glyph-name="Eogonek" unicode="&#x118;" horiz-adv-x="577" 
d="M512 435v-87h-327v-262h346v-86q-113 -29 -113 -81q0 -40 54 -40q29 0 50 10l17 -50q-32 -17 -81 -17q-51 0 -80 22q-31 22 -31 61q0 60 59 95h-317v773h437v-87h-341v-251h327z" />
    <glyph glyph-name="eogonek" unicode="&#x119;" horiz-adv-x="563" 
d="M299 -9h-4q-119 0 -193 77q-73 76 -73 184q0 107 70 180t181 73t182 -67q72 -68 77 -170q1 -7 1 -33h-424q1 -69 52 -116q50 -47 126 -47q49 0 83.5 13t72.5 45l52 -56q-37 -37 -75 -55q-30 -17 -40 -23t-22 -16t-22 -22q-16 -17 -16 -38q0 -41 54 -41q29 0 50 10l17 -50
q-32 -17 -82 -17q-51 0 -80 22q-20 15 -27 39t3 53.5t37 54.5zM123 307h321q-13 54 -56.5 87t-107.5 33q-125 0 -157 -120z" />
    <glyph glyph-name="Ecaron" unicode="&#x11a;" horiz-adv-x="577" 
d="M343 830h-61l-115 124h81l65 -67l65 67h80zM512 435v-87h-327v-262h346v-86h-442v773h437v-87h-341v-251h327z" />
    <glyph glyph-name="ecaron" unicode="&#x11b;" horiz-adv-x="563" 
d="M312 581h-61l-135 154h81l85 -95l85 95h80zM295 -9q-119 0 -193 77q-73 76 -73 184q0 107 70 180t181 73t182 -67q72 -68 77 -170q1 -7 1 -33h-424q1 -69 52 -116q50 -47 126 -47q49 0 83.5 13t72.5 45l52 -56q-48 -45 -95 -64t-112 -19zM123 307h321q-13 54 -56.5 87
t-107.5 33q-125 0 -157 -120z" />
    <glyph glyph-name="Gcircumflex" unicode="&#x11c;" horiz-adv-x="880" 
d="M381 830h-81l115 124h61l115 -124h-80l-66 64zM748 343h-147v87h244v-46q-4 -171 -120 -284q-118 -113 -283 -113q-166 0 -283 118q-118 117 -118 283t117 283t291 117q173 0 295 -132l-68 -65q-94 105 -228 105t-222 -90q-88 -89 -88 -218t88 -218q88 -91 211 -91
t208 73q83 71 103 191z" />
    <glyph glyph-name="gcircumflex" unicode="&#x11d;" horiz-adv-x="607" 
d="M209 581h-81l135 154h61l135 -154h-80l-86 94zM287 -8q-110 0 -184 74t-74 180q0 105 74 182q73 76 174 76q17 -1 52 -1q51 0 119 -54v49h90v-459q0 -94 -68 -153q-68 -58 -181 -58q-156 0 -252 84l44 65q85 -68 208 -68q79 0 119 37t40 104v2q-69 -60 -161 -60zM291 79
q53 0 94 26t63 71v146q-21 44 -63 70.5t-93 26.5q-73 0 -123 -50q-50 -52 -50 -123q0 -73 49 -119q50 -48 123 -48z" />
    <glyph glyph-name="Gbreve" unicode="&#x11e;" horiz-adv-x="880" 
d="M543 867q-40 -31 -99 -31t-99 31q-39 31 -41 85h68q1 -24 21.5 -41t50.5 -17t50 16.5t22 41.5h68q-1 -55 -41 -85zM748 343h-147v87h244v-46q-4 -171 -120 -284q-118 -113 -283 -113q-166 0 -283 118q-118 117 -118 283t117 283t291 117q173 0 295 -132l-68 -65
q-94 105 -228 105t-222 -90q-88 -89 -88 -218t88 -218q88 -91 211 -91t208 73q83 71 103 191z" />
    <glyph glyph-name="gbreve" unicode="&#x11f;" horiz-adv-x="607" 
d="M402 625q-43 -38 -109 -38q-67 0 -109 39q-43 39 -45 107h69q1 -36 24.5 -60t60.5 -24q36 0 60 23.5t26 60.5h67q-1 -70 -44 -108zM287 -8q-110 0 -184 74t-74 180q0 105 74 182q73 76 174 76q17 -1 52 -1q51 0 119 -54v49h90v-459q0 -94 -68 -153q-68 -58 -181 -58
q-156 0 -252 84l44 65q85 -68 208 -68q79 0 119 37t40 104v2q-69 -60 -161 -60zM291 79q53 0 94 26t63 71v146q-21 44 -63 70.5t-93 26.5q-73 0 -123 -50q-50 -52 -50 -123q0 -73 49 -119q50 -48 123 -48z" />
    <glyph glyph-name="Gdotaccent" unicode="&#x120;" horiz-adv-x="880" 
d="M502 896q0 -24 -17 -41t-40 -17q-24 0 -40 16.5t-16 40.5t16 40.5t40 16.5q23 0 40 -16.5t17 -39.5zM748 343h-147v87h244v-46q-4 -171 -120 -284q-118 -113 -283 -113q-166 0 -283 118q-118 117 -118 283t117 283t291 117q173 0 295 -132l-68 -65q-94 105 -228 105
t-222 -90q-88 -89 -88 -218t88 -218q88 -91 211 -91t208 73q83 71 103 191z" />
    <glyph glyph-name="gdotaccent" unicode="&#x121;" horiz-adv-x="607" 
d="M351 690q0 -24 -17 -41t-40 -17q-24 0 -40 16.5t-16 40.5t16 40.5t40 16.5q23 0 40 -16.5t17 -39.5zM287 -8q-110 0 -184 74t-74 180q0 105 74 182q73 76 174 76q17 -1 52 -1q51 0 119 -54v49h90v-459q0 -94 -68 -153q-68 -58 -181 -58q-156 0 -252 84l44 65
q85 -68 208 -68q79 0 119 37t40 104v2q-69 -60 -161 -60zM291 79q53 0 94 26t63 71v146q-21 44 -63 70.5t-93 26.5q-73 0 -123 -50q-50 -52 -50 -123q0 -73 49 -119q50 -48 123 -48z" />
    <glyph glyph-name="uni0122" unicode="&#x122;" horiz-adv-x="880" 
d="M748 343h-147v87h244v-46q-4 -171 -120 -284q-118 -113 -283 -113q-166 0 -283 118q-118 117 -118 283t117 283t291 117q173 0 295 -132l-68 -65q-94 105 -228 105t-222 -90q-88 -89 -88 -218t88 -218q88 -91 211 -91t208 73q83 71 103 191zM478 -52l-75 -144l-57 19
l56 147z" />
    <glyph glyph-name="uni0123" unicode="&#x123;" horiz-adv-x="607" 
d="M328 585l-76 21l74 145l58 -20zM287 -8q-110 0 -184 74t-74 180q0 105 74 182q73 76 174 76q17 -1 52 -1q51 0 119 -54v49h90v-459q0 -94 -68 -153q-68 -58 -181 -58q-156 0 -252 84l44 65q85 -68 208 -68q79 0 119 37t40 104v2q-69 -60 -161 -60zM291 79q53 0 94 26
t63 71v146q-21 44 -63 70.5t-93 26.5q-73 0 -123 -50q-50 -52 -50 -123q0 -73 49 -119q50 -48 123 -48z" />
    <glyph glyph-name="Hcircumflex" unicode="&#x124;" horiz-adv-x="774" 
d="M323 830h-81l115 124h61l115 -124h-80l-66 64zM685 0h-96v344h-404v-344h-96v773h96v-338h404v338h96v-773z" />
    <glyph glyph-name="hcircumflex" unicode="&#x125;" horiz-adv-x="579" 
d="M242 840h-81l115 124h61l115 -124h-80l-66 64zM523 0h-91v280q0 62 -41 100q-40 37 -98 37q-85 0 -132 -74v-343h-91v780h91v-333q54 58 144 58q89 0 154 -57q64 -58 64 -155v-293z" />
    <glyph glyph-name="Hbar" unicode="&#x126;" horiz-adv-x="800" 
d="M102 564h-83v78h83v131h96v-131h404v131h96v-131h83v-78h-83v-564h-96v344h-404v-344h-96v564zM198 564v-129h404v129h-404z" />
    <glyph glyph-name="hbar" unicode="&#x127;" horiz-adv-x="579" 
d="M70 619h-74v68h74v93h91v-93h165v-68h-165v-172q54 58 144 58q89 0 154 -57q64 -58 64 -155v-293h-91v280q0 62 -41 100q-40 37 -98 37q-85 0 -132 -74v-343h-91v619z" />
    <glyph glyph-name="Itilde" unicode="&#x128;" horiz-adv-x="275" 
d="M256 956l55 -10q0 -43 -27 -71.5t-66 -28.5t-86 26t-66 26q-21 0 -31 -12q-12 -13 -13 -31l-52 9q0 44 26.5 72.5t65.5 28.5q38 0 86 -27q46 -27 66 -27q38 0 42 45zM185 0h-96v773h96v-773z" />
    <glyph glyph-name="itilde" unicode="&#x129;" horiz-adv-x="230" 
d="M217 707l48 -10q0 -43 -23.5 -71.5t-57.5 -28.5t-75 26q-38 24 -58 26t-26 -12q-11 -12 -12 -31l-45 9q0 44 23 72.5t57 28.5q33 0 75 -27q41 -27 57 -27q32 0 37 45zM160 0h-91v498h91v-498z" />
    <glyph glyph-name="Imacron" unicode="&#x12a;" horiz-adv-x="275" 
d="M268 858h-259v71h259v-71zM185 0h-96v773h96v-773z" />
    <glyph glyph-name="imacron" unicode="&#x12b;" horiz-adv-x="230" 
d="M215 613h-199v71h199v-71zM160 0h-91v498h91v-498z" />
    <glyph glyph-name="Ibreve" unicode="&#x12c;" horiz-adv-x="275" 
d="M237 867q-40 -31 -99 -31t-99 31q-39 31 -41 85h68q1 -24 21.5 -41t50.5 -17t50 16.5t22 41.5h68q-1 -55 -41 -85zM185 0h-96v773h96v-773z" />
    <glyph glyph-name="ibreve" unicode="&#x12d;" horiz-adv-x="230" 
d="M224 625q-43 -38 -109 -38q-67 0 -109 39q-43 39 -45 107h69q1 -36 24.5 -60t60.5 -24q36 0 60 23.5t26 60.5h67q-1 -70 -44 -108zM160 0h-91v498h91v-498z" />
    <glyph glyph-name="Iogonek" unicode="&#x12e;" horiz-adv-x="275" 
d="M177 -111l17 -50q-29 -17 -80 -17t-83 23q-31 22 -31 68q0 45 42 75q18 14 47 26v759h96v-772l1 -1q-112 -28 -112 -80q0 -41 53 -41q29 0 50 10z" />
    <glyph glyph-name="iogonek" unicode="&#x12f;" horiz-adv-x="230" 
d="M153 -111l16 -50q-29 -17 -79 -17q-51 0 -80 22q-31 22 -31 61q0 73 90 106v487h91v-498q-111 -28 -111 -81q0 -40 54 -40q29 0 50 10zM172 690q0 -24 -17 -41t-40 -17q-24 0 -40 16.5t-16 40.5t16 40.5t40 16.5q23 0 40 -16.5t17 -39.5z" />
    <glyph glyph-name="Idotaccent" unicode="&#x130;" horiz-adv-x="275" 
d="M195 896q0 -24 -17 -41t-40 -17q-24 0 -40 16.5t-16 40.5t16 40.5t40 16.5q23 0 40 -16.5t17 -39.5zM185 0h-96v773h96v-773z" />
    <glyph glyph-name="dotlessi" unicode="&#x131;" horiz-adv-x="230" 
d="M160 0h-91v498h91v-498z" />
    <glyph glyph-name="IJ" unicode="&#x132;" horiz-adv-x="696" 
d="M625 773v-509q0 -119 -77 -198q-78 -79 -206 -79q-129 0 -199 76q-71 77 -72 202h96q1 -90 47.5 -138.5t131.5 -48.5q84 0 133.5 53.5t49.5 138.5v503h96zM167 324h-96v449h96v-449z" />
    <glyph glyph-name="ij" unicode="&#x133;" horiz-adv-x="433" 
d="M374 690q0 -22 -16.5 -38t-39.5 -16q-24 0 -40.5 16t-16.5 38t16.5 37.5t40.5 15.5q23 0 39.5 -15.5t16.5 -37.5zM171 690q0 -22 -16.5 -38t-39.5 -16q-24 0 -40.5 16t-16.5 38t16.5 37.5t40.5 15.5q23 0 39.5 -15.5t16.5 -37.5zM160 0h-91v498h91v-498zM191 -184l-1 76
q82 3 82 103v503h91v-498q0 -89 -44.5 -135.5t-127.5 -48.5z" />
    <glyph glyph-name="Jcircumflex" unicode="&#x134;" horiz-adv-x="521" 
d="M350 830h-81l99 124h67l100 -124h-81l-53 63zM199 -11q-87 0 -151 46.5t-89 129.5l85 39q36 -124 163 -124q65 0 106 46.5t41 126.5v520h96v-521q0 -127 -71 -195q-73 -68 -180 -68z" />
    <glyph glyph-name="jcircumflex" unicode="&#x135;" horiz-adv-x="230" 
d="M62 581h-76l95 154h67l97 -154h-75l-55 91zM-12 -184l-1 76q82 3 82 103v503h91v-498q0 -89 -44.5 -135.5t-127.5 -48.5z" />
    <glyph glyph-name="uni0136" unicode="&#x136;" horiz-adv-x="669" 
d="M183 0h-94v773h94v-380l337 380h123l-273 -306l280 -467h-111l-235 393l-121 -135v-258zM374 -52l-75 -144l-57 19l56 147z" />
    <glyph glyph-name="uni0137" unicode="&#x137;" horiz-adv-x="517" 
d="M160 268l227 230h112l-196 -198l211 -300h-107l-166 238l-81 -82v-156h-91v780h91v-512zM309 -52l-75 -144l-57 19l56 147z" />
    <glyph glyph-name="kgreenlandic" unicode="&#x138;" horiz-adv-x="517" 
d="M160 268l227 230h112l-196 -198l211 -300h-107l-166 238l-81 -82v-156h-91v498h91v-230z" />
    <glyph glyph-name="Lacute" unicode="&#x139;" horiz-adv-x="527" 
d="M164 825h-60v17l93 112h99v-12zM514 0h-425v773h96v-683h329v-90z" />
    <glyph glyph-name="lacute" unicode="&#x13a;" horiz-adv-x="230" 
d="M151 831h-60v17l93 112h99v-12zM160 0h-91v780h91v-780z" />
    <glyph glyph-name="uni013B" unicode="&#x13b;" horiz-adv-x="527" 
d="M514 0h-425v773h96v-683h329v-90zM357 -52l-75 -144l-57 19l56 147z" />
    <glyph glyph-name="uni013C" unicode="&#x13c;" horiz-adv-x="230" 
d="M160 0h-91v780h91v-780zM159 -52l-75 -144l-57 19l56 147z" />
    <glyph glyph-name="Lcaron" unicode="&#x13d;" horiz-adv-x="536" 
d="M514 0h-425v773h96v-683h329v-90zM468 728l-116 -230l-57 21l90 239z" />
    <glyph glyph-name="lcaron" unicode="&#x13e;" horiz-adv-x="287" 
d="M160 0h-91v780h91v-780zM284 551h-62l-11 229h87z" />
    <glyph glyph-name="Ldot" unicode="&#x13f;" horiz-adv-x="529" 
d="M514 0h-425v773h96v-683h329v-90zM438 382q0 -24 -17 -40.5t-40 -16.5q-24 0 -40.5 16.5t-16.5 40.5t16.5 40.5t40.5 16.5q23 0 40 -16.5t17 -40.5z" />
    <glyph glyph-name="ldot" unicode="&#x140;" horiz-adv-x="314" 
d="M160 0h-91v780h91v-780zM326 315q0 -24 -17 -40.5t-40 -16.5q-24 0 -40.5 16.5t-16.5 40.5t16.5 40.5t40.5 16.5q23 0 40 -16.5t17 -40.5z" />
    <glyph glyph-name="Lslash" unicode="&#x141;" horiz-adv-x="546" 
d="M533 0h-425v304l-82 -44v97l82 44v372h96v-320l217 118v-97l-217 -118v-266h329v-90z" />
    <glyph glyph-name="lslash" unicode="&#x142;" horiz-adv-x="300" 
d="M196 0h-91v322l-92 -47v83l92 47v375h91v-328l90 46v-84l-90 -46v-368z" />
    <glyph glyph-name="Nacute" unicode="&#x143;" horiz-adv-x="787" 
d="M413 825h-60v17l93 112h99v-12zM185 0h-96v773h61l452 -574v574h96v-773h-58l-455 576v-576z" />
    <glyph glyph-name="nacute" unicode="&#x144;" 
d="M313 576h-60v17l113 142h101v-12zM522 0h-91v280q0 62 -41 100q-40 37 -98 37q-85 0 -132 -74v-343h-91v498h91v-51q54 58 144 58t154 -57q64 -58 64 -155v-293z" />
    <glyph glyph-name="uni0145" unicode="&#x145;" horiz-adv-x="787" 
d="M185 0h-96v773h61l452 -574v574h96v-773h-58l-455 576v-576zM441 -52l-75 -144l-57 19l56 147z" />
    <glyph glyph-name="uni0146" unicode="&#x146;" horiz-adv-x="573" 
d="M522 0h-91v280q0 61 -40 99t-99 38q-85 0 -132 -74v-343h-91v498h91v-51q54 58 144 58t154 -57q64 -58 64 -155v-293zM339 -52l-75 -144l-57 19l56 147z" />
    <glyph glyph-name="Ncaron" unicode="&#x147;" horiz-adv-x="787" 
d="M426 830h-61l-115 124h81l65 -67l65 67h80zM185 0h-96v773h61l452 -574v574h96v-773h-58l-455 576v-576z" />
    <glyph glyph-name="ncaron" unicode="&#x148;" 
d="M325 581h-61l-135 154h81l85 -95l85 95h80zM522 0h-91v280q0 62 -41 100q-40 37 -98 37q-85 0 -132 -74v-343h-91v498h91v-51q54 58 144 58t154 -57q64 -58 64 -155v-293z" />
    <glyph glyph-name="napostrophe" unicode="&#x149;" 
d="M522 0h-91v280q0 61 -40 99t-99 38q-85 0 -132 -74v-343h-91v498h91v-51q54 58 144 58t154 -57q64 -58 64 -155v-293zM73 573l57 152l74 -29l-74 -144z" />
    <glyph glyph-name="Eng" unicode="&#x14a;" horiz-adv-x="787" 
d="M185 0h-96v773h61l452 -572v572h96v-690q0 -127 -72 -195q-73 -68 -180 -68v94q64 0 104.5 36t49.5 101l-415 526v-577z" />
    <glyph glyph-name="eng" unicode="&#x14b;" 
d="M160 0h-91v498h91v-51q54 58 144 58t154 -57q64 -58 64 -155v-293q0 -89 -45.5 -135.5t-128.5 -48.5v76q83 3 83 103v285q0 62 -41 100q-40 37 -98 37q-82 0 -132 -75v-342z" />
    <glyph glyph-name="Omacron" unicode="&#x14c;" horiz-adv-x="885" 
d="M591 858h-297v71h297v-71zM844 387q0 -166 -117 -283q-118 -118 -284 -118q-167 0 -284 118q-118 117 -118 283t118 284q117 117 284 117q165 0 284 -117q117 -119 117 -284zM227 169q89 -90 215 -90q128 0 216 90q89 91 89 218t-89 218q-88 90 -216 90q-126 0 -215 -90
q-89 -91 -89 -218t89 -218z" />
    <glyph glyph-name="omacron" unicode="&#x14d;" horiz-adv-x="585" 
d="M441 613h-297v71h297v-71zM482 67q-75 -76 -190 -76q-116 0 -189 76q-74 77 -74 183t75 183q75 75 188 75q112 0 189 -75q75 -77 75 -183t-74 -183zM120 251q0 -72 50 -122q50 -51 123 -51t123 51q49 49 49 122q0 72 -49 121q-50 48 -124 48t-123 -48q-49 -49 -49 -121z
" />
    <glyph glyph-name="Obreve" unicode="&#x14e;" horiz-adv-x="885" 
d="M541 867q-40 -31 -99 -31t-99 31q-39 31 -41 85h68q1 -24 21.5 -41t50.5 -17t50 16.5t22 41.5h68q-1 -55 -41 -85zM844 387q0 -166 -117 -283q-118 -118 -284 -118q-167 0 -284 118q-118 117 -118 283t118 284q117 117 284 117q165 0 284 -117q117 -119 117 -284z
M227 169q89 -90 215 -90q128 0 216 90q89 91 89 218t-89 218q-88 90 -216 90q-126 0 -215 -90q-89 -91 -89 -218t89 -218z" />
    <glyph glyph-name="obreve" unicode="&#x14f;" horiz-adv-x="585" 
d="M401 625q-43 -38 -109 -38q-67 0 -109 39q-43 39 -45 107h69q1 -36 25 -60t60 -24t60 23.5t26 60.5h67q-1 -70 -44 -108zM482 67q-75 -76 -190 -76q-116 0 -189 76q-74 77 -74 183t75 183q75 75 188 75q112 0 189 -75q75 -77 75 -183t-74 -183zM120 251q0 -72 50 -122
q50 -51 123 -51t123 51q49 49 49 122q0 72 -49 121q-50 48 -124 48t-123 -48q-49 -49 -49 -121z" />
    <glyph glyph-name="Ohungarumlaut" unicode="&#x150;" horiz-adv-x="885" 
d="M370 825h-48v11l66 116h79v-11zM540 825h-49v12l77 115h80v-11zM844 387q0 -166 -117 -283q-118 -118 -284 -118q-167 0 -284 118q-118 117 -118 283t118 284q117 117 284 117q165 0 284 -117q117 -119 117 -284zM227 169q89 -90 215 -90q128 0 216 90q89 91 89 218
t-89 218q-88 90 -216 90q-126 0 -215 -90q-89 -91 -89 -218t89 -218z" />
    <glyph glyph-name="ohungarumlaut" unicode="&#x151;" horiz-adv-x="585" 
d="M230 576h-65l90 156h93zM399 576h-66l102 156h94zM482 67q-75 -76 -190 -76q-116 0 -189 76q-74 77 -74 183t75 183q75 75 188 75q112 0 189 -75q75 -77 75 -183t-74 -183zM120 251q0 -72 50 -122q50 -51 123 -51t123 51q49 49 49 122q0 72 -49 121q-50 48 -124 48
t-123 -48q-49 -49 -49 -121z" />
    <glyph glyph-name="OE" unicode="&#x152;" horiz-adv-x="1149" 
d="M1070 435v-87h-327v-262h346v-86h-442v49q-84 -63 -206 -63q-165 0 -282 118q-118 117 -118 283q0 165 117 284q117 117 283 117q121 0 206 -63v48h437v-87h-341v-251h327zM138 387q0 -127 89 -218q89 -90 210 -90t210 81v453q-85 82 -208 82t-212 -90q-89 -91 -89 -218z
" />
    <glyph glyph-name="oe" unicode="&#x153;" horiz-adv-x="1000" 
d="M732 -9q-149 0 -222 112q-34 -51 -91.5 -81.5t-126.5 -30.5q-116 0 -189 76q-74 77 -74 183t75 183q75 75 188 75q139 0 216 -111q70 108 211 108q109 0 180 -67q72 -68 77 -170q1 -7 1 -33h-424q1 -69 52 -116q50 -47 126 -47q49 0 83.5 13t72.5 45l52 -56
q-48 -45 -95 -64t-112 -19zM560 307h321q-13 54 -56.5 87t-107.5 33q-125 0 -157 -120zM120 251q0 -72 50 -122q50 -51 123 -51t123 51q49 49 49 122q0 72 -49 121q-50 48 -124 48t-123 -48q-49 -49 -49 -121z" />
    <glyph glyph-name="Racute" unicode="&#x154;" horiz-adv-x="658" 
d="M344 825h-60v17l93 112h99v-12zM185 0h-96v773h290q104 0 175 -65q70 -66 70 -166t-65 -163q-65 -64 -165 -70l239 -309h-112l-238 310h-98v-310zM368 688h-183v-298h182q70 0 115 42q45 40 45 106q0 64 -45 108q-45 42 -114 42z" />
    <glyph glyph-name="racute" unicode="&#x155;" horiz-adv-x="427" 
d="M247 576h-60v17l113 142h101v-12zM160 0h-91v498h91v-39q40 43 106 43q65 0 110 -45q44 -47 44 -114v-16h-83q0 39 -24.5 65t-60.5 26q-35 0 -60 -20t-32 -51v-347z" />
    <glyph glyph-name="uni0156" unicode="&#x156;" horiz-adv-x="658" 
d="M185 0h-96v773h290q104 0 175 -65q70 -66 70 -166t-65 -163q-65 -64 -165 -70l239 -309h-112l-238 310h-98v-310zM368 688h-183v-298h182q70 0 115 42q45 40 45 106q0 64 -45 108q-45 42 -114 42zM393 -52l-75 -144l-57 19l56 147z" />
    <glyph glyph-name="uni0157" unicode="&#x157;" horiz-adv-x="427" 
d="M160 0h-91v498h91v-39q40 43 106 43q65 0 110 -45q44 -47 44 -114v-16h-83q0 39 -24.5 65t-60.5 26q-35 0 -60 -20t-32 -51v-347zM161 -46l-75 -144l-57 19l56 147z" />
    <glyph glyph-name="Rcaron" unicode="&#x158;" horiz-adv-x="658" 
d="M357 830h-61l-115 124h81l65 -67l65 67h80zM185 0h-96v773h290q104 0 175 -65q70 -66 70 -166t-65 -163q-65 -64 -165 -70l239 -309h-112l-238 310h-98v-310zM368 688h-183v-298h182q70 0 115 42q45 40 45 106q0 64 -45 108q-45 42 -114 42z" />
    <glyph glyph-name="rcaron" unicode="&#x159;" horiz-adv-x="427" 
d="M260 581h-61l-135 154h81l85 -95l85 95h80zM160 0h-91v498h91v-39q40 43 106 43q65 0 110 -45q44 -47 44 -114v-16h-83q0 39 -24.5 65t-60.5 26q-35 0 -60 -20t-32 -51v-347z" />
    <glyph glyph-name="Sacute" unicode="&#x15a;" horiz-adv-x="585" 
d="M315 826h-60v17l93 112h99v-12zM290 -9q-75 0 -146.5 31.5t-120.5 85.5l65 71q38 -45 94.5 -72.5t117.5 -27.5q64 0 106 36t42 92q0 93 -111 138l-93 37q-85 33 -125 81q-41 50 -41 127q0 78 63 136q62 58 156 58q133 0 222 -85l-58 -73q-69 69 -164 69q-57 0 -91 -30
q-36 -30 -36 -73t24.5 -70.5t84.5 -51.5l96 -39q167 -68 167 -218q0 -99 -69 -160q-70 -62 -183 -62z" />
    <glyph glyph-name="sacute" unicode="&#x15b;" horiz-adv-x="511" 
d="M274 576h-60v17l113 142h101v-12zM264 -12q-134 0 -249 67l46 73q94 -61 205 -61q62 0 99 20.5t37 53.5q0 48 -77 63l-142 27q-137 27 -137 135q0 65 55.5 104t163.5 39q111 0 197 -56l-43 -71q-83 48 -164 48q-55 0 -89 -16t-34 -41q0 -26 16 -39q13 -11 50 -19l132 -23
q159 -32 159 -146q0 -72 -64 -115t-161 -43z" />
    <glyph glyph-name="Scircumflex" unicode="&#x15c;" horiz-adv-x="585" 
d="M233 831h-81l115 124h61l115 -124h-80l-66 64zM290 -9q-75 0 -146.5 31.5t-120.5 85.5l65 71q38 -45 94.5 -72.5t117.5 -27.5q64 0 106 36t42 92q0 93 -111 138l-93 37q-85 33 -125 81q-41 50 -41 127q0 78 63 136q62 58 156 58q133 0 222 -85l-58 -73q-69 69 -164 69
q-57 0 -91 -30q-36 -30 -36 -73t24.5 -70.5t84.5 -51.5l96 -39q167 -68 167 -218q0 -99 -69 -160q-70 -62 -183 -62z" />
    <glyph glyph-name="scircumflex" unicode="&#x15d;" horiz-adv-x="511" 
d="M172 581h-81l135 154h61l135 -154h-80l-86 94zM264 -12q-134 0 -249 67l46 73q94 -61 205 -61q62 0 99 20.5t37 53.5q0 48 -77 63l-142 27q-137 27 -137 135q0 65 55.5 104t163.5 39q111 0 197 -56l-43 -71q-83 48 -164 48q-55 0 -89 -16t-34 -41q0 -26 16 -39
q13 -11 50 -19l132 -23q159 -32 159 -146q0 -72 -64 -115t-161 -43z" />
    <glyph glyph-name="Scedilla" unicode="&#x15e;" horiz-adv-x="585" 
d="M227 -200v57q15 -3 25 -3q54 0 54 38q0 19 -14 29t-27 9t-17 0v63q-54 7 -105 30q-69 31 -120 85l65 71q38 -45 94.5 -72.5t117.5 -27.5q64 0 106 36t42 92q0 93 -111 138l-93 37q-85 33 -125 81q-41 50 -41 127q0 78 63 136q62 58 156 58q133 0 222 -85l-58 -73
q-69 69 -164 69q-57 0 -91 -30q-36 -30 -36 -73t24.5 -70.5t84.5 -51.5l96 -39q167 -68 167 -218q0 -99 -69 -161q-61 -55 -160 -60v-28q27 -5 44 -26t17 -49q0 -44 -31 -68t-87 -24q-14 0 -29 3z" />
    <glyph glyph-name="scedilla" unicode="&#x15f;" horiz-adv-x="511" 
d="M202 -200v57q15 -3 25 -3q54 0 54 38q0 19 -14 29t-27 9t-17 0v60q-110 8 -208 65l46 73q94 -61 205 -61q62 0 99 20.5t37 53.5q0 48 -77 63l-142 27q-137 27 -137 135q0 65 55.5 104t163.5 39q111 0 197 -56l-43 -71q-83 48 -164 48q-55 0 -89 -16t-34 -41q0 -26 16 -39
q13 -11 50 -19l132 -23q159 -32 159 -146q0 -72 -64 -115q-55 -37 -137 -42v-25q27 -5 44 -26t17 -49q0 -44 -31 -68t-87 -24q-14 0 -29 3z" />
    <glyph glyph-name="Scaron" unicode="&#x160;" horiz-adv-x="585" 
d="M327 831h-61l-115 124h81l65 -67l65 67h80zM290 -9q-75 0 -146.5 31.5t-120.5 85.5l65 71q38 -45 94.5 -72.5t117.5 -27.5q64 0 106 36t42 92q0 93 -111 138l-93 37q-85 33 -125 81q-41 50 -41 127q0 78 63 136q62 58 156 58q133 0 222 -85l-58 -73q-69 69 -164 69
q-57 0 -91 -30q-36 -30 -36 -73t24.5 -70.5t84.5 -51.5l96 -39q167 -68 167 -218q0 -99 -69 -160q-70 -62 -183 -62z" />
    <glyph glyph-name="scaron" unicode="&#x161;" horiz-adv-x="511" 
d="M286 581h-61l-135 154h81l85 -95l85 95h80zM264 -12q-134 0 -249 67l46 73q94 -61 205 -61q62 0 99 20.5t37 53.5q0 48 -77 63l-142 27q-137 27 -137 135q0 65 55.5 104t163.5 39q111 0 197 -56l-43 -71q-83 48 -164 48q-55 0 -89 -16t-34 -41q0 -26 16 -39
q13 -11 50 -19l132 -23q159 -32 159 -146q0 -72 -64 -115t-161 -43z" />
    <glyph glyph-name="uni0162" unicode="&#x162;" horiz-adv-x="630" 
d="M267 683h-256v90h608v-90h-256v-683h-96v683zM355 -52l-75 -144l-57 19l56 147z" />
    <glyph glyph-name="uni0162" unicode="&#x21a;" horiz-adv-x="630" 
d="M267 683h-256v90h608v-90h-256v-683h-96v683zM355 -52l-75 -144l-57 19l56 147z" />
    <glyph glyph-name="uni0163" unicode="&#x163;" horiz-adv-x="285" 
d="M97 416h-82v82h82v186l90 54v-240h83v-82h-83v-416h-90v416zM181 -52l-75 -144l-57 19l56 147z" />
    <glyph glyph-name="Tcaron" unicode="&#x164;" horiz-adv-x="630" 
d="M345 830h-61l-115 124h81l65 -67l65 67h80zM267 683h-256v90h608v-90h-256v-683h-96v683z" />
    <glyph glyph-name="tcaron" unicode="&#x165;" horiz-adv-x="285" 
d="M321 567l-60 6l16 228l86 3zM97 416h-82v82h82v186l90 54v-240h83v-82h-83v-416h-90v416z" />
    <glyph glyph-name="Tbar" unicode="&#x166;" horiz-adv-x="630" 
d="M267 683h-256v90h608v-90h-256v-268h191v-76h-191v-339h-96v339h-188v76h188v268z" />
    <glyph glyph-name="tbar" unicode="&#x167;" horiz-adv-x="302" 
d="M106 416h-82v82h82v186l90 54v-240h83v-82h-83v-105h83v-81h-83v-230h-90v230h-83v81h83v105z" />
    <glyph glyph-name="Utilde" unicode="&#x168;" horiz-adv-x="711" 
d="M473 956l55 -10q0 -43 -27 -71.5t-66 -28.5t-86 26t-66 26q-21 0 -31 -12q-12 -13 -13 -31l-52 9q0 44 26.5 72.5t65.5 28.5q38 0 86 -27q47 -27 66 -27q37 0 42 45zM640 773v-502q0 -123 -79 -203q-79 -81 -205 -81t-205 81q-80 82 -80 203v502h96v-495q0 -88 51 -143
q50 -57 137 -57t138 56t51 144v495h96z" />
    <glyph glyph-name="utilde" unicode="&#x169;" 
d="M417 0v52q-60 -60 -146 -60t-150 58q-65 57 -65 153l1 295h91v-286q0 -62 41 -100q40 -37 90 -37q96 0 138 83v340h91v-498h-91zM404 707l55 -10q0 -43 -27 -71.5t-66 -28.5t-86 26q-44 24 -66.5 26t-30.5 -12q-12 -13 -13 -31l-52 9q0 44 26.5 72.5t65.5 28.5
q38 0 86 -27q46 -27 66 -27q38 0 42 45z" />
    <glyph glyph-name="Umacron" unicode="&#x16a;" horiz-adv-x="711" 
d="M504 858h-297v71h297v-71zM640 773v-502q0 -123 -79 -203q-79 -81 -205 -81t-205 81q-80 82 -80 203v502h96v-495q0 -88 51 -143q50 -57 137 -57t138 56t51 144v495h96z" />
    <glyph glyph-name="umacron" unicode="&#x16b;" 
d="M417 0v52q-60 -60 -146 -60t-150 58q-65 57 -65 153l1 295h91v-286q0 -62 41 -100q40 -37 90 -37q96 0 138 83v340h91v-498h-91zM435 613h-297v71h297v-71z" />
    <glyph glyph-name="Ubreve" unicode="&#x16c;" horiz-adv-x="711" 
d="M454 867q-40 -31 -99 -31t-99 31q-39 31 -41 85h68q1 -24 21.5 -41t50.5 -17t50 16.5t22 41.5h68q-1 -55 -41 -85zM640 773v-502q0 -123 -79 -203q-79 -81 -205 -81t-205 81q-80 82 -80 203v502h96v-495q0 -88 51 -143q50 -57 137 -57t138 56t51 144v495h96z" />
    <glyph glyph-name="ubreve" unicode="&#x16d;" 
d="M395 625q-43 -38 -109 -38q-67 0 -109 39q-43 39 -45 107h69q1 -36 25 -60t60 -24t60 23.5t26 60.5h67q-1 -70 -44 -108zM417 0v52q-60 -60 -146 -60t-150 58q-65 57 -65 153l1 295h91v-286q0 -62 41 -100q40 -37 90 -37q96 0 138 83v340h91v-498h-91z" />
    <glyph glyph-name="Uring" unicode="&#x16e;" horiz-adv-x="711" 
d="M427 826q-30 -30 -72 -30q-43 0 -71 30q-30 28 -30 71q0 42 30 72q29 29 71 29q41 0 72 -29q29 -31 29 -72q0 -42 -29 -71zM311 897q0 -18 13 -31t32 -13q18 0 30.5 13t12.5 31t-13 31.5t-31 13.5t-31 -13.5t-13 -31.5zM640 773v-502q0 -123 -79 -203q-79 -81 -205 -81
t-205 81q-80 82 -80 203v502h96v-495q0 -88 51 -143q50 -57 137 -57t138 56t51 144v495h96z" />
    <glyph glyph-name="uring" unicode="&#x16f;" 
d="M417 0v52q-60 -60 -146 -60t-150 58q-65 57 -65 153l1 295h91v-286q0 -62 41 -100q40 -37 90 -37q96 0 138 83v340h91v-498h-91zM358 597q-30 -30 -72 -30t-71 30q-30 29 -30 71t30 72q29 29 71 29t72 -29q29 -30 29 -72t-29 -71zM242 668q0 -18 13 -31t32 -13
q18 0 30.5 13t12.5 31t-13 31.5t-31 13.5t-31 -13.5t-13 -31.5z" />
    <glyph glyph-name="Uhungarumlaut" unicode="&#x170;" horiz-adv-x="711" 
d="M284 825h-48v11l66 116h79v-11zM454 825h-49v12l77 115h80v-11zM640 773v-502q0 -123 -79 -203q-79 -81 -205 -81t-205 81q-80 82 -80 203v502h96v-495q0 -88 51 -143q50 -57 137 -57t138 56t51 144v495h96z" />
    <glyph glyph-name="uhungarumlaut" unicode="&#x171;" 
d="M417 0v52q-60 -60 -146 -60t-150 58q-65 57 -65 153l1 295h91v-286q0 -62 41 -100q40 -37 90 -37q96 0 138 83v340h91v-498h-91zM393 576h-66l102 156h94zM224 576h-65l90 156h93z" />
    <glyph glyph-name="Uogonek" unicode="&#x172;" horiz-adv-x="711" 
d="M438 -111l17 -50q-29 -17 -80 -17t-83 23q-31 22 -31 68q0 45 41 75l2 1l2 1q-92 14 -156 78q-79 80 -79 203v502h96v-495q0 -88 51 -143q50 -57 137 -57t138 56t51 144v495h96v-502q0 -123 -79 -203q-57 -58 -138 -75q-88 -27 -88 -73q0 -41 53 -41q29 0 50 10z" />
    <glyph glyph-name="uogonek" unicode="&#x173;" 
d="M417 11v41q-60 -60 -146 -60t-150 58q-65 57 -65 153l1 295h91v-286q0 -62 41 -100q40 -37 90 -37q96 0 138 83v340h91v-498q-111 -28 -111 -81q0 -40 54 -40q28 0 49 10l17 -50q-29 -17 -79 -17q-52 0 -81 22q-30 22 -30 61q0 73 90 106z" />
    <glyph glyph-name="Wcircumflex" unicode="&#x174;" horiz-adv-x="1105" 
d="M487 830h-81l115 124h61l115 -124h-80l-66 64zM344 0h-82l-254 773h100l198 -611l197 611h101l192 -617l207 617h94l-262 -773h-83l-199 632z" />
    <glyph glyph-name="wcircumflex" unicode="&#x175;" horiz-adv-x="820" 
d="M326 581h-81l135 154h61l135 -154h-80l-86 94zM272 0h-89l-182 498h95l136 -378l132 378h89l133 -385l142 385h91l-188 -498h-93l-131 374z" />
    <glyph glyph-name="Ycircumflex" unicode="&#x176;" horiz-adv-x="609" 
d="M242 830h-81l115 124h61l115 -124h-80l-66 64zM308 405l199 368h104l-257 -464v-309h-96v306l-260 467h108z" />
    <glyph glyph-name="ycircumflex" unicode="&#x177;" horiz-adv-x="505" 
d="M168 581h-81l135 154h61l135 -154h-80l-86 94zM206 5l-208 493h102l153 -379l159 379h96l-289 -676h-90z" />
    <glyph glyph-name="Ydieresis" unicode="&#x178;" horiz-adv-x="609" 
d="M455 857q-16 -15 -38 -15t-37 15t-15 37t15 37t37 15t38 -15q15 -15 15 -37t-15 -37zM232 857q-15 -15 -37 -15t-37 15t-15 37t15 37t37 15t37 -15t15 -37t-15 -37zM308 405l199 368h104l-257 -464v-309h-96v306l-260 467h108z" />
    <glyph glyph-name="Zacute" unicode="&#x179;" horiz-adv-x="618" 
d="M335 825h-60v17l93 112h99v-12zM583 0h-556v57l438 630h-416v86h542v-63l-435 -624h427v-86z" />
    <glyph glyph-name="zacute" unicode="&#x17a;" horiz-adv-x="477" 
d="M251 576h-60v17l113 142h101v-12zM462 0h-451l285 415h-265v83h430l-288 -415h289v-83z" />
    <glyph glyph-name="Zdotaccent" unicode="&#x17b;" horiz-adv-x="618" 
d="M374 896q0 -24 -17 -41t-40 -17q-24 0 -40 16.5t-16 40.5t16 40.5t40 16.5q23 0 40 -16.5t17 -39.5zM583 0h-556v57l438 630h-416v86h542v-63l-435 -624h427v-86z" />
    <glyph glyph-name="zdotaccent" unicode="&#x17c;" horiz-adv-x="477" 
d="M290 690q0 -24 -17 -41t-40 -17q-24 0 -40 16.5t-16 40.5t16 40.5t40 16.5q23 0 40 -16.5t17 -39.5zM462 0h-451l285 415h-265v83h430l-288 -415h289v-83z" />
    <glyph glyph-name="Zcaron" unicode="&#x17d;" horiz-adv-x="618" 
d="M347 830h-61l-115 124h81l65 -67l65 67h80zM583 0h-556v57l438 630h-416v86h542v-63l-435 -624h427v-86z" />
    <glyph glyph-name="zcaron" unicode="&#x17e;" horiz-adv-x="477" 
d="M263 581h-61l-135 154h81l85 -95l85 95h80zM462 0h-451l285 415h-265v83h430l-288 -415h289v-83z" />
    <glyph glyph-name="longs" unicode="&#x17f;" horiz-adv-x="247" 
d="M158 0h-89v612q0 78 47 122q48 44 124 45q76 0 120 -44l-45 -63q-25 25 -69 25t-66 -24q-22 -23 -22 -67v-606z" />
    <glyph glyph-name="florin" unicode="&#x192;" horiz-adv-x="387" 
d="M142 416h-78v82h78v117q0 77 45.5 120.5t121.5 43.5q75 0 122 -41l-43 -66q-31 26 -72 26q-42 0 -64 -24q-22 -23 -22 -68v-108h88v-82h-88v-425q0 -85 -42 -128.5t-122 -43.5t-126 42l43 66q29 -27 78 -27q81 0 81 101v415z" />
    <glyph glyph-name="Ohorn" unicode="&#x1a0;" horiz-adv-x="885" 
d="M864 780v-34q0 -113 -80 -148q60 -96 60 -211q0 -166 -117 -283q-118 -118 -284 -118q-167 0 -284 118q-118 117 -118 283t118 284q117 117 283 117q89 0 169 -38t138 -105q49 22 49 84v51h66zM227 169q89 -90 215 -90q128 0 216 90q89 91 89 218t-89 218q-88 90 -216 90
q-126 0 -215 -90q-89 -91 -89 -218t89 -218z" />
    <glyph glyph-name="ohorn" unicode="&#x1a1;" horiz-adv-x="632" 
d="M632 519v-34q0 -119 -90 -152q14 -42 14 -83q0 -106 -74 -183q-75 -76 -190 -76q-116 0 -189 76q-74 77 -74 183t75 183q75 75 188 75q71 0 130.5 -33t95.5 -90q48 19 48 83v51h66zM120 251q0 -72 50 -122q50 -51 123 -51t123 51q49 49 49 122q0 72 -49 121
q-50 48 -124 48t-123 -48q-49 -49 -49 -121z" />
    <glyph glyph-name="Uhorn" unicode="&#x1af;" horiz-adv-x="758" 
d="M640 575v-304q0 -123 -79 -203q-79 -81 -205 -81t-205 81q-80 82 -80 203v502h96v-495q0 -88 51 -143q50 -57 137 -57t138 56t51 144v495h96v-139q53 20 53 85v51h66v-34q0 -83 -41 -122q-32 -30 -78 -39z" />
    <glyph glyph-name="uhorn" unicode="&#x1b0;" horiz-adv-x="643" 
d="M417 0v52q-60 -60 -146 -60t-150 58q-65 57 -65 153l1 295h91v-286q0 -62 41 -100q40 -37 90 -37q96 0 138 83v340h91v-131q32 8 48 25q22 22 22 65v51h66v-34q0 -83 -38 -119q-38 -35 -98 -44v-311h-91z" />
    <glyph glyph-name="uni01CF" unicode="&#x1cf;" horiz-adv-x="275" 
d="M169 830h-61l-115 124h81l65 -67l65 67h80zM185 0h-96v773h96v-773z" />
    <glyph glyph-name="uni01D0" unicode="&#x1d0;" horiz-adv-x="230" 
d="M142 581h-53l-118 154h71l73 -95l74 95h70zM160 0h-91v498h91v-498z" />
    <glyph glyph-name="Aringacute" unicode="&#x1fa;" horiz-adv-x="712" 
d="M389 1022h-60v17l93 112h99v-12zM430 826q-30 -30 -72 -30t-71 30q-30 28 -30 71q0 42 30 72q29 29 71 29q41 0 72 -29q29 -31 29 -72q0 -42 -29 -71zM314 897q0 -18 13 -31t32 -13q18 0 30.5 13t12.5 31t-13 31.5t-31 13.5t-31 -13.5t-13 -31.5zM103 0h-100l316 773h78
l312 -773h-102l-52 128h-400zM521 213l-164 407l-167 -407h331z" />
    <glyph glyph-name="aringacute" unicode="&#x1fb;" horiz-adv-x="561" 
d="M316 764h-60v17l93 112h99v-12zM355 566q-30 -30 -72 -30q-43 0 -71 30q-30 28 -30 71q0 42 30 72q29 29 71 29q41 0 72 -29q29 -31 29 -72q0 -42 -29 -71zM239 637q0 -18 13 -31t32 -13q18 0 30.5 13t12.5 31t-13 31.5t-31 13.5t-31 -13.5t-13 -31.5zM414 0v42
q-64 -54 -162 -54q-100 0 -161 46q-63 45 -63 119q0 73 64 122t165 49q40 0 84.5 -13.5t72.5 -32.5v38q0 51 -48 78q-50 27 -105 27q-98 0 -159 -52l-44 69q91 67 204 67q132 -2 202 -83q38 -44 38 -106v-316h-88zM256 63q91 0 158 59v73q-29 24 -71 39.5t-82 15.5
q-70 0 -110 -26t-40 -68q0 -41 40 -67t105 -26z" />
    <glyph glyph-name="AEacute" unicode="&#x1fc;" horiz-adv-x="889" 
d="M612 825h-60v17l93 112h99v-12zM842 0h-427v244h-201l-110 -244h-106l358 773h483v-87h-328v-251h313v-87h-313v-262h331v-86zM415 686h-2l-161 -357h163v357z" />
    <glyph glyph-name="aeacute" unicode="&#x1fd;" horiz-adv-x="948" 
d="M486 576h-60v17l113 142h101v-12zM924 267l1 -32h-424q1 -69 52 -116q50 -47 126 -47q48 0 82.5 13t73.5 45l52 -56q-48 -45 -95.5 -64t-112.5 -19q-134 0 -208 92q-90 -95 -220 -95q-97 0 -160 45t-63 120q0 74 64 123q64 48 165 48q39 0 83.5 -13.5t73.5 -34.5v40
q0 51 -48 78q-50 27 -105 27q-98 0 -159 -52l-44 69q91 67 204 67q64 0 120 -23t88 -65q73 88 197 88q109 0 180 -67q71 -68 77 -171zM508 307h321q-13 54 -56.5 87t-107.5 33q-125 0 -157 -120zM256 63q106 0 178 79q-12 31 -15 49q-29 25 -72.5 42t-85.5 17
q-70 0 -110 -27t-40 -68q0 -40 40 -66t105 -26z" />
    <glyph glyph-name="Oslashacute" unicode="&#x1fe;" horiz-adv-x="885" 
d="M452 851h-60v17l93 112h99v-12zM844 387q0 -166 -117 -283q-118 -118 -285 -118q-116 0 -207 57l-74 -103l-64 44l76 105l-15 15q-117 117 -117 283t118 284q117 117 283 117q110 0 199 -51l65 90l64 -43l-66 -92l6.5 -6.5t8.5 -8t7 -7.5q118 -117 118 -283zM229 167
l356 493q-65 35 -143 35q-126 0 -215 -90q-89 -91 -89 -218q0 -129 88 -218q0 -1 1 -1t2 -1zM442 79q128 0 216 90q89 91 89 218t-89 218l-10 10l-358 -496q67 -40 152 -40z" />
    <glyph glyph-name="oslashacute" unicode="&#x1ff;" horiz-adv-x="585" 
d="M292 -9q-54 0 -107 21l-74 -117l-54 32l73 116q-48 36 -74.5 90.5t-26.5 116.5q0 106 75 183q75 75 188 75q62 0 117 -26l82 129l55 -34l-83 -129q93 -77 93 -191q0 -113 -74 -190q-75 -76 -190 -76zM292 420q-74 0 -123 -48q-49 -49 -49 -126t59 -127l182 288
q-33 13 -69 13zM292 78q74 0 124 51q49 49 49 122q0 71 -50 121l-181 -285q27 -9 58 -9zM310 576h-60v17l113 142h101v-12z" />
    <glyph glyph-name="uni0218" unicode="&#x218;" horiz-adv-x="585" 
d="M290 -9q-75 0 -146.5 31.5t-120.5 85.5l65 71q38 -45 94.5 -72.5t117.5 -27.5q64 0 106 36t42 92q0 93 -111 138l-93 37q-85 33 -125 81q-41 50 -41 127q0 78 63 136q62 58 156 58q133 0 222 -85l-58 -73q-69 69 -164 69q-57 0 -91 -30q-36 -30 -36 -73t24.5 -70.5
t84.5 -51.5l96 -39q167 -68 167 -218q0 -99 -69 -160q-70 -62 -183 -62zM325 -52l-75 -144l-57 19l56 147z" />
    <glyph glyph-name="uni0219" unicode="&#x219;" horiz-adv-x="509" 
d="M265 -12q-134 0 -249 67l46 73q94 -61 205 -61q62 0 99 20.5t37 53.5q0 48 -77 63l-142 27q-137 27 -137 135q0 65 55.5 104t163.5 39q111 0 197 -56l-43 -71q-82 48 -164 48q-55 0 -89 -16t-34 -41q0 -26 16 -39q13 -11 50 -19l132 -23q159 -32 159 -146q0 -72 -64 -115
t-161 -43zM311 -52l-75 -144l-57 19l56 147z" />
    <glyph glyph-name="uni0226" unicode="&#x226;" horiz-adv-x="712" 
d="M415 939q0 -24 -17 -41t-40 -17q-24 0 -40 16.5t-16 40.5t16 40.5t40 16.5q23 0 40 -16.5t17 -39.5zM103 0h-100l316 773h78l312 -773h-102l-52 128h-400zM521 213l-164 407l-167 -407h331z" />
    <glyph glyph-name="uni0227" unicode="&#x227;" horiz-adv-x="560" 
d="M331 690q0 -24 -17 -41t-40 -17q-24 0 -40 16.5t-16 40.5t16 40.5t40 16.5q23 0 40 -16.5t17 -39.5zM414 0v42q-64 -54 -162 -54q-100 0 -161 46q-63 45 -63 119q0 73 64 122t165 49q40 0 84.5 -13.5t72.5 -32.5v38q0 51 -48 78q-50 27 -105 27q-98 0 -159 -52l-44 69
q91 67 204 67q132 -2 202 -83q38 -44 38 -106v-316h-88zM256 63q91 0 158 59v73q-29 24 -71 39.5t-82 15.5q-70 0 -110 -26t-40 -68q0 -41 40 -67t105 -26z" />
    <glyph glyph-name="uni0237" unicode="&#x237;" horiz-adv-x="230" 
d="M-12 -184l-1 76q82 3 82 103v503h91v-498q0 -89 -44.5 -135.5t-127.5 -48.5z" />
    <glyph glyph-name="uni02BC" unicode="&#x2bc;" horiz-adv-x="180" 
d="M86 550l-60 6l16 228l86 3z" />
    <glyph glyph-name="circumflex" unicode="&#x2c6;" horiz-adv-x="423" 
d="M127 581h-81l135 154h61l135 -154h-80l-86 94z" />
    <glyph glyph-name="caron" unicode="&#x2c7;" horiz-adv-x="423" 
d="M242 581h-61l-135 154h81l85 -95l85 95h80z" />
    <glyph glyph-name="breve" unicode="&#x2d8;" horiz-adv-x="472" 
d="M345 625q-43 -38 -109 -38q-67 0 -109 39q-43 39 -45 107h69q1 -36 25 -60t60 -24t60 23.5t26 60.5h67q-1 -70 -44 -108z" />
    <glyph glyph-name="dotaccent" unicode="&#x2d9;" horiz-adv-x="179" 
d="M146 690q0 -24 -17 -41t-40 -17q-24 0 -40 16.5t-16 40.5t16 40.5t40 16.5q23 0 40 -16.5t17 -39.5z" />
    <glyph glyph-name="ring" unicode="&#x2da;" horiz-adv-x="341" 
d="M242 597q-30 -30 -72 -30t-71 30q-30 29 -30 71t30 72q29 29 71 29q41 0 72 -29q29 -31 29 -72q0 -42 -29 -71zM126 668q0 -18 13 -31t32 -13q18 0 30.5 13t12.5 31t-13 31.5t-31 13.5t-31 -13.5t-13 -31.5z" />
    <glyph glyph-name="ogonek" unicode="&#x2db;" horiz-adv-x="265" 
d="M211 -111l17 -50q-29 -17 -80 -17t-83 23q-31 22 -31 68q0 45 42 75q40 29 99 40l45 -28q-112 -28 -112 -80q0 -41 53 -41q29 0 50 10z" />
    <glyph glyph-name="tilde" unicode="&#x2dc;" horiz-adv-x="433" 
d="M332 707l55 -10q0 -43 -27 -71.5t-66 -28.5t-86 26t-66 26q-20 0 -31 -12q-12 -13 -13 -31l-52 9q0 44 26.5 72.5t65.5 28.5q38 0 86 -27q46 -27 66 -27q38 0 42 45z" />
    <glyph glyph-name="hungarumlaut" unicode="&#x2dd;" horiz-adv-x="444" 
d="M105 576h-65l90 156h93zM274 576h-66l102 156h94z" />
    <glyph glyph-name="uni0394" unicode="&#x394;" horiz-adv-x="731" 
d="M719 0h-708l318 773h77zM366 626l-224 -539h445z" />
    <glyph glyph-name="uni0394" unicode="&#x2206;" horiz-adv-x="731" 
d="M719 0h-708l318 773h77zM366 626l-224 -539h445z" />
    <glyph glyph-name="uni03A9" unicode="&#x3a9;" horiz-adv-x="895" 
d="M850 0h-292v88q54 25 116 90q35 37 56.5 93t21.5 118q0 127 -89 218q-89 89 -216 89t-216 -89q-89 -91 -89 -219q0 -140 102 -236q49 -45 93 -65v-87h-292v83h156q-156 108 -156 306q0 166 118 283q118 116 284 116q165 0 284 -116q117 -117 117 -283q0 -193 -158 -306
h160v-83z" />
    <glyph glyph-name="uni03A9" unicode="&#x2126;" horiz-adv-x="895" 
d="M850 0h-292v88q54 25 116 90q35 37 56.5 93t21.5 118q0 127 -89 218q-89 89 -216 89t-216 -89q-89 -91 -89 -219q0 -140 102 -236q49 -45 93 -65v-87h-292v83h156q-156 108 -156 306q0 166 118 283q118 116 284 116q165 0 284 -116q117 -117 117 -283q0 -193 -158 -306
h160v-83z" />
    <glyph glyph-name="pi" unicode="&#x3c0;" horiz-adv-x="666" 
d="M539 -8q-73 0 -105 36.5t-32 122.5v261h-171v-412h-88v412h-117v86h591v-86h-126v-258q0 -46 15.5 -65.5t46.5 -19.5t51 10l18 -72q-38 -15 -83 -15z" />
    <glyph glyph-name="Wgrave" unicode="&#x1e80;" horiz-adv-x="1105" 
d="M602 825h-71l-127 116l-1 13h95l104 -117v-12zM344 0h-82l-254 773h100l198 -611l197 611h101l192 -617l207 617h94l-262 -773h-83l-199 632z" />
    <glyph glyph-name="wgrave" unicode="&#x1e81;" horiz-adv-x="820" 
d="M461 576h-71l-149 146l-1 13h97l124 -147v-12zM272 0h-89l-182 498h95l136 -378l132 378h89l133 -385l142 385h91l-188 -498h-93l-131 374z" />
    <glyph glyph-name="Wacute" unicode="&#x1e82;" horiz-adv-x="1105" 
d="M569 825h-60v17l93 112h99v-12zM344 0h-82l-254 773h100l198 -611l197 611h101l192 -617l207 617h94l-262 -773h-83l-199 632z" />
    <glyph glyph-name="wacute" unicode="&#x1e83;" horiz-adv-x="820" 
d="M428 576h-60v17l113 142h101v-12zM272 0h-89l-182 498h95l136 -378l132 378h89l133 -385l142 385h91l-188 -498h-93l-131 374z" />
    <glyph glyph-name="Wdieresis" unicode="&#x1e84;" horiz-adv-x="1105" 
d="M700 857q-16 -15 -38 -15t-37 15t-15 37t15 37t37 15t38 -15q15 -15 15 -37t-15 -37zM477 857q-15 -15 -37 -15t-37 15t-15 37t15 37t37 15t37 -15t15 -37t-15 -37zM344 0h-82l-254 773h100l198 -611l197 611h101l192 -617l207 617h94l-262 -773h-83l-199 632z" />
    <glyph glyph-name="wdieresis" unicode="&#x1e85;" horiz-adv-x="820" 
d="M559 626q-16 -15 -38 -15t-37 15t-15 37t15 37t37 15t38 -15q15 -15 15 -37t-15 -37zM336 626q-15 -15 -37 -15t-37 15t-15 37t15 37t37 15t37 -15t15 -37t-15 -37zM272 0h-89l-182 498h95l136 -378l132 378h89l133 -385l142 385h91l-188 -498h-93l-131 374z" />
    <glyph glyph-name="uni1EA0" unicode="&#x1ea0;" horiz-adv-x="712" 
d="M103 0h-100l316 773h78l312 -773h-102l-52 128h-400zM521 213l-164 407l-167 -407h331zM397 -172q-17 -16 -40 -16t-40 16t-17 38t17 37q17 16 40 16t40 -16q17 -15 17 -37t-17 -38z" />
    <glyph glyph-name="uni1EA1" unicode="&#x1ea1;" horiz-adv-x="560" 
d="M414 0v42q-64 -54 -162 -54q-100 0 -161 46q-63 45 -63 119q0 73 64 122t165 49q40 0 84.5 -13.5t72.5 -32.5v38q0 51 -48 78q-50 27 -105 27q-98 0 -159 -52l-44 69q91 67 204 67q132 -2 202 -83q38 -44 38 -106v-316h-88zM256 63q91 0 158 59v73q-29 24 -71 39.5
t-82 15.5q-70 0 -110 -26t-40 -68q0 -41 40 -67t105 -26zM306 -172q-17 -16 -40 -16t-40 16t-17 38t17 37q17 16 40 16t40 -16q17 -15 17 -37t-17 -38z" />
    <glyph glyph-name="uni1ECC" unicode="&#x1ecc;" horiz-adv-x="885" 
d="M844 387q0 -166 -117 -283q-118 -118 -284 -118q-167 0 -284 118q-118 117 -118 283t118 284q117 117 284 117q165 0 284 -117q117 -119 117 -284zM227 169q89 -90 215 -90q128 0 216 90q89 91 89 218t-89 218q-88 90 -216 90q-126 0 -215 -90q-89 -91 -89 -218t89 -218z
M482 -172q-17 -16 -40 -16t-40 16t-17 38t17 37q17 16 40 16t40 -16q17 -15 17 -37t-17 -38z" />
    <glyph glyph-name="uni1ECD" unicode="&#x1ecd;" horiz-adv-x="585" 
d="M482 67q-75 -76 -190 -76q-116 0 -189 76q-74 77 -74 183t75 183q75 75 188 75q112 0 189 -75q75 -77 75 -183t-74 -183zM120 251q0 -72 50 -122q50 -51 123 -51t123 51q49 49 49 122q0 72 -49 121q-50 48 -124 48t-123 -48q-49 -49 -49 -121zM333 -172q-17 -16 -40 -16
t-40 16t-17 38t17 37q17 16 40 16t40 -16q17 -15 17 -37t-17 -38z" />
    <glyph glyph-name="uni1EE4" unicode="&#x1ee4;" horiz-adv-x="711" 
d="M640 773v-502q0 -123 -79 -203q-79 -81 -205 -81t-205 81q-80 82 -80 203v502h96v-495q0 -88 51 -143q50 -57 137 -57t138 56t51 144v495h96zM395 -172q-17 -16 -40 -16t-40 16t-17 38t17 37q17 16 40 16t40 -16q17 -15 17 -37t-17 -38z" />
    <glyph glyph-name="uni1EE5" unicode="&#x1ee5;" 
d="M417 0v52q-60 -60 -146 -60t-150 58q-65 57 -65 153l1 295h91v-286q0 -62 41 -100q40 -37 90 -37q96 0 138 83v340h91v-498h-91zM328 -172q-17 -16 -40 -16t-40 16t-17 38t17 37q17 16 40 16t40 -16q17 -15 17 -37t-17 -38z" />
    <glyph glyph-name="Ygrave" unicode="&#x1ef2;" horiz-adv-x="609" 
d="M357 825h-71l-127 116l-1 13h95l104 -117v-12zM308 405l199 368h104l-257 -464v-309h-96v306l-260 467h108z" />
    <glyph glyph-name="ygrave" unicode="&#x1ef3;" horiz-adv-x="505" 
d="M304 576h-71l-149 146l-1 13h97l124 -147v-12zM206 5l-208 493h102l153 -379l159 379h96l-289 -676h-90z" />
    <glyph glyph-name="uni2009" unicode="&#x2009;" horiz-adv-x="130" 
 />
    <glyph glyph-name="endash" unicode="&#x2013;" horiz-adv-x="617" 
d="M567 267h-517v82h517v-82z" />
    <glyph glyph-name="emdash" unicode="&#x2014;" horiz-adv-x="935" 
d="M917 267h-900v82h900v-82z" />
    <glyph glyph-name="quoteleft" unicode="&#x2018;" horiz-adv-x="249" 
d="M216 780l-90 -239l-83 30l116 230z" />
    <glyph glyph-name="quoteright" unicode="&#x2019;" horiz-adv-x="252" 
d="M209 771l-116 -230l-57 21l90 239z" />
    <glyph glyph-name="quotesinglbase" unicode="&#x201a;" horiz-adv-x="259" 
d="M215 61l-116 -230l-57 21l90 239z" />
    <glyph glyph-name="quotedblleft" unicode="&#x201c;" horiz-adv-x="445" 
d="M216 780l-90 -239l-83 30l116 230zM402 780l-90 -239l-83 30l116 230z" />
    <glyph glyph-name="quotedblright" unicode="&#x201d;" horiz-adv-x="445" 
d="M215 771l-116 -230l-57 21l90 239zM401 771l-116 -230l-57 21l90 239z" />
    <glyph glyph-name="quotedblbase" unicode="&#x201e;" horiz-adv-x="445" 
d="M215 61l-116 -230l-57 21l90 239zM401 61l-116 -230l-57 21l90 239z" />
    <glyph glyph-name="dagger" unicode="&#x2020;" horiz-adv-x="583" 
d="M247 423h-213v82h213v275h90v-275h214v-82h-214v-601h-90v601z" />
    <glyph glyph-name="daggerdbl" unicode="&#x2021;" horiz-adv-x="603" 
d="M257 466h-213v82h213v232h90v-232h214v-82h-214v-342h214v-82h-214v-220h-90v220h-213v82h213v342z" />
    <glyph glyph-name="bullet" unicode="&#x2022;" horiz-adv-x="278" 
d="M244 268q0 -44 -30 -75q-31 -31 -74 -31q-44 0 -74 31q-31 30 -31 74t31 74q30 30 74 30q42 0 74 -30q30 -30 30 -73z" />
    <glyph glyph-name="ellipsis" unicode="&#x2026;" horiz-adv-x="648" 
d="M157 46q0 -24 -17 -40.5t-40 -16.5q-24 0 -40.5 16.5t-16.5 40.5t16.5 40.5t40.5 16.5q23 0 40 -16.5t17 -40.5zM381 46q0 -24 -17 -40.5t-40 -16.5q-24 0 -40.5 16.5t-16.5 40.5t16.5 40.5t40.5 16.5q23 0 40 -16.5t17 -40.5zM605 46q0 -24 -17 -40.5t-40 -16.5
q-24 0 -40.5 16.5t-16.5 40.5t16.5 40.5t40.5 16.5q23 0 40 -16.5t17 -40.5z" />
    <glyph glyph-name="perthousand" unicode="&#x2030;" horiz-adv-x="1284" 
d="M80 543l-1 36l1 38q2 68 45 116q42 47 109 47q65 0 109 -47q43 -47 44 -116q1 -5 1 -35q0 -33 -1 -40q-1 -70 -44 -117q-44 -47 -111 -47q-68 0 -109 47q-42 48 -43 118zM249 0h-85l505 773h85zM233 444q86 0 86 136q0 134 -85 134t-85 -135t84 -135zM532 158l-1 36l1 38
q2 68 45 116q42 47 109 47q65 0 109 -47q43 -47 44 -116q1 -5 1 -35q0 -33 -1 -40q-1 -70 -44 -117q-44 -47 -111 -47q-68 0 -109 47q-42 48 -43 118zM906 158l-1 36l1 38q2 68 45 116q42 47 109 47q65 0 109 -47q43 -47 44 -116q1 -5 1 -35q0 -33 -1 -40q-1 -70 -44 -117
q-44 -47 -111 -47q-68 0 -109 47q-42 48 -43 118zM685 59q86 0 86 136q0 134 -85 134t-85 -135t84 -135zM1059 59q86 0 86 136q0 134 -85 134t-85 -135t84 -135z" />
    <glyph glyph-name="guilsinglleft" unicode="&#x2039;" horiz-adv-x="269" 
d="M233 76h-77l-125 183v18l126 183h76l-121 -192z" />
    <glyph glyph-name="guilsinglright" unicode="&#x203a;" horiz-adv-x="269" 
d="M112 76h-75l121 190l-122 194h77l125 -183v-18z" />
    <glyph glyph-name="fraction" unicode="&#x2044;" horiz-adv-x="262" 
d="M-79 0h-85l505 773h85z" />
    <glyph glyph-name="fraction" unicode="&#x2215;" horiz-adv-x="262" 
d="M-79 0h-85l505 773h85z" />
    <glyph glyph-name="uni2082" unicode="&#x2082;" horiz-adv-x="374" 
d="M338 1h-298v53l185 165q48 45 30.5 87t-68.5 42q-33 0 -54.5 -22.5t-21.5 -56.5h-73q0 65 42 108q42 42 108 42t108 -39q41 -41 41 -99q0 -59 -65 -113l-114 -99h180v-68z" />
    <glyph glyph-name="uni2084" unicode="&#x2084;" horiz-adv-x="380" 
d="M231 87h-206v56l165 271h81l-161 -262h121v80h70v-80h46v-65h-46v-86h-70v86z" />
    <glyph glyph-name="Euro" unicode="&#x20ac;" horiz-adv-x="740" 
d="M663 162l62 -60q-119 -116 -286 -116t-282 117q-115 115 -115 284q0 167 116 285q116 116 279 116t282 -111l-61 -62q-91 88 -214 88q-104 0 -181 -54q-78 -54 -111 -143h396l-41 -78h-374q-4 -55 0 -79h415l-41 -79h-356q33 -90 111 -144q77 -55 182 -55q127 0 219 91z
" />
    <glyph glyph-name="trademark" unicode="&#x2122;" horiz-adv-x="850" 
d="M476 400h-70v373h70l119 -188l119 188h73v-373h-70v248h-2l-120 -183l-117 181h-2v-246zM148 707h-122v66h315v-66h-122v-307h-71v307z" />
    <glyph glyph-name="estimated" unicode="&#x212e;" horiz-adv-x="816" 
d="M405 -15q-153 0 -254 89t-101 238t103 236t258 87t250 -91q96 -93 100 -244h-566q-14 0 -14 -16v-165q0 -33 66 -70q67 -38 147 -38q155 0 237 102h65q-120 -128 -291 -128zM629 342v166q0 39 -73 70q-72 31 -155 31t-151 -31q-69 -32 -69 -70v-166q0 -16 15 -16h416
q11 0 14 3.5t3 12.5z" />
    <glyph glyph-name="partialdiff" unicode="&#x2202;" horiz-adv-x="593" 
d="M560 247q0 -103 -77 -180q-78 -78 -187 -78t-186 77t-77 184q0 108 75 186q74 77 184 77q37 0 64 -7q-42 71 -88 144q-16 25 -44.5 70t-37.5 60h107q152 -243 226 -378q41 -76 41 -155zM124 253q0 -73 50 -126q49 -52 123 -52q73 0 122 52t49 126t-49 123q-50 50 -123 50
t-123 -50q-49 -49 -49 -123z" />
    <glyph glyph-name="product" unicode="&#x220f;" horiz-adv-x="642" 
d="M178 -178h-92v951h470v-951h-92v864h-286v-864z" />
    <glyph glyph-name="summation" unicode="&#x2211;" horiz-adv-x="579" 
d="M544 -95v-83h-504v78l299 400l-292 396v74h487v-82h-373l284 -384l-297 -399h396z" />
    <glyph glyph-name="minus" unicode="&#x2212;" horiz-adv-x="550" 
d="M497 313h-444v80h444v-80z" />
    <glyph glyph-name="radical" unicode="&#x221a;" horiz-adv-x="685" 
d="M375 0h-88l-162 388h-99v93h161l99 -242l46 -122h2q18 54 44 121l216 542h105z" />
    <glyph glyph-name="infinity" unicode="&#x221e;" horiz-adv-x="871" 
d="M251 181q-85 0 -143 60q-59 61 -59 147q0 85 59 146q58 60 143 60q117 0 186 -119q74 119 185 119q83 0 141 -61t58 -146q0 -86 -58 -145q-58 -61 -141 -61q-117 0 -187 123q-72 -123 -184 -123zM705 477q-36 36 -87 36q-50 0 -88 -33q-37 -34 -56 -89l2 -4
q44 -125 142 -125q50 0 86 37q36 38 36 89t-35 89zM252 262q97 0 142 125q2 2 2 7q-17 50 -56 85q-40 34 -89 34q-51 0 -85 -36q-35 -38 -35 -89t36 -89q34 -37 85 -37z" />
    <glyph glyph-name="integral" unicode="&#x222b;" horiz-adv-x="305" 
d="M197 606v-615q0 -85 -42 -128.5t-122 -43.5q-81 0 -126 42l43 66q28 -27 78 -27q81 0 81 101v614q0 77 45.5 120.5t121.5 43.5q75 0 122 -41l-43 -66q-31 26 -72 26t-64 -24q-22 -23 -22 -68z" />
    <glyph glyph-name="approxequal" unicode="&#x2248;" horiz-adv-x="522" 
d="M359 314q-61 0 -110 43q-49 42 -90 42q-25 0 -42.5 -19t-21.5 -54l-62 11q4 55 38 96q31 40 89 40q54 0 107 -42q52 -43 93 -43q55 0 66 74l63 -12q-4 -59 -38.5 -97.5t-91.5 -38.5zM359 129q-61 0 -110 43q-49 42 -90 42q-25 0 -42.5 -19t-21.5 -54l-62 11q4 55 38 96
q31 40 89 40q54 0 107 -42q52 -43 93 -43q55 0 66 74l63 -12q-4 -59 -38.5 -97.5t-91.5 -38.5z" />
    <glyph glyph-name="notequal" unicode="&#x2260;" horiz-adv-x="583" 
d="M263 421h-190v80h219l60 161h81l-60 -161h138v-80h-167l-42 -113h209v-81h-239l-58 -159h-82l59 159h-118v81h148z" />
    <glyph glyph-name="lozenge" unicode="&#x25ca;" horiz-adv-x="576" 
d="M311 0h-52l-216 392l218 381h55l217 -382zM285 648l-141 -258l141 -264l147 263z" />
    <glyph glyph-name="uniF6C3" unicode="&#xf6c3;" horiz-adv-x="198" 
d="M109 585l-76 21l74 145l58 -20z" />
    <glyph glyph-name="CR" horiz-adv-x="200" 
 />
    <glyph glyph-name="zero.plf" horiz-adv-x="596" 
d="M541 469v-7l2 -78v-33l-2 -119q-2 -107 -71 -174q-71 -68 -172 -68t-172 68q-69 67 -71 174q-2 80 -2 119l2 118q1 103 72 174q70 70 171 70t171 -70q71 -71 72 -174zM143 351l3 -118q2 -67 44 -111q44 -45 108 -45q65 0 108 46q43 45 45 110q3 59 3 118l-3 119
q-2 64 -45 110q-45 46 -108 46q-64 0 -107 -46q-44 -47 -45 -110q-3 -63 -3 -119z" />
    <glyph glyph-name="one.plf" horiz-adv-x="340" 
d="M270 0h-87v594l-155 -88v94l192 109h50v-709z" />
    <glyph glyph-name="two.plf" horiz-adv-x="519" 
d="M487 0h-456v62l295 295q60 61 60 123t-35 103q-36 41 -98 41t-100 -44q-38 -46 -38 -114h-89q0 105 65 176q64 70 163 70q98 0 160 -66q62 -67 62 -162q0 -97 -91 -188l-211 -213h313v-83z" />
    <glyph glyph-name="three.plf" horiz-adv-x="519" 
d="M481 196q0 -85 -65 -147t-162 -62q-96 0 -161 63q-65 62 -65 165h88q0 -62 38 -103t100 -41q63 0 101 37q38 36 38 90q0 52 -38 87q-38 34 -102 34h-32v79h28q59 0 95.5 32t36.5 82q0 48 -35 83q-34 34 -92 34q-56 0 -91 -35q-35 -37 -35 -100h-87q0 101 61 159
q62 59 152 59q91 0 153 -56q61 -55 61 -137q0 -107 -92 -157q47 -19 76 -63t29 -103z" />
    <glyph glyph-name="four.plf" horiz-adv-x="525" 
d="M343 146h-320v67l266 487h98l-254 -472h210v153h85v-153h77v-82h-77v-146h-85v146z" />
    <glyph glyph-name="five.plf" horiz-adv-x="550" 
d="M147 322h-85v378h418v-83h-332v-197q55 43 130 43q103 0 170 -67q68 -68 68 -167q-1 -17 -1 -51q0 -50 -69 -119t-164 -69q-93 0 -157 48.5t-89 131.5l86 26q15 -55 56 -87.5t100 -32.5q62 0 105 45q43 44 43 107t-43 107q-44 44 -109 44q-84 0 -127 -57z" />
    <glyph glyph-name="six.plf" horiz-adv-x="535" 
d="M503 224q0 -98 -70 -165q-71 -69 -166 -69q-97 0 -166 70q-70 69 -70 162q0 69 47 155l177 323h104l-141 -253q30 5 48 5q98 0 168 -66q69 -66 69 -162zM164 120q44 -44 103 -44q60 0 104 44q43 43 43 103q0 59 -43 102q-43 42 -100 42q-58 0 -104 -40t-46 -102t43 -105z
" />
    <glyph glyph-name="seven.plf" horiz-adv-x="466" 
d="M184 0h-97l257 613h-328v87h439v-52z" />
    <glyph glyph-name="eight.plf" horiz-adv-x="531" 
d="M486 199q0 -88 -64 -149q-65 -62 -157 -62t-156 62q-64 61 -64 149q0 51 26.5 94t72.5 70q-88 60 -88 148t62 145q62 56 148 56t148 -56q61 -55 61 -138q0 -98 -87 -156q46 -27 72 -70t26 -93zM354 597q-34 34 -88 34t-88 -34q-36 -35 -36 -81.5t36 -82.5t88 -36t88 36
q35 37 35 83t-35 81zM130 198q0 -52 39 -90q38 -38 97 -38q57 0 97 38q38 38 38 90q0 51 -38 89q-38 37 -97 37t-97 -37q-39 -38 -39 -89z" />
    <glyph glyph-name="nine.plf" horiz-adv-x="535" 
d="M31 477q0 96 71 165q71 68 167 68t165 -69q69 -71 69 -163q0 -72 -46 -155l-177 -323h-104l140 253q-22 -5 -48 -5q-98 0 -167 66q-70 66 -70 163zM371 581q-43 43 -103 43q-59 0 -103 -44t-44 -103t43 -101q43 -43 101 -43q57 0 103 40t46 102q0 63 -43 106z" />
    <glyph glyph-name="zero.sup" horiz-adv-x="412" 
d="M310 468q-41 -34 -104 -34t-103 34q-43 33 -53 90q-17 81 2 180q8 48 50 83q41 34 104 34t104 -34q42 -36 52 -91q7 -31 7 -88t-7 -84q-10 -56 -52 -90zM204 506q50 0 68.5 34t18.5 105q0 80 -20 109q-21 29 -69 29q-47 0 -64 -35q-17 -37 -17 -84q0 -49 3 -70
q1 -17 10 -43q17 -45 70 -45z" />
    <glyph glyph-name="one.sup" horiz-adv-x="242" 
d="M186 440h-75v321l-89 -44v74l125 65h39v-416z" />
    <glyph glyph-name="two.sup" horiz-adv-x="376" 
d="M336 440h-298v53l185 165q48 45 30.5 87t-68.5 42q-33 0 -54.5 -22.5t-21.5 -56.5h-73q0 64 42 108q42 42 108 42t108 -39q41 -41 41 -99q0 -59 -65 -113l-114 -99h180v-68z" />
    <glyph glyph-name="three.sup" horiz-adv-x="369" 
d="M287 471q-43 -37 -106 -37t-106 37t-43 98v3h72q0 -31 22 -50q20 -20 54 -20t54 18t20 43q0 27 -21 43q-19 16 -56 16h-30v57h23q76 0 76 55q0 25 -18 40.5t-48 15.5q-31 0 -50 -16t-19 -45h-72q0 58 41 94q41 35 100 35q61 0 101 -34t40 -89q0 -54 -52 -81
q60 -28 60 -95q0 -50 -42 -88z" />
    <glyph glyph-name="four.sup" horiz-adv-x="369" 
d="M225 526h-206v56l165 271h81l-161 -262h121v80h70v-80h46v-65h-46v-86h-70v86z" />
    <glyph glyph-name="five.sup" horiz-adv-x="391" 
d="M351 573q0 -61 -44 -100q-45 -39 -107 -39t-104 28.5t-56 77.5l71 22q19 -63 84 -63q35 0 58 21.5t23 52.5q0 30 -22 51t-63 21q-40 0 -63 -29h-72v237h277v-67h-204v-96q28 19 70 19q67 0 110 -38q42 -37 42 -98z" />
    <glyph glyph-name="six.sup" horiz-adv-x="375" 
d="M298 476q-45 -42 -111 -42t-111 42q-45 40 -45 99q0 41 32 96l109 182h89l-85 -139q3 1 11 1q68 0 112 -40q44 -41 44 -98q0 -59 -45 -101zM107 578q0 -32 22 -54t57 -22t58 21.5t23 52.5q0 30 -22.5 51.5t-55.5 21.5q-34 0 -58 -20.5t-24 -50.5z" />
    <glyph glyph-name="seven.sup" horiz-adv-x="320" 
d="M145 440h-82l156 342h-198v71h289v-48z" />
    <glyph glyph-name="eight.sup" horiz-adv-x="366" 
d="M286 472q-40 -37 -103 -37t-103 37t-40 92t52 91q-45 35 -45 84q0 50 39 86q40 35 98 35q57 0 97 -35q38 -35 38 -86t-45 -85q52 -33 52 -89t-40 -93zM248 738q0 25 -17.5 41.5t-46.5 16.5q-30 0 -47 -17q-27 -27 -13.5 -62.5t53.5 -36.5h6q29 0 47 16.5t18 41.5z
M112 564q0 -27 20 -45.5t52 -18.5t51 18t19 45t-19 44.5t-51 17.5q-33 0 -52.5 -17.5t-19.5 -43.5z" />
    <glyph glyph-name="nine.sup" horiz-adv-x="375" 
d="M31 717q0 59 45 101q46 41 112 41q65 0 111 -41q83 -79 13 -196l-109 -182h-89l84 138h-10q-68 0 -112 40q-45 40 -45 99zM267 715q0 32 -21.5 54t-56.5 22t-58.5 -21.5t-23.5 -52.5q0 -30 23 -51.5t56 -21.5t57 20.5t24 50.5z" />
    <glyph glyph-name="zero.tlf" horiz-adv-x="559" 
d="M513 544v-313q0 -107 -66 -174q-66 -68 -168 -68t-167 68q-66 68 -66 176v309q0 108 66 175q66 68 168 68t168 -67q65 -68 65 -174zM136 542v-310q0 -68 41 -112t103 -44q61 0 102 44t41 111v312q0 68 -41 112q-40 43 -103 43q-61 0 -102 -44t-41 -112z" />
    <glyph glyph-name="one.tlf" horiz-adv-x="559" 
d="M456 0h-310v82h112v577l-157 -85v91l204 114h42v-697h109v-82z" />
    <glyph glyph-name="ncircumflex" 
d="M522 0h-91v280q0 61 -40 99t-99 38q-85 0 -132 -74v-343h-91v498h91v-51q54 58 144 58t154 -57q64 -58 64 -155v-293zM211 581h-81l135 154h61l135 -154h-80l-86 94z" />
    <glyph glyph-name="i.TRK" horiz-adv-x="230" 
d="M160 0h-91v498h91v-498zM172 690q0 -24 -17 -41t-40 -17q-24 0 -40 16.5t-16 40.5t16 40.5t40 16.5q23 0 40 -16.5t17 -39.5z" />
    <glyph glyph-name="commabelow" horiz-adv-x="198" 
d="M165 -52l-75 -144l-57 19l56 147z" />
    <glyph glyph-name="dotbelow" horiz-adv-x="214" 
d="M147 -172q-17 -16 -40 -16t-40 16t-17 38t17 37q17 16 40 16t40 -16q17 -15 17 -37t-17 -38z" />
    <glyph glyph-name="circumflex.i" horiz-adv-x="325" 
d="M109 581h-76l95 154h67l97 -154h-75l-55 91z" />
    <glyph glyph-name="idot" horiz-adv-x="95" 
d="M171 690q0 -22 -16.5 -38t-39.5 -16q-24 0 -40.5 16t-16.5 38t16.5 37.5t40.5 15.5q23 0 39.5 -15.5t16.5 -37.5z" />
    <glyph glyph-name="dieresis.i" horiz-adv-x="343" 
d="M289 653q-16 -15 -38 -15t-36 15q-15 14 -15 36t15 38q14 15 36 15t38 -15q15 -16 15 -38t-15 -36zM129 653q-16 -15 -38 -15t-37 15q-15 14 -15 36t15 38q15 15 37 15t38 -15q15 -16 15 -38t-15 -36z" />
    <glyph glyph-name="a.sup" horiz-adv-x="393" 
d="M284 440v27q-44 -35 -109 -35q-67 0 -111 32t-44 83q0 52 46 85t108 33q60 0 107 -27v20q0 27 -17 44q-27 27 -86 27q-60 0 -104 -34l-35 57q64 46 140 46q74 0 126 -34t52 -101v-223h-73zM90 548q0 -25 25.5 -39.5t73.5 -14.5q49 0 92 34v43q-45 33 -93 33
q-50 0 -73 -16q-25 -16 -25 -40z" />
    <glyph glyph-name="b.sup" horiz-adv-x="422" 
d="M122 440h-79v532h79v-207q46 32 97 32q79 0 132 -53q52 -52 52 -128t-52 -128q-53 -54 -130 -54q-53 0 -99 32v-26zM216 724q-61 0 -94 -51v-115q32 -53 94 -53q45 0 77 32.5t32 78.5t-31 77t-78 31z" />
    <glyph glyph-name="c.sup" horiz-adv-x="333" 
d="M280 537l41 -61q-52 -42 -124 -42q-71 0 -124 54q-54 52 -54 129q0 75 54 129q52 54 125 54q71 0 126 -44l-44 -59q-32 28 -76.5 28t-73.5 -31q-31 -31 -31 -77q0 -45 30.5 -77t75.5 -32q43 0 75 29z" />
    <glyph glyph-name="d.sup" horiz-adv-x="425" 
d="M382 440h-78v29q-47 -35 -103 -35q-77 0 -130 53q-52 52 -52 129q0 76 53 129q52 52 130 52q58 0 102 -33v208h78v-532zM206 507q68 0 98 58v103q-31 58 -105 58q-37 0 -69 -32q-32 -34 -32 -79q0 -46 31 -77q30 -31 77 -31z" />
    <glyph glyph-name="e.sup" horiz-adv-x="398" 
d="M311 538l43 -45q-60 -60 -146 -60t-137 55q-52 53 -52 130q0 76 50 129q49 52 129 52q78 0 131 -48q52 -50 53 -122q1 -5 1 -23h-292q1 -46 34.5 -76.5t86.5 -30.5q52 0 99 39zM198 734q-80 0 -101 -72h204q-8 33 -35.5 52.5t-67.5 19.5z" />
    <glyph glyph-name="f.sup" horiz-adv-x="212" 
d="M60 726h-53v68h53v61q0 54 34 85.5t90 31.5q55 0 88 -30l-35 -53q-16 16 -45 16q-56 0 -56 -56v-55h60v-68h-60v-286h-76v286z" />
    <glyph glyph-name="g.sup" horiz-adv-x="426" 
d="M202 439q-82 0 -132 51q-50 50 -50 126q0 77 52 129t130 52q60 0 104 -36v33h77v-330q0 -66 -49 -105t-128 -39q-104 0 -174 53l35 55q62 -41 138 -41q101 0 101 79v12q-44 -39 -104 -39zM207 511q67 0 99 60v94q-28 61 -105 61q-39 0 -71 -32q-32 -30 -32 -76t31 -76
q31 -31 78 -31z" />
    <glyph glyph-name="h.sup" horiz-adv-x="401" 
d="M366 440h-78v198q0 38 -26.5 62.5t-66.5 24.5t-73 -43v-242h-79v532h79v-207q36 33 95 33q58 0 104 -41q45 -41 45 -110v-207z" />
    <glyph glyph-name="i.sup" horiz-adv-x="164" 
d="M129 910q0 -19 -13.5 -32t-32.5 -13q-20 0 -34 13t-14 32t14 31.5t34 12.5t33 -12.5t13 -31.5zM121 440h-78v354h78v-354z" />
    <glyph glyph-name="j.sup" horiz-adv-x="166" 
d="M131 910q0 -19 -13.5 -32t-33.5 -13t-33.5 13t-13.5 32t13.5 31.5t33.5 12.5t33.5 -12.5t13.5 -31.5zM-10 315v61q55 1 55 67v351h78v-345q0 -133 -133 -134z" />
    <glyph glyph-name="k.sup" horiz-adv-x="379" 
d="M122 643l147 151h95l-138 -140l148 -214h-92l-109 161l-51 -52v-109h-79v532h79v-329z" />
    <glyph glyph-name="l.sup" horiz-adv-x="167" 
d="M122 440h-79v532h79v-532z" />
    <glyph glyph-name="m.sup" horiz-adv-x="648" 
d="M367 440h-79v201q0 37 -26.5 60.5t-66.5 23.5t-73 -43v-242h-79v354h79v-31q38 35 92 35q80 0 125 -59q43 58 120 58q61 0 108 -39q46 -40 46 -106v-212h-78v201q0 36 -26.5 59.5t-62.5 23.5q-49 0 -81 -47q2 -22 2 -25v-212z" />
    <glyph glyph-name="n.sup" horiz-adv-x="402" 
d="M367 440h-79v201q0 37 -26.5 60.5t-66.5 23.5t-73 -43v-242h-79v354h79v-31q38 35 96 35t104 -40q45 -40 45 -106v-212z" />
    <glyph glyph-name="o.sup" horiz-adv-x="414" 
d="M129 540q31 -33 78 -33t78 33q31 31 31 79q0 46 -31 77t-78 31t-78 -31q-32 -32 -32 -77q0 -47 32 -79zM395 618q0 -75 -53 -130q-54 -55 -136 -55t-134 54q-53 55 -53 131t54 130q53 53 134 53q80 0 134 -54t54 -129z" />
    <glyph glyph-name="p.sup" horiz-adv-x="425" 
d="M224 434q-60 0 -103 31v-148h-78v477h78v-33q43 36 102 36q78 0 131 -53q52 -52 52 -128q0 -77 -52 -129q-53 -53 -130 -53zM219 724q-66 0 -98 -59v-99q13 -27 39 -44q25 -18 65.5 -16t70.5 32q32 32 32 78t-31 77t-78 31z" />
    <glyph glyph-name="q.sup" horiz-adv-x="416" 
d="M373 317h-78v144q-43 -27 -94 -27q-77 0 -130 53q-52 52 -52 129q0 75 53 128t130 53q53 0 93 -28v25h78v-477zM98 615q0 -47 31 -77.5t82 -30.5t84 43v132q-33 44 -83 44t-82 -32q-32 -34 -32 -79z" />
    <glyph glyph-name="r.sup" horiz-adv-x="307" 
d="M122 440h-79v354h79v-24q29 27 74 26t76 -32q32 -34 32 -81v-13h-71q0 24 -15.5 40t-37.5 16q-44 0 -58 -41v-245z" />
    <glyph glyph-name="s.sup" horiz-adv-x="370" 
d="M193 432q-98 0 -179 45l38 62q65 -42 142 -42q82 0 82 43q0 28 -49 38l-94 18q-100 21 -100 100q0 47 39 76.5t116 29.5q79 0 143 -38l-36 -59q-56 33 -115 33q-29 0 -50.5 -9.5t-21.5 -27.5q0 -27 39 -33l87 -16q117 -22 117 -105q0 -52 -45 -83.5t-113 -31.5z" />
    <glyph glyph-name="t.sup" horiz-adv-x="210" 
d="M65 726h-55v68h55v105l78 48v-153h56v-68h-56v-286h-78v286z" />
    <glyph glyph-name="u.sup" horiz-adv-x="402" 
d="M281 440v32q-40 -37 -99 -37q-60 0 -103 40q-44 41 -44 110v209h79v-204q0 -38 24.5 -61.5t61.5 -23.5q59 0 81 52v237h78v-354h-78z" />
    <glyph glyph-name="v.sup" horiz-adv-x="361" 
d="M219 440h-79l-143 354h85l99 -252l100 252h83z" />
    <glyph glyph-name="w.sup" horiz-adv-x="583" 
d="M453 440h-78l-86 249l-89 -249h-76l-126 354h81l88 -244l86 244h75l87 -251l93 251h77z" />
    <glyph glyph-name="x.sup" horiz-adv-x="364" 
d="M363 440h-94l-89 120l-87 -120h-92l130 178l-125 176h92l84 -117l86 117h90l-125 -176z" />
    <glyph glyph-name="y.sup" horiz-adv-x="371" 
d="M146 443l-148 351h88l100 -254l105 254h82l-204 -476h-75z" />
    <glyph glyph-name="z.sup" horiz-adv-x="346" 
d="M144 509h193v-69h-331l190 284h-173v70h314z" />
    <glyph glyph-name="percent.alt1" horiz-adv-x="960" 
d="M608 171q0 -44 30 -75t74 -31t74 30t30 75q0 44 -30.5 75t-73.5 31t-73.5 -30.5t-30.5 -74.5zM839 45q-53 -51 -128 -51q-76 0 -127 52q-51 51 -51 124t52 125q51 52 126 52t127 -52t52 -126q0 -73 -51 -124zM144 603q0 -44 30 -75t74 -31t74 30t30 75q0 44 -30.5 75
t-73.5 31t-73.5 -30.5t-30.5 -74.5zM375 477q-53 -51 -128 -51q-76 0 -127 52q-51 51 -51 124t52 125q51 52 126 52t127 -52t52 -126q0 -73 -51 -124zM265 0h-85l505 773h85z" />
    <glyph glyph-name="perthousand.alt1" horiz-adv-x="1360" 
d="M608 171q0 -44 30 -75t74 -31t74 30t30 75q0 44 -30.5 75t-73.5 31t-73.5 -30.5t-30.5 -74.5zM839 45q-53 -51 -128 -51q-76 0 -127 52q-51 51 -51 124t52 125q51 52 126 52t127 -52t52 -126q0 -73 -51 -124zM144 603q0 -44 30 -75t74 -31t74 30t30 75q0 44 -30.5 75
t-73.5 31t-73.5 -30.5t-30.5 -74.5zM375 477q-53 -51 -128 -51q-76 0 -127 52q-51 51 -51 124t52 125q51 52 126 52t127 -52t52 -126q0 -73 -51 -124zM1018 171q0 -44 30 -75t74 -31t74 30t30 75q0 44 -30.5 75t-73.5 31t-73.5 -30.5t-30.5 -74.5zM1249 45q-53 -51 -128 -51
q-76 0 -127 52q-51 51 -51 124t52 125q51 52 126 52t127 -52t52 -126q0 -73 -51 -124zM265 0h-85l505 773h85z" />
    <glyph glyph-name="registered.alt" horiz-adv-x="922" 
d="M859 387q0 -166 -116 -282q-117 -117 -282 -117q-167 0 -282 117q-116 116 -116 282q0 164 116 282q116 116 282 116q164 0 282 -116q116 -118 116 -282zM229 153q94 -97 232 -97t232 97q95 97 95 234t-95 235q-95 96 -232 96t-232 -96q-95 -98 -95 -235t95 -234z
M649 166h-86l-133 168h-47v-168h-70v445h177q63 0 105 -37.5t42 -96.5q0 -58 -33 -95.5t-88 -46.5zM471 549h-88v-155h87q41 0 67 21.5t26 56.5q0 36 -25 56.5t-67 20.5z" />
    <glyph glyph-name="acute.case" horiz-adv-x="300" 
d="M103 576h-60v17l93 112h99v-12z" />
    <glyph glyph-name="caron.case" horiz-adv-x="423" 
d="M242 581h-61l-115 124h81l65 -67l65 67h80z" />
    <glyph glyph-name="cedilla.case" horiz-adv-x="374" 
d="M94 -205l-15 58q57 4 96 42t46 96l74 -15q-10 -76 -66 -127q-57 -51 -135 -54z" />
    <glyph glyph-name="ogonek.case" horiz-adv-x="265" 
d="M175 30l45 -27q-112 -33 -112 -85q0 -39 53 -39q29 0 50 10l17 -50q-29 -17 -80 -17q-53 0 -82 22q-30 24 -30 68t42 76q40 33 97 42z" />
    <glyph glyph-name="breve.case" horiz-adv-x="472" 
d="M335 618q-40 -31 -99 -31t-99 31q-39 31 -41 85h68q1 -24 21.5 -41t50.5 -17t50 16.5t22 41.5h68q-1 -55 -41 -85z" />
    <glyph glyph-name="circumflex.case" horiz-adv-x="423" 
d="M147 581h-81l115 124h61l115 -124h-80l-66 64z" />
    <glyph glyph-name="dieresis.case" horiz-adv-x="409" 
d="M353 608q-16 -15 -38 -15t-37 15t-15 37t15 37t37 15t38 -15q15 -15 15 -37t-15 -37zM130 608q-15 -15 -37 -15t-37 15t-15 37t15 37t37 15t37 -15t15 -37t-15 -37z" />
    <glyph glyph-name="grave.case" horiz-adv-x="301" 
d="M261 576h-71l-127 116l-1 13h95l104 -117v-12z" />
    <glyph glyph-name="hungarumlaut.case" horiz-adv-x="444" 
d="M96 576h-48v11l66 116h79v-11zM266 576h-49v12l77 115h80v-11z" />
    <glyph glyph-name="ring.case" horiz-adv-x="341" 
d="M242 577q-30 -30 -72 -30t-71 30q-30 29 -30 71t30 72q29 29 71 29q41 0 72 -29q29 -31 29 -72q0 -42 -29 -71zM126 648q0 -18 13 -31t32 -13q18 0 30.5 13t12.5 31t-13 31.5t-31 13.5t-31 -13.5t-13 -31.5z" />
    <glyph glyph-name="tilde.case" horiz-adv-x="433" 
d="M332 707l55 -10q0 -43 -27 -71.5t-66 -28.5t-86 26t-66 26q-20 0 -31 -12q-12 -13 -13 -31l-52 9q0 44 26.5 72.5t65.5 28.5q38 0 86 -27q46 -27 66 -27q38 0 42 45z" />
    <glyph glyph-name="macron.case" horiz-adv-x="403" 
d="M350 609h-297v71h297v-71z" />
    <glyph glyph-name="dotaccent.case" horiz-adv-x="179" 
d="M146 647q0 -24 -17 -41t-40 -17q-24 0 -40 16.5t-16 40.5t16 40.5t40 16.5q23 0 40 -16.5t17 -39.5z" />
    <glyph glyph-name="_611" horiz-adv-x="852" 
d="M161 -60l-64 44l609 843l64 -43z" />
    <glyph glyph-name="f_l.dlig" horiz-adv-x="507" 
d="M92 416h-77v82h77v108q0 85 46 129t128 44t127 -44t45 -130v-605h-91v598q0 100 -83 100t-83 -100v-100h88v-82h-88v-416h-89v416z" />
    <glyph glyph-name="f_f_l.dlig" horiz-adv-x="793" 
d="M97 416h-82v82h82v114q0 77 46 122t121 45q73 0 122 -41l-44 -67q-32 27 -72 27t-62 -24q-23 -25 -23 -68v-108h193v108q0 85 45.5 129t127.5 44t127 -44t45 -130v-605h-90v598q1 100 -83 100t-84 -100v-100h89v-82h-89v-416h-88v416h-193v-416h-88v416z" />
    <glyph glyph-name="colon.case" horiz-adv-x="242" 
d="M63 187q0 21 16.5 36.5t40.5 15.5q23 0 40 -15.5t17 -36.5q0 -22 -17 -38t-40 -16q-24 0 -40.5 16t-16.5 38zM64 568q0 21 17 36.5t41 15.5q23 0 40 -15.5t17 -36.5q0 -22 -17.5 -38t-40.5 -16t-40 16t-17 38z" />
    <glyph glyph-name="two.tlf" horiz-adv-x="559" 
d="M510 0h-466v54l318 419q41 54 41.5 107t-37.5 88q-38 36 -96 36q-57 0 -95 -39q-38 -41 -39 -103h-88q0 96 64 160q63 65 159 65t159 -60q64 -60 63 -143t-70 -171l-255 -330h342v-83z" />
    <glyph glyph-name="three.tlf" horiz-adv-x="559" 
d="M506 214q0 -94 -69 -160t-164 -66t-163 65t-70 154h84q2 -56 45 -95q43 -40 104 -40q58 0 102 41q43 40 43 103q0 62 -42 104q-44 42 -107 42h-36l1 84h35q60 0 101 38q40 37 40 94q0 54 -39 92q-38 37 -98 37t-99 -39q-40 -39 -40 -95h-84v3q0 88 64 149q65 62 160 62
q96 0 160 -61t64 -151q0 -59 -32 -105t-87 -67q58 -20 92.5 -70.5t34.5 -118.5z" />
    <glyph glyph-name="four.tlf" horiz-adv-x="559" 
d="M332 184h-305v49l285 540h95l-265 -507h190v129h84v-129h108v-82h-108v-184h-84v184z" />
    <glyph glyph-name="five.tlf" horiz-adv-x="559" 
d="M275 -12q-87 0 -154 47q-67 46 -93 125l83 32q16 -53 61.5 -85t110.5 -32q68 0 116 49q48 48 48 120t-50 120q-48 48 -120 48t-124 -52h-87v413h429v-85h-341v-231q55 37 123 37q114 0 188 -71q72 -71 72 -179t-75 -182q-77 -74 -187 -74z" />
    <glyph glyph-name="six.tlf" horiz-adv-x="559" 
d="M518 216q0 -95 -67 -161q-67 -67 -162 -67q-97 0 -161 67q-66 67 -66 161v335q0 104 66 170q65 65 159 65t156 -58q63 -59 63 -154h-85q0 56 -38 94q-38 36 -97 36q-58 0 -99 -41q-40 -41 -40 -108v-183q57 70 148 70t157 -66t66 -160zM148 219q0 -62 41 -106
q40 -43 100 -43q58 0 101 43q42 43 42 102t-42 102q-44 42 -99 42t-99 -39t-44 -101z" />
    <glyph glyph-name="seven.tlf" horiz-adv-x="559" 
d="M210 -6l-88 12l270 681h-335v86h448v-41z" />
    <glyph glyph-name="eight.tlf" horiz-adv-x="559" 
d="M447 56q-71 -68 -169 -68t-168 68q-69 67 -69 166q0 60 31.5 112.5t84.5 82.5q-42 28 -65.5 71.5t-23.5 94.5q0 85 62 145q62 59 148 59q85 0 149 -59q62 -60 62 -145q0 -105 -91 -166q55 -30 86.5 -81.5t31.5 -113.5q0 -99 -69 -166zM403 580q0 52 -36 89q-37 36 -89 36
q-54 0 -88 -36q-36 -37 -36 -89q0 -53 36 -89q34 -37 88 -37q52 0 89 37q36 37 36 89zM131 222q0 -63 43 -106q44 -44 105 -44q60 0 104 44q43 43 43 106q0 62 -43 105q-43 42 -105 42t-104 -42q-43 -43 -43 -105z" />
    <glyph glyph-name="nine.tlf" horiz-adv-x="559" 
d="M265 335q-88 0 -155 65q-67 64 -67 162q0 96 71 161q70 64 161 64q90 0 158 -65t68 -158q0 -60 -27 -114q-49 -96 -118 -225q-106 -200 -119 -225h-96q35 68 99 189q24 46 51 95.5t31 57.5q-24 -7 -57 -7zM129 562q0 -62 43 -104q42 -42 103 -42q59 0 100 42
q40 41 40 104q0 62 -41 103q-41 40 -99 40q-59 0 -102 -40q-44 -41 -44 -103z" />
    <glyph glyph-name="Ymacron" horiz-adv-x="609" 
d="M455 858h-297v71h297v-71zM308 405l199 368h104l-257 -464v-309h-96v306l-260 467h108z" />
    <glyph glyph-name="Ncircumflex" horiz-adv-x="787" 
d="M331 830h-81l115 124h61l115 -124h-80l-66 64zM185 0h-96v773h61l452 -574v574h96v-773h-58l-455 576v-576z" />
    <glyph glyph-name="Mcircumflex" horiz-adv-x="881" 
d="M373 830h-81l115 124h61l115 -124h-80l-66 64zM183 0h-94v773h93l256 -433l259 433h95v-773h-94v600h-3l-257 -425l-254 420h-1v-595z" />
    <glyph glyph-name="mcircumflex" horiz-adv-x="928" 
d="M388 581h-81l135 154h61l135 -154h-80l-86 94zM516 0h-91v288q0 60 -36 95q-34 34 -85 34q-94 0 -144 -74v-343h-91v498h91v-52q57 59 145 59q118 0 180 -83q68 83 174 83q90 0 151 -58q62 -59 62 -154v-293h-91v281q0 61 -38 99q-38 37 -95 37q-84 0 -132 -79v-338z" />
    <glyph glyph-name="ymacron" horiz-adv-x="505" 
d="M401 613h-297v71h297v-71zM206 5l-208 493h102l153 -379l159 379h96l-289 -676h-90z" />
    <glyph glyph-name="hyphen.case" horiz-adv-x="393" 
d="M347 343h-301v82h301v-82z" />
    <glyph glyph-name="at.case" horiz-adv-x="1028" 
d="M645 237q-56 -68 -144 -68q-90 0 -152 62t-62 150q0 87 62 149t151 62q70 0 125 -48l2 53h78v-283q0 -35 17.5 -53t48.5 -18q55 0 84 50t29 123q0 141 -107 242q-106 100 -262 100q-155 0 -263 -108q-108 -110 -108 -264t108 -264q107 -110 261 -110q123 0 215 57l39 -67
q-109 -66 -254 -66q-185 0 -316 132q-131 131 -131 318t131 318t317 131t317 -122q131 -123 131 -297q0 -100 -51 -173q-51 -75 -139 -75t-127 69zM504 250q39 0 70.5 21t49.5 57v103q-17 37 -49.5 59.5t-70.5 22.5q-56 0 -94 -39q-39 -39 -39 -94q0 -54 38 -92t95 -38z" />
    <glyph glyph-name="zero.num" horiz-adv-x="412" 
d="M310 389q-41 -34 -104 -34t-103 34q-43 33 -53 90q-17 81 2 180q8 48 50 83q41 34 104 34t104 -34q42 -36 52 -91q7 -31 7 -88t-7 -84q-10 -56 -52 -90zM204 427q50 0 68.5 34t18.5 105q0 80 -20 109q-21 29 -69 29q-47 0 -64 -35q-17 -37 -17 -84q0 -49 3 -70
q1 -17 10 -43q17 -45 70 -45z" />
    <glyph glyph-name="one.num" horiz-adv-x="242" 
d="M186 361h-75v321l-89 -44v74l125 65h39v-416z" />
    <glyph glyph-name="two.num" horiz-adv-x="376" 
d="M336 361h-298v53l185 165q48 45 30.5 87t-68.5 42q-33 0 -54.5 -22.5t-21.5 -56.5h-73q0 65 42 108q42 42 108 42t108 -39q41 -41 41 -99q0 -59 -65 -113l-114 -99h180v-68z" />
    <glyph glyph-name="three.num" horiz-adv-x="369" 
d="M287 392q-43 -37 -106 -37t-106 37t-43 98v3h72q0 -31 22 -50q20 -20 54 -20t54 18t20 43q0 27 -21 43q-19 16 -56 16h-30v57h23q76 0 76 55q0 25 -18 40.5t-48 15.5q-31 0 -50 -16t-19 -45h-72q0 58 41 94q41 35 100 35q61 0 101 -34t40 -89q0 -54 -52 -81
q60 -29 60 -95q0 -50 -42 -88z" />
    <glyph glyph-name="four.num" horiz-adv-x="369" 
d="M225 447h-206v56l165 271h81l-161 -262h121v80h70v-80h46v-65h-46v-86h-70v86z" />
    <glyph glyph-name="five.num" horiz-adv-x="391" 
d="M351 494q0 -61 -44 -100q-45 -39 -107 -39t-104 28.5t-56 77.5l71 22q19 -63 84 -63q35 0 58 21.5t23 52.5q0 30 -22 51t-63 21q-40 0 -63 -29h-72v237h277v-67h-204v-96q28 19 70 19q67 0 110 -38q42 -38 42 -98z" />
    <glyph glyph-name="six.num" horiz-adv-x="375" 
d="M298 397q-45 -42 -111 -42t-111 42q-45 41 -45 99q0 41 32 96l109 182h89l-85 -139q3 1 11 1q68 0 112 -40q44 -41 44 -98q0 -59 -45 -101zM107 499q0 -32 22 -54t57 -22t58 21.5t23 52.5q0 30 -22.5 51.5t-55.5 21.5q-34 0 -58 -20.5t-24 -50.5z" />
    <glyph glyph-name="seven.num" horiz-adv-x="320" 
d="M145 361h-82l156 342h-198v71h289v-48z" />
    <glyph glyph-name="eight.num" horiz-adv-x="366" 
d="M286 393q-40 -37 -103 -37t-103 37t-40 92t52 91q-45 34 -45 84t39 86q40 35 98 35q57 0 97 -35q38 -35 38 -86q0 -50 -45 -85q52 -33 52 -89t-40 -93zM248 659q0 25 -17.5 41.5t-46.5 16.5q-30 0 -47 -17q-27 -27 -13.5 -62.5t53.5 -36.5h6q29 0 47 16.5t18 41.5z
M112 485q0 -27 20 -45.5t52 -18.5t51 18t19 45t-19 44.5t-51 17.5q-33 0 -52.5 -17.5t-19.5 -43.5z" />
    <glyph glyph-name="nine.num" horiz-adv-x="375" 
d="M31 638q0 59 45 101q46 41 112 41q65 0 111 -41q83 -79 13 -196l-109 -182h-89l84 138h-10q-68 0 -112 40q-45 41 -45 99zM267 636q0 32 -21.5 54t-56.5 22t-58.5 -21.5t-23.5 -52.5q0 -30 23 -51.5t56 -21.5t57 20.5t24 50.5z" />
    <glyph glyph-name="zero.den" horiz-adv-x="412" 
d="M310 29q-41 -34 -104 -34t-103 34q-43 33 -53 90q-17 81 2 180q8 48 50 83q41 34 104 34t104 -34q42 -36 52 -91q7 -31 7 -88t-7 -84q-10 -56 -52 -90zM204 67q50 0 68.5 34t18.5 105q0 80 -20 109q-21 29 -69 29q-47 0 -64 -35q-17 -37 -17 -84q0 -49 3 -70
q1 -17 10 -43q16 -45 70 -45z" />
    <glyph glyph-name="one.den" horiz-adv-x="242" 
d="M186 1h-75v321l-89 -44v74l125 65h39v-416z" />
    <glyph glyph-name="two.den" horiz-adv-x="376" 
d="M336 1h-298v53l185 165q48 45 30.5 87t-68.5 42q-33 0 -54.5 -22.5t-21.5 -56.5h-73q0 65 42 108q42 42 108 42t108 -39q41 -41 41 -99q0 -59 -65 -113l-114 -99h180v-68z" />
    <glyph glyph-name="three.den" horiz-adv-x="369" 
d="M287 32q-43 -37 -106 -37t-106 37t-43 98v3h72q0 -31 22 -50q20 -20 54 -20t54 18t20 43q0 27 -21 43q-19 16 -56 16h-30v57h23q76 0 76 55q0 25 -18 40.5t-48 15.5q-31 0 -50 -16t-19 -45h-72q0 58 41 94q41 35 100 35q61 0 101 -34t40 -89q0 -54 -52 -81q60 -29 60 -95
q0 -50 -42 -88z" />
    <glyph glyph-name="four.den" horiz-adv-x="369" 
d="M225 87h-206v56l165 271h81l-161 -262h121v80h70v-80h46v-65h-46v-86h-70v86z" />
    <glyph glyph-name="five.den" horiz-adv-x="391" 
d="M351 134q0 -61 -44 -100q-45 -39 -107 -39t-104 28.5t-56 77.5l71 22q19 -63 84 -63q35 0 58 21.5t23 52.5q0 30 -22 51t-63 21q-40 0 -63 -29h-72v237h277v-67h-204v-96q28 19 70 19q67 0 110 -38q42 -38 42 -98z" />
    <glyph glyph-name="six.den" horiz-adv-x="375" 
d="M298 37q-45 -42 -111 -42t-111 42q-45 41 -45 99q0 41 32 96l109 182h89l-85 -139q3 1 11 1q68 0 112 -40q44 -41 44 -98q0 -59 -45 -101zM107 139q0 -32 22 -54t57 -22t58 21.5t23 52.5q0 30 -22.5 51.5t-55.5 21.5q-34 0 -58 -20.5t-24 -50.5z" />
    <glyph glyph-name="seven.den" horiz-adv-x="320" 
d="M145 1h-82l156 342h-198v71h289v-48z" />
    <glyph glyph-name="eight.den" horiz-adv-x="366" 
d="M286 33q-40 -37 -103 -37t-103 37t-40 92t52 91q-45 34 -45 84t39 86q40 35 98 35q57 0 97 -35q38 -35 38 -86t-45 -85q52 -33 52 -89t-40 -93zM248 299q0 25 -17.5 41.5t-46.5 16.5q-30 0 -47 -17q-27 -27 -13.5 -62.5t53.5 -36.5h6q29 0 47 16.5t18 41.5zM112 125
q0 -27 20 -45.5t52 -18.5t51 18t19 45t-19 44.5t-51 17.5q-33 0 -52.5 -17.5t-19.5 -43.5z" />
    <glyph glyph-name="nine.den" horiz-adv-x="375" 
d="M31 278q0 59 45 101q46 41 112 41q65 0 111 -41q83 -79 13 -196l-109 -182h-89l84 138h-10q-68 0 -112 40q-45 41 -45 99zM267 276q0 32 -21.5 54t-56.5 22t-58.5 -21.5t-23.5 -52.5q0 -30 23 -51.5t56 -21.5t57 20.5t24 50.5z" />
    <glyph glyph-name="zero.sub" horiz-adv-x="412" 
d="M310 -52q-42 -33 -104 -33t-103 33q-43 35 -53 91q-17 81 2 180q8 48 50 83q41 34 104 34t104 -34q42 -36 52 -91q7 -31 7 -88t-7 -84q-10 -55 -52 -91zM204 -13q50 0 68.5 34t18.5 105q0 80 -20 109q-21 29 -69 29q-47 0 -64 -35q-17 -37 -17 -84q0 -49 3 -70
q1 -17 10 -43q16 -45 70 -45z" />
    <glyph glyph-name="one.sub" horiz-adv-x="242" 
d="M186 -79h-75v321l-89 -44v74l125 65h39v-416z" />
    <glyph glyph-name="two.sub" horiz-adv-x="376" 
d="M336 -79h-298v53l185 165q48 45 30.5 87t-68.5 42q-33 0 -54.5 -22.5t-21.5 -56.5h-73q0 65 42 108q42 42 108 42t108 -39q41 -41 41 -99q0 -59 -65 -113l-114 -99h180v-68z" />
    <glyph glyph-name="three.sub" horiz-adv-x="369" 
d="M287 -48q-43 -37 -106 -37t-106 37t-43 98v3h72q0 -31 22 -50q20 -20 54 -20t54 18t20 43q0 27 -21 43q-19 16 -56 16h-30v57h23q76 0 76 55q0 25 -18 40.5t-48 15.5q-31 0 -50 -16t-19 -45h-72q0 58 41 94q41 35 100 35q61 0 101 -34t40 -89q0 -54 -52 -81
q60 -28 60 -95q0 -51 -42 -88z" />
    <glyph glyph-name="four.sub" horiz-adv-x="369" 
d="M225 7h-206v56l165 271h81l-161 -262h121v80h70v-80h46v-65h-46v-86h-70v86z" />
    <glyph glyph-name="five.sub" horiz-adv-x="391" 
d="M351 54q0 -61 -44 -100q-45 -39 -107 -39t-104 28.5t-56 77.5l71 22q19 -63 84 -63q35 0 58 21.5t23 52.5q0 30 -22 51t-63 21q-40 0 -63 -29h-72v237h277v-67h-204v-96q28 19 70 19q67 0 110 -38q42 -38 42 -98z" />
    <glyph glyph-name="six.sub" horiz-adv-x="375" 
d="M298 -43q-45 -42 -111 -42q-65 0 -111 41q-45 42 -45 100q0 41 32 96l109 182h89l-85 -139q3 1 11 1q68 0 112 -40q44 -41 44 -98q0 -59 -45 -101zM107 59q0 -32 22 -54t57 -22t58 21.5t23 52.5q0 30 -22.5 51.5t-55.5 21.5q-34 0 -58 -20.5t-24 -50.5z" />
    <glyph glyph-name="seven.sub" horiz-adv-x="320" 
d="M145 -79h-82l156 342h-198v71h289v-48z" />
    <glyph glyph-name="eight.sub" horiz-adv-x="366" 
d="M286 -47q-40 -37 -103 -37t-103 37t-40 92t52 91q-45 34 -45 84t39 86q40 35 98 35q57 0 97 -35q38 -35 38 -86q0 -50 -45 -85q52 -33 52 -89t-40 -93zM248 219q0 25 -17.5 41.5t-46.5 16.5q-30 0 -47 -17q-27 -27 -13.5 -62.5t53.5 -36.5h6q29 0 47 16.5t18 41.5z
M112 45q0 -27 20 -45.5t52 -18.5t51 18t19 45t-19 44.5t-51 17.5q-33 0 -52.5 -17.5t-19.5 -43.5z" />
    <glyph glyph-name="nine.sub" horiz-adv-x="375" 
d="M31 198q0 59 45 101q46 41 112 41q65 0 111 -41q83 -79 13 -196l-109 -182h-89l84 138h-10q-68 0 -112 40q-45 41 -45 99zM267 196q0 32 -21.5 54t-56.5 22t-58.5 -21.5t-23.5 -52.5q0 -30 23 -51.5t56 -21.5t57 20.5t24 50.5z" />
    <glyph glyph-name="glyph515" horiz-adv-x="852" 
d="M97 -16l609 843l64 -43l-609 -844z" />
    </font>
</defs>
</svg>
